<mxfile host="app.diagrams.net" modified="2021-08-25T16:49:09.596Z" agent="5.0 (Macintosh)" etag="Sx5mjMbNm1CoDv_aBZ8W" version="14.9.0" type="github">
  <diagram id="dZH9EdLfDydXVO-YboX0" name="Page-1">
    <mxGraphModel dx="1857" dy="539" grid="1" gridSize="10" guides="1" tooltips="1" connect="1" arrows="1" fold="1" page="1" pageScale="1" pageWidth="850" pageHeight="1100" math="0" shadow="0">
      <root>
        <mxCell id="0" />
        <mxCell id="1" parent="0" />
        <mxCell id="5uHmlVRf-8RIRmUeGgEY-8" value="" style="shape=process;whiteSpace=wrap;html=1;backgroundOutline=1;" vertex="1" parent="1">
          <mxGeometry x="10" y="160" width="310" height="90" as="geometry" />
        </mxCell>
        <mxCell id="5uHmlVRf-8RIRmUeGgEY-7" value="&lt;h1&gt;Query:&lt;/h1&gt;&lt;div&gt;Changes in Atlantic Meridional overturning circulation due to greenland ice melt&lt;br&gt;&lt;/div&gt;" style="text;html=1;strokeColor=none;fillColor=none;spacing=5;spacingTop=-20;whiteSpace=wrap;overflow=hidden;rounded=0;" vertex="1" parent="1">
          <mxGeometry x="40" y="160" width="250" height="90" as="geometry" />
        </mxCell>
        <mxCell id="5uHmlVRf-8RIRmUeGgEY-11" value="&lt;h1&gt;Results:&lt;/h1&gt;" style="text;html=1;strokeColor=#000000;fillColor=none;spacing=5;spacingTop=-20;whiteSpace=wrap;overflow=hidden;rounded=0;shadow=1;" vertex="1" parent="1">
          <mxGeometry x="10" y="260" width="640" height="320" as="geometry" />
        </mxCell>
        <mxCell id="5uHmlVRf-8RIRmUeGgEY-13" value="Topics" style="swimlane;shadow=1;strokeColor=#000000;" vertex="1" parent="1">
          <mxGeometry x="20" y="290" width="210" height="280" as="geometry" />
        </mxCell>
        <mxCell id="5uHmlVRf-8RIRmUeGgEY-14" value="&lt;p&gt;- Atlantic Meridional Overturning Circulation&lt;/p&gt;&lt;p&gt;- Physical oceanography&lt;/p&gt;&lt;p&gt;- Climate change&lt;/p&gt;&lt;div&gt;&lt;span style=&quot;background-color: rgb(51 , 153 , 255)&quot;&gt;- Ocean ice physics&lt;/span&gt;&lt;/div&gt;&lt;div&gt;&lt;br&gt;&lt;/div&gt;&lt;div&gt;- Global ocean heat budget&lt;/div&gt;&lt;div&gt;&lt;br&gt;&lt;/div&gt;&lt;div&gt;- Greenland ice shelf changes&lt;/div&gt;&lt;div&gt;....&lt;br&gt;&lt;/div&gt;" style="text;whiteSpace=wrap;html=1;" vertex="1" parent="1">
          <mxGeometry x="30" y="320" width="180" height="250" as="geometry" />
        </mxCell>
        <mxCell id="5uHmlVRf-8RIRmUeGgEY-15" value="Institutions" style="swimlane;shadow=1;strokeColor=#000000;" vertex="1" parent="1">
          <mxGeometry x="240" y="290" width="210" height="280" as="geometry" />
        </mxCell>
        <mxCell id="5uHmlVRf-8RIRmUeGgEY-16" value="&lt;div&gt;&lt;font style=&quot;font-size: 10px&quot;&gt;- California Institute of Technology&lt;br&gt;&lt;/font&gt;&lt;/div&gt;&lt;div&gt;&lt;font style=&quot;font-size: 10px&quot;&gt;&lt;br&gt;&lt;/font&gt;&lt;/div&gt;&lt;div&gt;&lt;font style=&quot;font-size: 10px&quot;&gt;- Scripps Institute of Oceanography&lt;/font&gt;&lt;/div&gt;&lt;div&gt;&lt;font style=&quot;font-size: 10px&quot;&gt;&lt;br&gt;&lt;/font&gt;&lt;/div&gt;&lt;div&gt;&lt;font style=&quot;font-size: 10px&quot;&gt;- MIT, Woods Hole&lt;/font&gt;&lt;/div&gt;&lt;div&gt;&lt;font style=&quot;font-size: 10px&quot;&gt;&lt;br&gt;&lt;/font&gt;&lt;/div&gt;&lt;div&gt;&lt;font style=&quot;font-size: 10px&quot;&gt;- University of Washington&lt;/font&gt;&lt;/div&gt;&lt;div&gt;&lt;font size=&quot;3&quot;&gt;&lt;br&gt;&lt;/font&gt;&lt;/div&gt;&lt;div&gt;&lt;font size=&quot;3&quot;&gt;...&lt;br&gt;&lt;/font&gt;&lt;/div&gt;" style="text;whiteSpace=wrap;html=1;" vertex="1" parent="1">
          <mxGeometry x="250" y="320" width="200" height="250" as="geometry" />
        </mxCell>
        <mxCell id="5uHmlVRf-8RIRmUeGgEY-18" value="" style="rounded=0;whiteSpace=wrap;html=1;shadow=1;strokeColor=#000000;" vertex="1" parent="1">
          <mxGeometry x="10" y="590" width="640" height="280" as="geometry" />
        </mxCell>
        <mxCell id="5uHmlVRf-8RIRmUeGgEY-19" value="&lt;div&gt;Dimension&lt;/div&gt;&lt;div&gt;- Influence&lt;/div&gt;&lt;div&gt;- Citations&lt;/div&gt;&lt;div&gt;- Impact&lt;/div&gt;&lt;div&gt;&lt;br&gt;&lt;/div&gt;" style="text;html=1;strokeColor=none;fillColor=none;align=left;verticalAlign=middle;whiteSpace=wrap;rounded=0;shadow=1;" vertex="1" parent="1">
          <mxGeometry x="20" y="600" width="160" height="110" as="geometry" />
        </mxCell>
        <mxCell id="5uHmlVRf-8RIRmUeGgEY-20" value="Caltech" style="ellipse;whiteSpace=wrap;html=1;aspect=fixed;shadow=1;strokeColor=#000000;fillColor=#FFFF00;" vertex="1" parent="1">
          <mxGeometry x="460" y="610" width="140" height="140" as="geometry" />
        </mxCell>
        <mxCell id="5uHmlVRf-8RIRmUeGgEY-21" value="UCLA" style="ellipse;whiteSpace=wrap;html=1;aspect=fixed;shadow=1;strokeColor=#000000;fillColor=#FFCCCC;" vertex="1" parent="1">
          <mxGeometry x="450" y="610" width="40" height="40" as="geometry" />
        </mxCell>
        <mxCell id="5uHmlVRf-8RIRmUeGgEY-22" value="USC" style="ellipse;whiteSpace=wrap;html=1;aspect=fixed;shadow=1;strokeColor=#000000;fillColor=#99CCFF;" vertex="1" parent="1">
          <mxGeometry x="550" y="710" width="40" height="40" as="geometry" />
        </mxCell>
        <mxCell id="5uHmlVRf-8RIRmUeGgEY-23" value="Scripps" style="ellipse;whiteSpace=wrap;html=1;aspect=fixed;shadow=1;strokeColor=#000000;fillColor=#FF8000;" vertex="1" parent="1">
          <mxGeometry x="460" y="720" width="70" height="70" as="geometry" />
        </mxCell>
        <mxCell id="5uHmlVRf-8RIRmUeGgEY-24" value="" style="endArrow=none;html=1;entryX=0;entryY=0.5;entryDx=0;entryDy=0;" edge="1" parent="1" source="5uHmlVRf-8RIRmUeGgEY-25" target="5uHmlVRf-8RIRmUeGgEY-20">
          <mxGeometry width="50" height="50" relative="1" as="geometry">
            <mxPoint x="330" y="550" as="sourcePoint" />
            <mxPoint x="380" y="500" as="targetPoint" />
          </mxGeometry>
        </mxCell>
        <mxCell id="5uHmlVRf-8RIRmUeGgEY-25" value="MIT Woods Hole" style="ellipse;whiteSpace=wrap;html=1;aspect=fixed;shadow=1;strokeColor=#000000;fillColor=#FF8000;" vertex="1" parent="1">
          <mxGeometry x="90" y="635" width="190" height="190" as="geometry" />
        </mxCell>
        <mxCell id="5uHmlVRf-8RIRmUeGgEY-26" value="" style="endArrow=none;html=1;exitX=1;exitY=0;exitDx=0;exitDy=0;" edge="1" parent="1" source="5uHmlVRf-8RIRmUeGgEY-25" target="5uHmlVRf-8RIRmUeGgEY-21">
          <mxGeometry width="50" height="50" relative="1" as="geometry">
            <mxPoint x="370" y="670" as="sourcePoint" />
            <mxPoint x="420" y="620" as="targetPoint" />
          </mxGeometry>
        </mxCell>
        <mxCell id="5uHmlVRf-8RIRmUeGgEY-27" value="Columbia LDEO" style="ellipse;whiteSpace=wrap;html=1;aspect=fixed;shadow=1;strokeColor=#000000;fillColor=#FF0000;" vertex="1" parent="1">
          <mxGeometry x="230" y="750" width="80" height="80" as="geometry" />
        </mxCell>
        <mxCell id="5uHmlVRf-8RIRmUeGgEY-28" value="&#xa;&#xa;&#xa;&#xa;&#xa;&#xa;&#xa;&#xa;&#xa;&#xa;&#xa;&#xa;&#xa;&lt;table style=&quot;border-collapse: collapse ; width: 805pt&quot; width=&quot;1073&quot; cellspacing=&quot;0&quot; cellpadding=&quot;0&quot; border=&quot;0&quot;&gt;&#xa;&#xa; &lt;colgroup&gt;&lt;col style=&quot;width: 184pt&quot; width=&quot;245&quot;&gt;&#xa; &lt;col style=&quot;width: 88pt&quot; width=&quot;117&quot;&gt;&#xa; &lt;col style=&quot;width: 123pt&quot; width=&quot;164&quot;&gt;&#xa; &lt;col style=&quot;width: 65pt&quot; width=&quot;87&quot;&gt;&#xa; &lt;col style=&quot;width: 127pt&quot; width=&quot;169&quot;&gt;&#xa; &lt;col style=&quot;width: 88pt&quot; width=&quot;117&quot;&gt;&#xa; &lt;col style=&quot;width: 65pt&quot; width=&quot;87&quot; span=&quot;2&quot;&gt;&#xa; &lt;/colgroup&gt;&lt;tbody&gt;&lt;tr style=&quot;height: 16.0pt&quot;&gt;&#xa;  &lt;td class=&quot;xl63&quot; style=&quot;height: 16.0pt ; width: 184pt&quot; width=&quot;245&quot; height=&quot;21&quot;&gt;Institution&lt;/td&gt;&#xa;  &lt;td class=&quot;xl63&quot; style=&quot;border-left: none ; width: 88pt&quot; width=&quot;117&quot;&gt;publications&lt;/td&gt;&#xa;  &lt;td class=&quot;xl63&quot; style=&quot;border-left: none ; width: 123pt&quot; width=&quot;164&quot;&gt;mean_references&lt;/td&gt;&#xa;  &lt;td class=&quot;xl63&quot; style=&quot;border-left: none ; width: 65pt&quot; width=&quot;87&quot;&gt;prestige&lt;/td&gt;&#xa;  &lt;td class=&quot;xl63&quot; style=&quot;border-left: none ; width: 127pt&quot; width=&quot;169&quot;&gt;mean_journal_influence&lt;/td&gt;&#xa;  &lt;td class=&quot;xl63&quot; style=&quot;border-left: none ; width: 88pt&quot; width=&quot;117&quot;&gt;total_references&lt;/td&gt;&#xa;  &lt;td class=&quot;xl63&quot; style=&quot;border-left: none ; width: 65pt&quot; width=&quot;87&quot;&gt;mean_links&lt;/td&gt;&#xa;  &lt;td class=&quot;xl63&quot; style=&quot;border-left: none ; width: 65pt&quot; width=&quot;87&quot;&gt;impact&lt;/td&gt;&#xa; &lt;/tr&gt;&#xa; &lt;tr style=&quot;height: 16.0pt&quot;&gt;&#xa;  &lt;td class=&quot;xl64&quot; style=&quot;height: 16.0pt ; border-top: none&quot; height=&quot;21&quot;&gt;ASU&lt;/td&gt;&#xa;  &lt;td class=&quot;xl64&quot; style=&quot;border-top: none ; border-left: none&quot; align=&quot;right&quot;&gt;199&lt;/td&gt;&#xa;  &lt;td class=&quot;xl64&quot; style=&quot;border-top: none ; border-left: none&quot; align=&quot;right&quot;&gt;1000&lt;/td&gt;&#xa;  &lt;td class=&quot;xl64&quot; style=&quot;border-top: none ; border-left: none&quot; align=&quot;right&quot;&gt;0.5&lt;/td&gt;&#xa;  &lt;td class=&quot;xl64&quot; style=&quot;border-top: none ; border-left: none&quot; align=&quot;right&quot;&gt;0.761962652&lt;/td&gt;&#xa;  &lt;td class=&quot;xl64&quot; style=&quot;border-top: none ; border-left: none&quot; align=&quot;right&quot;&gt;1000&lt;/td&gt;&#xa;  &lt;td class=&quot;xl64&quot; style=&quot;border-top: none ; border-left: none&quot; align=&quot;right&quot;&gt;12117.5357&lt;/td&gt;&#xa;  &lt;td class=&quot;xl64&quot; style=&quot;border-top: none ; border-left: none&quot; align=&quot;right&quot;&gt;0.94221742&lt;/td&gt;&#xa; &lt;/tr&gt;&#xa; &lt;tr style=&quot;height: 16.0pt&quot;&gt;&#xa;  &lt;td class=&quot;xl64&quot; style=&quot;height: 16.0pt ; border-top: none&quot; height=&quot;21&quot;&gt;MIT Woods Hole&lt;/td&gt;&#xa;  &lt;td class=&quot;xl64&quot; style=&quot;border-top: none ; border-left: none&quot; align=&quot;right&quot;&gt;2999&lt;/td&gt;&#xa;  &lt;td class=&quot;xl64&quot; style=&quot;border-top: none ; border-left: none&quot; align=&quot;right&quot;&gt;600&lt;/td&gt;&#xa;  &lt;td class=&quot;xl64&quot; style=&quot;border-top: none ; border-left: none&quot; align=&quot;right&quot;&gt;0.95&lt;/td&gt;&#xa;  &lt;td class=&quot;xl64&quot; style=&quot;border-top: none ; border-left: none&quot; align=&quot;right&quot;&gt;0.302841018&lt;/td&gt;&#xa;  &lt;td class=&quot;xl64&quot; style=&quot;border-top: none ; border-left: none&quot; align=&quot;right&quot;&gt;800&lt;/td&gt;&#xa;  &lt;td class=&quot;xl64&quot; style=&quot;border-top: none ; border-left: none&quot; align=&quot;right&quot;&gt;10382.0442&lt;/td&gt;&#xa;  &lt;td class=&quot;xl64&quot; style=&quot;border-top: none ; border-left: none&quot; align=&quot;right&quot;&gt;0.60704905&lt;/td&gt;&#xa; &lt;/tr&gt;&#xa; &lt;tr style=&quot;height: 16.0pt&quot;&gt;&#xa;  &lt;td class=&quot;xl64&quot; style=&quot;height: 16.0pt ; border-top: none&quot; height=&quot;21&quot;&gt;Columbia LDEO&lt;/td&gt;&#xa;  &lt;td class=&quot;xl64&quot; style=&quot;border-top: none ; border-left: none&quot; align=&quot;right&quot;&gt;2145&lt;/td&gt;&#xa;  &lt;td class=&quot;xl64&quot; style=&quot;border-top: none ; border-left: none&quot; align=&quot;right&quot;&gt;500&lt;/td&gt;&#xa;  &lt;td class=&quot;xl64&quot; style=&quot;border-top: none ; border-left: none&quot; align=&quot;right&quot;&gt;0.95&lt;/td&gt;&#xa;  &lt;td class=&quot;xl64&quot; style=&quot;border-top: none ; border-left: none&quot; align=&quot;right&quot;&gt;0.786305283&lt;/td&gt;&#xa;  &lt;td class=&quot;xl64&quot; style=&quot;border-top: none ; border-left: none&quot; align=&quot;right&quot;&gt;500&lt;/td&gt;&#xa;  &lt;td class=&quot;xl64&quot; style=&quot;border-top: none ; border-left: none&quot; align=&quot;right&quot;&gt;10058.3872&lt;/td&gt;&#xa;  &lt;td class=&quot;xl64&quot; style=&quot;border-top: none ; border-left: none&quot; align=&quot;right&quot;&gt;0.94334531&lt;/td&gt;&#xa; &lt;/tr&gt;&#xa; &lt;tr style=&quot;height: 16.0pt&quot;&gt;&#xa;  &lt;td class=&quot;xl64&quot; style=&quot;height: 16.0pt ; border-top: none&quot; height=&quot;21&quot;&gt;Caltech&lt;/td&gt;&#xa;  &lt;td class=&quot;xl64&quot; style=&quot;border-top: none ; border-left: none&quot; align=&quot;right&quot;&gt;256&lt;/td&gt;&#xa;  &lt;td class=&quot;xl64&quot; style=&quot;border-top: none ; border-left: none&quot; align=&quot;right&quot;&gt;720&lt;/td&gt;&#xa;  &lt;td class=&quot;xl64&quot; style=&quot;border-top: none ; border-left: none&quot; align=&quot;right&quot;&gt;0.92&lt;/td&gt;&#xa;  &lt;td class=&quot;xl64&quot; style=&quot;border-top: none ; border-left: none&quot; align=&quot;right&quot;&gt;0.501272467&lt;/td&gt;&#xa;  &lt;td class=&quot;xl64&quot; style=&quot;border-top: none ; border-left: none&quot; align=&quot;right&quot;&gt;1200&lt;/td&gt;&#xa;  &lt;td class=&quot;xl64&quot; style=&quot;border-top: none ; border-left: none&quot; align=&quot;right&quot;&gt;16467.5538&lt;/td&gt;&#xa;  &lt;td class=&quot;xl64&quot; style=&quot;border-top: none ; border-left: none&quot; align=&quot;right&quot;&gt;0.86181228&lt;/td&gt;&#xa; &lt;/tr&gt;&#xa; &lt;tr style=&quot;height: 16.0pt&quot;&gt;&#xa;  &lt;td class=&quot;xl64&quot; style=&quot;height: 16.0pt ; border-top: none&quot; height=&quot;21&quot;&gt;UCLA&lt;/td&gt;&#xa;  &lt;td class=&quot;xl64&quot; style=&quot;border-top: none ; border-left: none&quot; align=&quot;right&quot;&gt;1194&lt;/td&gt;&#xa;  &lt;td class=&quot;xl64&quot; style=&quot;border-top: none ; border-left: none&quot; align=&quot;right&quot;&gt;300&lt;/td&gt;&#xa;  &lt;td class=&quot;xl64&quot; style=&quot;border-top: none ; border-left: none&quot; align=&quot;right&quot;&gt;0.85&lt;/td&gt;&#xa;  &lt;td class=&quot;xl64&quot; style=&quot;border-top: none ; border-left: none&quot; align=&quot;right&quot;&gt;1.22906206&lt;/td&gt;&#xa;  &lt;td class=&quot;xl64&quot; style=&quot;border-top: none ; border-left: none&quot; align=&quot;right&quot;&gt;134&lt;/td&gt;&#xa;  &lt;td class=&quot;xl64&quot; style=&quot;border-top: none ; border-left: none&quot; align=&quot;right&quot;&gt;10953.0077&lt;/td&gt;&#xa;  &lt;td class=&quot;xl64&quot; style=&quot;border-top: none ; border-left: none&quot; align=&quot;right&quot;&gt;1.4385749&lt;/td&gt;&#xa; &lt;/tr&gt;&#xa; &lt;tr style=&quot;height: 16.0pt&quot;&gt;&#xa;  &lt;td class=&quot;xl64&quot; style=&quot;height: 16.0pt ; border-top: none&quot; height=&quot;21&quot;&gt;Scripps&#xa;  Institution of Oceanography&lt;/td&gt;&#xa;  &lt;td class=&quot;xl64&quot; style=&quot;border-top: none ; border-left: none&quot; align=&quot;right&quot;&gt;200&lt;/td&gt;&#xa;  &lt;td class=&quot;xl64&quot; style=&quot;border-top: none ; border-left: none&quot; align=&quot;right&quot;&gt;400&lt;/td&gt;&#xa;  &lt;td class=&quot;xl64&quot; style=&quot;border-top: none ; border-left: none&quot; align=&quot;right&quot;&gt;0.93&lt;/td&gt;&#xa;  &lt;td class=&quot;xl64&quot; style=&quot;border-top: none ; border-left: none&quot; align=&quot;right&quot;&gt;0.29591722&lt;/td&gt;&#xa;  &lt;td class=&quot;xl64&quot; style=&quot;border-top: none ; border-left: none&quot; align=&quot;right&quot;&gt;855&lt;/td&gt;&#xa;  &lt;td class=&quot;xl64&quot; style=&quot;border-top: none ; border-left: none&quot; align=&quot;right&quot;&gt;13907.8984&lt;/td&gt;&#xa;  &lt;td class=&quot;xl64&quot; style=&quot;border-top: none ; border-left: none&quot; align=&quot;right&quot;&gt;0.8826574&lt;/td&gt;&#xa; &lt;/tr&gt;&#xa; &lt;tr style=&quot;height: 16.0pt&quot;&gt;&#xa;  &lt;td class=&quot;xl64&quot; style=&quot;height: 16.0pt ; border-top: none&quot; height=&quot;21&quot;&gt;USC&lt;/td&gt;&#xa;  &lt;td class=&quot;xl64&quot; style=&quot;border-top: none ; border-left: none&quot; align=&quot;right&quot;&gt;321&lt;/td&gt;&#xa;  &lt;td class=&quot;xl64&quot; style=&quot;border-top: none ; border-left: none&quot; align=&quot;right&quot;&gt;150&lt;/td&gt;&#xa;  &lt;td class=&quot;xl64&quot; style=&quot;border-top: none ; border-left: none&quot; align=&quot;right&quot;&gt;0.72&lt;/td&gt;&#xa;  &lt;td class=&quot;xl64&quot; style=&quot;border-top: none ; border-left: none&quot; align=&quot;right&quot;&gt;1.255849868&lt;/td&gt;&#xa;  &lt;td class=&quot;xl64&quot; style=&quot;border-top: none ; border-left: none&quot; align=&quot;right&quot;&gt;1200&lt;/td&gt;&#xa;  &lt;td class=&quot;xl64&quot; style=&quot;border-top: none ; border-left: none&quot; align=&quot;right&quot;&gt;7039.44324&lt;/td&gt;&#xa;  &lt;td class=&quot;xl64&quot; style=&quot;border-top: none ; border-left: none&quot; align=&quot;right&quot;&gt;0.58343664&lt;/td&gt;&#xa; &lt;/tr&gt;&#xa;&#xa;&lt;/tbody&gt;&lt;/table&gt;&#xa;&#xa;&#xa;&#xa;&#xa;" style="rounded=0;whiteSpace=wrap;html=1;shadow=1;strokeColor=#000000;" vertex="1" parent="1">
          <mxGeometry x="10" y="880" width="640" height="150" as="geometry" />
        </mxCell>
        <mxCell id="5uHmlVRf-8RIRmUeGgEY-30" value="ASU" style="ellipse;whiteSpace=wrap;html=1;aspect=fixed;shadow=1;strokeColor=#000000;fillColor=#CC0000;" vertex="1" parent="1">
          <mxGeometry x="280" y="600" width="50" height="50" as="geometry" />
        </mxCell>
        <mxCell id="5uHmlVRf-8RIRmUeGgEY-31" value="" style="endArrow=classic;html=1;" edge="1" parent="1" source="5uHmlVRf-8RIRmUeGgEY-30" target="5uHmlVRf-8RIRmUeGgEY-25">
          <mxGeometry width="50" height="50" relative="1" as="geometry">
            <mxPoint x="390" y="870" as="sourcePoint" />
            <mxPoint x="440" y="820" as="targetPoint" />
          </mxGeometry>
        </mxCell>
        <mxCell id="5uHmlVRf-8RIRmUeGgEY-32" value="" style="endArrow=classic;html=1;" edge="1" parent="1" source="5uHmlVRf-8RIRmUeGgEY-30" target="5uHmlVRf-8RIRmUeGgEY-20">
          <mxGeometry width="50" height="50" relative="1" as="geometry">
            <mxPoint x="360" y="680" as="sourcePoint" />
            <mxPoint x="410" y="630" as="targetPoint" />
          </mxGeometry>
        </mxCell>
        <mxCell id="5uHmlVRf-8RIRmUeGgEY-33" value="" style="endArrow=classic;html=1;" edge="1" parent="1" source="5uHmlVRf-8RIRmUeGgEY-30" target="5uHmlVRf-8RIRmUeGgEY-23">
          <mxGeometry width="50" height="50" relative="1" as="geometry">
            <mxPoint x="390" y="750" as="sourcePoint" />
            <mxPoint x="440" y="700" as="targetPoint" />
          </mxGeometry>
        </mxCell>
        <mxCell id="5uHmlVRf-8RIRmUeGgEY-35" value="" style="shape=image;verticalLabelPosition=bottom;labelBackgroundColor=#ffffff;verticalAlign=top;aspect=fixed;imageAspect=0;image=data:image/png,iVBORw0KGgoAAAANSUhEUgAAB8QAAAG6CAYAAAB+wvztAAAKK2lDQ1BJQ0MgUHJvZmlsZQAASImVlgdUE9kexv8z6Y0ACaEFCL0JUgQCSO9NinRRCQmEGiEUFeyyuAIrgogIKgu4KqLg6grIWhHFimLDgm6QRUVdFwtYUNlBtr533jvvfXPuzG/+c893750758wHQMsUZGamo/IAGZIcaZiPOy86JpZH+hkQ4IIckEBdIMzOdAsJCQRMf1z/qfFbWG9M182mvP79+X+VgigxWwiAhGCcJcoWZmDcjbGvMFOaA4DSMdZdnJM5xRYYs6XYBDH2nGLxNEdPccI0p3/pEx7mgfEqADJdIJCKAailWJ2XJxRjPtR9GFtIRCkSjAcwdhYmC0QANC7GMzIyFk2xL8ZGCX/zEf/DM+FPT4FA/CdPr+WLlD29AgN5EdZWlvahPA9BekqCVJCTKPo/387/oIz03D/GnNoFeqIkYu7UOrDGBU/wgkDs4EEEWIMVWII9hGJ3HiCAdEiBBJBilAOJIMpJXJIzZeKxKHOpNEWcnMNzw3YzkecnEZrP4FlZWGFvf+rbmB7qddiX0RDO8b9qi3YC8McBcOV/1RIqAdqLAFTu/lXT2wHALARo6xLmSvOma/ipEwGowAQ2qIIm6IIRmGEztgVHcMVW4Q/BEA4xsACEkAwZ2LwXwzJYDUVQAhthM9RAHTTCHtgPB6EdjsIpOAsX4SrchHsgg2F4BqMwDhMIgpAQBsJCVBEtRB8xRawQPuKMeCGBSBgSg8QjYkSC5CLLkLVICVKB1CD1SBPyPXIEOYWcR/qQO8ggMoK8Qj6gOJSOslEN1ACdifJRNzQADUfno2I0C81HC9ENaDXagO5D29BT6EX0JipDn6FjOMDRcBycNs4Mx8d54IJxsbgknBS3AleMq8I14Fpwnbge3HWcDPcc9x5PxLPwPLwZ3hHvi4/AC/FZ+BX4UnwNfg++Dd+Nv44fxI/iPxMYBC7BlOBA8CNEE8SExYQiQhVhF+Ew4QzhJmGYME4kEjlEQ6Id0ZcYQ0wlFhBLiduJrcSTxD7iEHGMRCKpkkxJTqRgkoCUQyoibSXtI50gXSMNk96RaWQtshXZmxxLlpDXkKvIe8nHydfIj8kTFHmKPsWBEkwRUZZSyig7KZ2UK5RhygRVgWpIdaKGU1Opq6nV1BbqGeoA9TWNRtOh2dNCaSm0VbRq2gHaOdog7T1dkW5C96DH0XPpG+i76Sfpd+ivGQyGAcOVEcvIYWxgNDFOMx4w3smx5Mzl/OREcivlauXa5K7JvWBSmPpMN+YCZj6zinmIeYX5XJ4ibyDvIS+QXyFfK39Evl9+TIGlYKkQrJChUKqwV+G8whNFkqKBopeiSLFQsVHxtOIQC8fSZXmwhKy1rJ2sM6xhNpFtyPZjp7JL2PvZvexRJUWlWUqRSkuUapWOKck4OI4Bx4+TzinjHOTc4nxQ1lB2U05UXq/conxN+a2KuoqrSqJKsUqryk2VD6o8VS/VNNVy1XbV+2p4NRO1ULXFajvUzqg9V2erO6oL1YvVD6rf5aJcE24Yt4DbyL3EHdPQ1PDRyNTYqnFa47kmR9NVM1WzUvO45ogWS8tZK0WrUuuE1lOeEs+Nl86r5nXzRrW52r7audr12r3aEzqGOhE6a3Rade7rUnX5ukm6lbpduqN6WnpBesv0mvXu6lP0+frJ+lv0e/TfGhgaRBmsM2g3eGKoYuhnmG/YbDhgxDByMcoyajC6YUw05hunGW83vmqCmtiYJJvUmlwxRU1tTVNMt5v2zSDMsJ8hmdEwo9+MbuZmlmfWbDZozjEPNF9j3m7+YqbezNiZ5TN7Zn62sLFIt9hpcc9S0dLfco1lp+UrKxMroVWt1Q1rhrW39UrrDuuXs0xnJc7aMeu2DcsmyGadTZfNJ1s7W6lti+2InZ5dvN02u34+mx/CL+WfsyfYu9uvtD9q/97B1iHH4aDDr45mjmmOex2fzDacnTh75+whJx0ngVO9k8yZ5xzv/K2zzEXbReDS4PLQVddV5LrL9bGbsVuq2z63F+4W7lL3w+5vPRw8lnuc9MR5+ngWe/Z6KXpFeNV4PfDW8RZ7N3uP+tj4FPic9CX4BviW+/b7afgJ/Zr8Rv3t/Jf7dwfQA+YG1AQ8DDQJlAZ2BqFB/kGbggbm6M+RzGkPhmC/4E3B90MMQ7JCfgwlhoaE1oY+CrMMWxbWM5c1d+HcvXPHw93Dy8LvRRhF5EZ0RTIj4yKbIt9GeUZVRMmiZ0Yvj74YoxaTEtMRS4qNjN0VOzbPa97mecNxNnFFcbfmG85fMv/8ArUF6QuOLWQuFCw8FE+Ij4rfG/9RECxoEIwl+CVsSxgVegi3CJ+JXEWVopFEp8SKxMdJTkkVSU/ETuJN4pFkl+Sq5OcpHik1KS9TfVPrUt+mBaftTptMj0pvzSBnxGcckShK0iTdizQXLVnUl2maWZQpy3LI2pw1Kg2Q7spGsudnd+SwsZ/wpVyj3K9yB/Oc82rz3i2OXHxoicISyZJLS02Wrl/6ON87/7sCfIGwoGuZ9rLVywaXuy2vX4GsSFjRtVJ3ZeHK4VU+q/aspq5OW315jcWaijVv1kat7SzUKFxVOPSVz1fNRXJF0qL+dY7r6r7Gf53yde966/Vb138uFhVfKLEoqSr5WCosvfCN5TfV30xuSNrQW2ZbtmMjcaNk461yl/I9FQoV+RVDm4I2tVXyKosr32xeuPl81ayqui3ULblbZNWB1R1b9bZu3PqxJrnmZq17bes27rb1295uF22/tsN1R0udRl1J3YdvU769Xe9T39Zg0FDVSGzMa3y0M3Jnz3f875p2qe0q2fVpt2S3bE/Ynu4mu6amvdy9Zc1oc27zyL64fVf3e+7vaDFrqW/ltJYcgAO5B55+H//9rYMBB7sO8Q+1/KD/w7bDrMPFbUjb0rbR9uR2WUdMR98R/yNdnY6dh380/3H3Ue2jtceUjpUdpx4vPD55Iv/E2MnMk89PiU8NdS3sunc6+vSN7tDu3jMBZ86d9T57uset58Q5p3NHzzucP3KBf6H9ou3Ftks2lw5ftrl8uNe2t+2K3ZWOq/ZXO/tm9x2/5nLt1HXP62dv+N24eHPOzb5bEbdu98f1y26Lbj+5k37n5d28uxP3Vg0QBorvy9+vesB90PCT8U+tMlvZsUHPwUsP5z68NyQcevZz9s8fhwsfMR5VPdZ63PTE6snREe+Rq0/nPR1+lvls4nnRLwq/bHth9OKHX11/vTQaPTr8Uvpy8lXpa9XXu9/MetM1FjL2YDxjfOJt8TvVd3ve89/3fIj68Hhi8UfSx+pPxp86Pwd8HpjMmJzMFEgFX6IADmtoUhLAq90AjBgA1lUsX82bzm6/5xzkb4nnP/B0vvsiW4DGfoDwAoDAywBbawAMMH9mHEAIE6s7Ampt/Wf7XdlJ1lbTXnQXLJrcn5x8bQRAKgf4VD45OdE4OfmpEZvsPYCTS6cz45TksWxZr29hYxV4p8Nn1b9mtd8AODbD6AWmE24AAACKZVhJZk1NACoAAAAIAAQBGgAFAAAAAQAAAD4BGwAFAAAAAQAAAEYBKAADAAAAAQACAACHaQAEAAAAAQAAAE4AAAAAAAAAkAAAAAEAAACQAAAAAQADkoYABwAAABIAAAB4oAIABAAAAAEAAAfEoAMABAAAAAEAAAG6AAAAAEFTQ0lJAAAAU2NyZWVuc2hvdJuU2tMAAAAJcEhZcwAAFiUAABYlAUlSJPAAAAHXaVRYdFhNTDpjb20uYWRvYmUueG1wAAAAAAA8eDp4bXBtZXRhIHhtbG5zOng9ImFkb2JlOm5zOm1ldGEvIiB4OnhtcHRrPSJYTVAgQ29yZSA1LjQuMCI+CiAgIDxyZGY6UkRGIHhtbG5zOnJkZj0iaHR0cDovL3d3dy53My5vcmcvMTk5OS8wMi8yMi1yZGYtc3ludGF4LW5zIyI+CiAgICAgIDxyZGY6RGVzY3JpcHRpb24gcmRmOmFib3V0PSIiCiAgICAgICAgICAgIHhtbG5zOmV4aWY9Imh0dHA6Ly9ucy5hZG9iZS5jb20vZXhpZi8xLjAvIj4KICAgICAgICAgPGV4aWY6UGl4ZWxYRGltZW5zaW9uPjE5ODg8L2V4aWY6UGl4ZWxYRGltZW5zaW9uPgogICAgICAgICA8ZXhpZjpVc2VyQ29tbWVudD5TY3JlZW5zaG90PC9leGlmOlVzZXJDb21tZW50PgogICAgICAgICA8ZXhpZjpQaXhlbFlEaW1lbnNpb24+NDQyPC9leGlmOlBpeGVsWURpbWVuc2lvbj4KICAgICAgPC9yZGY6RGVzY3JpcHRpb24+CiAgIDwvcmRmOlJERj4KPC94OnhtcG1ldGE+Ck+8gagAAAAcaURPVAAAAAIAAAAAAAAA3QAAACgAAADdAAAA3QAA0GyIOdaMAABAAElEQVR4AeydB7jWRNbHB5EmiKICKlZQBMVe1rWsva6KLvay9gKKFaW4KmIF7AUbKljB3rufbdfee0VQsYEggkiT98vJ9YR5c1Nmkkn/53nuTZvMOfM7c87Mm0kmTZ55+qmawAICIAACIAACIAACIAACIAACIAACIAACIAACIAACIAACIAACIAACIAACIAACJSPQBAPiJbMoigMCIAACIAACIAACIAACIAACIAACIAACIAACIAACIAACIAACIAACIAACIGATaHLPk6/jDXFUBhAAARAoEIE9d9jI1taK3wXSGqqCQDYE4C/ZcIdUEACBxgQQjxozqeIR1IMqWh1lBgEQqBIBxPkqWRtlBYF0CCCupMMZUspBAP5SDjuaKgXXh1qtYRgcA+KmyCIfEAABEEiJAAdyDIinBBxiCk0A/lJo80F5ECgVAcSjUpkzcmFQDyKjw4UgAAIgUAgCiPOFMBOUBIFCEUBcKZS5oGzGBOAvGRsgZ+K5PmBAPGeGgTogAAIgoEqAAzkGxFWJIV2VCcBfqmx9lB0E8kUA8Shf9shKG9SDrMhDLgiAAAikQwBxPh3OkAICVSKAuFIla6OscQnAX+ISLNf1XB8wIF4uu6I0IAACFSLAgRwD4hUyOooamQD8JTI6XAgCIGCYAOKRYaAFzQ71oKCGg9ogAAIgoEgAcV4RFJKBAAgoE0BcUUaFhCAg4C+oBDIBrg8YEJepYBsEQAAECkSAAzkGxAtkNKiaGQH4S2boIRgEQMBFAPHIBaSiu6gHFTU8ig0CIFAZAojzlTE1CgoCqRFAXEkNNQSVgAD8pQRGNFgErg8YEDcIFVmBAAiAQJoEOJBjQDxN6pBVVALwl6JaDnqDQPkIIB6Vz6ZRSoR6EIUargEBEACB4hBAnC+OraApCBSFAOJKUSwFPfNAAP6SByvkRweuDxgQz49NoAkIgAAIaBHgQI4BcS1sSFxRAvCXihoexQaBHBJAPMqhUTJQCfUgA+gQCQIgAAIpEkCcTxE2RIFARQggrlTE0CimEQLwFyMYS5MJ1wcMiJfGpCgICIBA1QhwIMeAeNUsj/JGIQB/iUIN14AACCRBAPEoCarFyxP1oHg2g8YgAAIgoEMAcV6HFtKCAAioEEBcUaGENCDQQAD+gpogE+D6gAFxmQq2QQAEQKBABDiQY0C8QEaDqpkRgL9khh6CQQAEXAQQj1xAKrqLelBRw6PYIAAClSGAOF8ZU6OgIJAaAcSV1FBDUAkIwF9KYESDReD6gAFxg1CRFQiAAAikSYADOQbE06QOWUUlAH8pquWgNwiUjwDiUflsGqVEqAdRqOEaEAABECgOAcT54tgKmoJAUQggrhTFUtAzDwTgL3mwQn504PqAAfH82ASagAAIgIAWAQ7kGBDXwobEFSUAf6mo4VFsEMghAcSjHBolA5VQDzKADpEgAAIgkCIBxPkUYUMUCFSEAOJKRQyNYhohAH8xgrE0mXB9wIB4aUyKgoAACFSNAAdyDIhXzfIobxQC8Jco1HANCIBAEgQQj5KgWrw8UQ+KZzNoDAIgAAI6BBDndWghLQiAgAoBxBUVSkgDAg0E4C+oCTIBrg8YEJepYBsEQAAECkSAAzkGxAtkNKiaGQH4S2boIRgEQMBFAPHIBaSiu6gHFTU8ig0CIFAZAojzlTE1CgoCqRFAXEkNNQSVgAD8pQRGNFgErg8YEDcIFVmBAAiAQJoEOJBjQDxN6pBVVALwl6JaDnqDQPkIIB6Vz6ZRSoR6EIUargEBEACB4hBAnC+OraApCBSFAOJKUSwFPfNAAP6SByvkRweuDxgQz49NoAkIgAAIaBHgQI4BcS1sSFxRAvCXihoexQaBHBJAPMqhUTJQCfUgA+gQCQIgAAIpEkCcTxE2RIFARQggrlTE0CimEQLwFyMYS5MJ1wcMiJfGpCgICIBA1QhwIMeAeNUsj/JGIQB/iUIN14AACCRBAPEoCarFyxP1oHg2g8YgAAIgoEMAcV6HFtKCAAioEEBcUaGENCDQQAD+gpogE+D6gAFxmQq2QQAEQKBABDiQY0C8QEaDqpkRgL9khh6CQQAEXAQQj1xAKrqLelBRw6PYIAAClSGAOF8ZU6OgIJAaAcSV1FBDUAkIwF9KYESDReD6gAFxg1CRFQiAAAikSYADOQbE06QOWUUlAH8pquWgNwiUjwDiUflsGqVEqAdRqOEaEAABECgOAcT54tgKmoJAUQggrhTFUtAzDwTgL3mwQn504PqAAfH82ASagAAIgIAWAQ7kGBDXwobEFSUAf6mo4VFsEMghAcSjHBolA5VQDzKADpEgAAIgkCIBxPkUYUMUCFSEAOJKRQyNYhohAH8xgrE0mXB9wIB4aUyKgoAACFSNAAdyDIhXzfIobxQC8Jco1HANCIBAEgQQj5KgWrw8UQ+KZzNoDAIgAAI6BBDndWghLQiAgAoBxBUVSkgDAg0E4C+oCTIBrg8YEJepYBsEQAAECkSAAzkGxAtkNKiaGQH4S2boIRgEQMBFAPHIBaSiu6gHFTU8ig0CIFAZAojzlTE1CgoCqRFAXEkNNQSVgAD8pQRGNFgErg8YEDcIFVmBAAiAQJoEOJBjQDxN6pBVVALwl6JaDnqDQPkIIB6Vz6ZRSoR6EIUargEBEACB4hBAnC+OraApCBSFAOJKUSwFPfNAAP6SByvkRweuDxgQz49NoAkIgAAIaBHgQI4BcS1sSFxRAvCXihoexQaBHBJAPMqhUTJQCfUgA+gQCQIgAAIpEkCcTxE2RIFARQggrlTE0CimEQLwFyMYS5MJ1wcMiJfGpCgICIBA1QhwIMeAeNUsj/JGIQB/iUIN14AACCRBAPEoCarFyxP1oHg2g8YgAAIgoEMAcV6HFtKCAAioEEBcUaGENCDQQAD+gpogE+D6gAFxmQq2QQAEQKBABDiQY0C8QEaDqpkRgL9khh6CQQAEXAQQj1xAKrqLelBRw6PYIAAClSGAOF8ZU6OgIJAaAcSV1FBDUAkIwF9KYESDReD6gAFxg1CRFQiAAAikSYADOQbE06QOWUUlAH8pquWgNwiUjwDiUflsGqVEqAdRqOEaEAABECgOAcT54tgKmoJAUQggrhTFUtAzDwTgL3mwQn504PqAAfH82ASagAAIgIAWAQ7kGBDXwobEFSUAf6mo4VFsEMghAcSjHBolA5VQDzKADpEgAAIgkCIBxPkUYUMUCFSEAOJKRQyNYhohAH8xgrE0mXB9wIB4aUyKgoAACFSNAAdyDIhXzfIobxQC8Jco1HANCIBAEgQQj5KgWrw8UQ+KZzNoDAIgAAI6BBDndWghLQiAgAoBxBUVSkgDAg0E4C+oCTIBrg8YEJepYBsEQAAECkSAAzkGxAtkNKiaGQH4S2boIRgEQMBFAPHIBaSiu6gHFTU8ig0CIFAZAojzlTE1CgoCqRFAXEkNNQSVgAD8pQRGNFgErg8YEDcIFVmBAAiAQJoEOJBjQDxN6pBVVALwl6JaDnqDQPkIIB6Vz6ZRSoR6EIUargEBEACB4hBAnC+OraApCBSFAOJKUSwFPfNAAP6SByvkRweuDxgQz49NoAkIgAAIaBHgQI4BcS1sSFxRAvCXihoexQaBHBJAPMqhUTJQCfUgA+gQCQIgAAIpEkCcTxE2RIFARQggrlTE0CimEQLwFyMYS5MJ1wcMiJfGpCgICIBA1QhwIMeAeNUsj/JGIQB/iUIN14AACCRBAPEoCarFyxP1oHg2g8YgAAIgoEMAcV6HFtKCAAioEEBcUaGENCDQQAD+gpogE+D6gAFxmQq2QQAEQKBABDiQY0C8QEaDqpkRgL9khh6CQQAEXAQQj1xAKrqLelBRw6PYIAAClSGAOF8ZU6OgIJAaAcSV1FBDUAkIwF9KYESDReD6gAFxg1CRFQiAAAikSYADOQbE06QOWUUlAH8pquWgNwiUjwDiUflsGqVEqAdRqOEaEAABECgOAcT54tgKmoJAUQggrhTFUtAzDwTgL3mwQn504PqAAfH82ASagAAIgIAWAQ7kGBDXwobEFSUAf6mo4VFsEMghAcSjHBolA5VQDzKADpEgAAIgkCIBxPkUYUMUCFSEAOJKRQyNYhohAH8xgrE0mXB9wIB4aUyKgoAACFSNAAdyDIhXzfIobxQC8Jco1HANCIBAEgQQj5KgWrw8UQ+KZzNoDAIgAAI6BBDndWghLQiAgAoBxBUVSkgDAg0E4C+oCTIBrg8YEJepYBsEQAAECkSAAzkGxAtkNKiaGQH4S2boIRgEQMBFAPHIBaSiu6gHFTU8ig0CIFAZAojzlTE1CgoCqRFAXEkNNQSVgAD8pQRGNFgErg8YEDcIFVmBAAiAQJoEOJBjQDxN6pBVVALwl6JaDnqDQPkIIB6Vz6ZRSoR6EIUargEBEACB4hBAnC+OraApCBSFAOJKUSwFPfNAAP6SByvkRweuDxgQz49NoAkIgAAIaBHgQI4BcS1sSFxRAvCXihoexQaBHBJAPMqhUTJQCfUgA+gQCQIgAAIpEkCcTxE2RIFARQggrlTE0CimEQLwFyMYS5MJ1wcMiJfGpCgICIBA1QhwIMeAeNUsj/JGIQB/iUIN14AACCRBAPEoCarFyxP1oHg2g8YgAAIgoEMAcV6HFtKCAAioEEBcUaGENCDQQAD+gpogE+D6gAFxmQq2QQAEQKBABDiQY0C8QEaDqpkRgL9khh6CQQAEXAQQj1xAKrqLelBRw6PYIAAClSGAOF8ZU6OgIJAaAcSV1FBDUAkIwF9KYESDReD6gAFxg1CRFQiAAAikSYADOQbE06QOWUUlAH8pquWgNwiUjwDiUflsGqVEqAdRqOEaEAABECgOAcT54tgKmoJAUQggrhTFUtAzDwTgL3mwQn504PqAAfH82ASagAAIgIAWAQ7kGBDXwobEFSUAf6mo4VFsEMghAcSjHBolA5VQDzKADpEgAAIgkCIBxPkUYUMUCFSEAOJKRQyNYhohAH8xgrE0mXB9wIB4aUyKgoAACFSNAAdyDIhXzfIobxQC8Jco1HANCIBAEgQQj5KgWrw8UQ+KZzNoDAIgAAI6BBDndWghLQiAgAoBxBUVSkgDAg0E4C+oCTIBrg8YEJepYBsEQAAECkSAAzkGxAtkNKiaGQH4S2boIRgEQMBFAPHIBaSiu6gHFTU8ig0CIFAZAojzlTE1CgoCqRFAXEkNNQSVgAD8pQRGNFgErg8YEDcIFVmBAAiAQJoEOJBjQDxN6pBVVALwl6JaDnqDQPkIIB6Vz6ZRSoR6EIUargEBEACB4hBAnC+OraApCBSFAOJKUSwFPfNAAP6SByvkRweuDxgQz49NoAkIgAAIaBHgQI4BcS1sSFxRAvCXihoexQaBHBJAPMqhUTJQCfUgA+gQCQIgAAIpEkCcTxE2RIFARQggrlTE0CimEQLwFyMYS5MJ1wcMiJfGpCgICIBA1QhwIMeAeNUsj/JGIQB/iUIN14AACCRBAPEoCarFyxP1oHg2g8YgAAIgoEMAcV6HFtKCAAioEEBcUaGENCDQQAD+gpogE+D6gAFxmQq2QQAEQKBABDiQY0C8QEaDqpkRgL9khh6CQQAEXAQQj1xAKrqLelBRw6PYIAAClSGAOF8ZU6OgIJAaAcSV1FBDUAkIwF9KYESDReD6gAFxg1CRFQiAAAikSYADOQbE06QOWUUlAH8pquWgNwiUjwDiUflsGqVEqAdRqOEaEAABECgOAcT54tgKmoJAUQggrhTFUtAzDwTgL3mwQn504PqAAfH82ASagAAIgIAWAQ7kGBDXwobEFSUAf6mo4VFsEMghAcSjHBolA5VQDzKADpEgAAIgkCIBxPkUYUMUCFSEAOJKRQyNYhohAH8xgrE0mXB9wIB4aUyKgoAACFSNAAdyDIhXzfIobxQC8Jco1HANCIBAEgQQj5KgWrw8UQ+KZzNoDAIgAAI6BBDndWghLQiAgAoBxBUVSkgDAg0E4C+oCTIBrg8YEJepYBsEQAAECkSAAzkGxAtkNKiaGQH4S2boIRgEQMBFAPHIBaSiu6gHFTU8ig0CIFAZAojzlTE1CgoCqRFAXEkNNQSVgAD8pQRGNFgErg8YEDcIFVmBAAiAQJoEOJBjQDxN6pBVVALwl6JaDnqDQPkIIB6Vz6ZRSoR6EIUargEBEACB4hBAnC+OraApCBSFAOJKUSwFPfNAAP6SByvkRweuDxgQz49NoAkIgAAIaBHgQI4BcS1sSFxRAvCXihoexQaBHBJAPMqhUTJQCfUgA+gQCQIgAAIpEkCcTxE2RIFARQggrlTE0CimEQLwFyMYS5MJ1wcMiJfGpCgICIBA1QhwIMeAeNUsj/JGIQB/iUIN14AACCRBAPEoCarFyxP1oHg2g8YgAAIgoEMAcV6HFtKCAAioEEBcUaGENCDQQAD+gpogE+D6gAFxmQq2QQAEQKBABDiQY0C8QEaDqpkRgL9khh6CQQAEXAQQj1xAKrqLelBRw6PYIAAClSGAOF8ZU6OgIJAaAcSV1FBDUAkIwF9KYESDReD6gAFxg1CRFQiAAAikSYADOQbE06QOWUUlAH8pquWgNwiUjwDiUflsGqVEqAdRqOEaEAABECgOAcT54tgKmoJAUQggrhTFUtAzDwTgL3mwQn504PqAAfH82ASagAAIgIAWAQ7kGBDXwobEFSUAf6mo4VFsEMghAcSjHBolA5VQDzKADpEgAAIgkCIBxPkUYUMUCFSEAOJKRQyNYhohAH8xgrE0mXB9wIB4aUyKgoAACFSNAAdyDIhXzfIobxQC8Jco1HANCIBAEgQQj5KgWrw8UQ+KZzNoDAIgAAI6BBDndWghLQiAgAoBxBUVSkgDAg0E4C+oCTIBrg8YEJepYBsEQAAECkSAAzkGxAtkNKiaGQH4S2boIRgEQMBFAPHIBaSiu6gHFTU8ig0CIFAZAojzlTE1CgoCqRFAXEkNNQSVgAD8pQRGNFgErg8YEDcIFVmBAAiAQJoEOJBjQDxN6pBVVALwl6JaDnqDQPkIIB6Vz6ZRSoR6EIUargEBEACB4hBAnC+OraApCBSFAOJKUSwFPfNAAP6SByvkRweuDxgQz49NoAkIgAAIaBHgQI4BcS1sSFxRAvCXihrecLH//HOeaNp0YcO5IruqEUA8qprFvcuLeuDNBUdBoIoE0L8op9UR58tp16ilgp9HJYfrZAKIKzINbINAMAH4SzCfqp3l+oAB8apZHuUFARAoDQEO5EUbEH/hmcfEnaOvFfP//FOs97dNxTEnDIpkE1P5RBKOiwpHoKj+UjjQJVT4/bdfF/ffNVpM/Ga8mPLLJNGiRUvRedXu4rA+J4uVu6xWwhKjSEkTQDxKmnAx8kc9KIadoGW2BMrc3w/qX3zz9VdGfi9laz1IR5z3rgNl9mt3iYP8HL8j3LSwr0IAcUWFUv7S5CXu5UWPtCwEf0mLdDHkcH3QGhAfP+4L8du0qaJ1m0VF51W6iSZNmhSjtAFafvrRe+Lpx+4XM3+fITbY+B9imx13C0id31NlKUd+CUMzEMgfAQ7kRRsQv2PUNeK+O2+2gXZetZsYdtUtkeCG5VPWuFjWckWqBBoXFdVfNIqIpAkQeOie28QtN1zhmfMe+xwsDjjsWM9zOAgCQQQQj4Lo6J8raruIeqBv6zxcMf23X8X9Y28RE77+UqzUeVXxr/0OFa1bt8mDaqXUIay/b6rQaceRsP5Fk4UWMvJ7yRQf5BONAOK8N7e0/NpbenpHw/wcvyPSs0WZJCGuFNOaYXEvrX5ImB7FpOuvtaq/pMXfX1OcSYMA1wflAfFvxn8lTj56P0e3IRddK1Zfcz1nv6gbQwYeJ+iJPVqaNWsuRt/3rGjevEXhilOWchQOPBQGgQwJcCDHgLiw3tZsPLBe1rhY1nIl7UpF9ZekuSB/fwLTf5smeh+0m5g16w8nUbsllhJz584VM6ZPE732O0zsd8gxzjlsgIAqAcQjVVJq6YraLqIeqNk3b6n+78mHxYhLznHUOmnQeWLTLbZz9rFhlkBaN27TjCMq/YuaqGFA3GxVyiQ3xHlv7Gn5tbf0dI6q+Dl+R6Rji7JJQVwppkXD4l5a/ZAwPYpJ119rVX9Ji7+/pjiTBgGuD8oD4uO/+lz063Ogo9vgoSNEj3U2cPbztPHhu2+KcV9+KhZeuJnYaJMtxVIdOvqqd9JR+4pvJ4xzzt/24AuiZctWzj5t6ORXd2HMHR25KuWIqQ4uBwEQyBkBDuQYEPceEC9SXES8T965iuovyZOBBD8Cj9x3pxh13aXO6VP+c4H4++bbCOo8f/7JB2KJJduL9h2Xcc5jAwRUCSAehZOqQruIehBeD/KY4r4xo8QdN49wVDu235liq+12cfaxYZZAWjdu0/zdoNK/ePrxBzAgbrYqZZKbTpzXafdMFiYLuWn5tUlOunmp+Dl+R+hSRXoioBNXQCw/BMLiXlr9kDA98kPMjCaq/pIWfzOlKmYuWfQ33KS4PpRyQPzEI/cR333ztV3m/Q4+RvTa/zB3+Z39MaOvE/eNuVnMnz9frLH2+uLsYdc453hDJz++xsRaR65KOUzohDxAAATyQ4ADOQbEvQfEixQXEe+T96ui+kvyZCDBj8DIq4eLJx662z69ojUt7sXX3O6XFMdBQIsA4lE4riq0i6gH4fUgjym+/OxjMbh/HzHrj5mizaJtxfmX3SiWXW7FPKpaCp3SunGb5u8Glf5FWuUuRSXJcSF04rxOu2eyyFnIrUL9VvFzk3ZEXtUhoBNXqkMl/yUNi3tp9UPC9Mg/ST0NVf0lLf562pcrdRb9DTdBrg+VHxAnML9b3w+fM3uWoGkwvZasDKYrN6wcXmXDMRAAgeIS4ECOAXHvAXGybFHiIuJ98n5YVH9Jngwk+BEYevap4o2XX7BPb7bVDuLEAQumyPW7BsdBQIUA4lE4pSq0i6gH4fUgryn+/HOemDzpJ9G+wzJiIetbz1iSI5Dmjdu0fjeo9C/SLHdy1kPOOnFet90zRTcLuVWo3yp+bsqGyKdaBHTiSrXI5Lu0KnEvjX6Iih75JqmnnY6/pMFfT/typc6iv+EmyPUBA+JuMh77WRksK7keCHAIBEAghwQ4kGNA3H9APIdm81QJ8d4Ti9GDRfUXoxCQmRaBM045Snzy4bv2NTvs0ksc2be/1vVIDAJ+BBCP/MgsOF6FdhH1YIG9sQUCfgTKeONWpX9RxnL72bjMx3XifFbtXhZyq1C/Vfy8zHUfZUuOgE5cSU4L5KxLIC9xLy966PKLmh7+EpWc+euy6G+4S8H1wfiA+GzrTWv7m9w1IZZfqbNo0aKlLZueoqbpxb749CP7TewuXbuLpZddzq1Xo/158+bZ059//90EMemnH0XLVq2sKclWEF27r+nkTRfNmTNbTP1lsn39Waf1FpN//tHe3qnn3mKXPfazt+lf8+YtRLslF7wJPnfOHFvfP//809Knk1i07eJ22qj5zZr1h61vbX7N1rN1m0Ud2e6NqVMmi0mWnvSt8xVW6mKtFzZeDrdMef8X66n28eO+EMR2scWXsO3VafmVbEZyOnnbtH3lvLENAiCgR4ADediA+OxZDXG5yUJNrFizimjWrJkt6PcZ08UH775pxaEfxKKLLiZWW30tsUyn5X2ViBvfOGO/DtiM6b+J995+TUyZ/LNou1g70a3H2qLj0p34skZrv3w4oV985/Pu9R8zfxcTvv7KahO+EtT2LLlUB9Hd0oHbBXd6eX/ar1Osbwp/KKb8MsmaQvMPsWT7Drbuyy6/omjduo2c1NmO2s7olosE5iHeq7bnDiDDG8r+4tOPIXt9+uF7Vrv5uVi83ZJipS5d7bbbrSb5ybtvvip+/nGi1d9oL1bpunqgX7mvp/7SxG8niHFffCrIJ6h/QLLaLtbQP3Gn99qPUh85n7y18176UF1667WXxI/fTxQtW7a0YsU6YsWVV+Ei1K11eZJ/kR/TMmzIaWKC1U+iZbMttxf7HdLb3qZ/VAdaWLLdi648vj7tcgbJpXNR++2cb5x4yvLj+EHW8YY5+K2V45Gh9jur+sXlV7VHGu0iPfn/3YRxdpwleTTl9XLW759Wi7Rmde11y1aLWL+P2tUd452ofs7X81q5HqBdMnp/gfnHWVN8+v336aKtde9A5Z5GlH6YqX63rv97pSdWcdqFOP2SsP5+HDvK14b1r+Ny0e1fhJXbVP2QGdB21PgWl49bD97Puj/BekRdh8X5qO2elz46ccaE3CL4tVe9xO+IxrUHfl/PRLXfWn9VenthcYU18ar/dI78H/c19MenmGvUdVi7nnQ/hPUO04PS0WAhje3R54HoNxHdk3IvefcT1lfVX6LyT8qfTN3HZw60jtNuy/nQtmr/zER/wy07zj7XB+MD4mNuuU7cc/uNtm57HXiE2HP/w8XtN10tnnr0PtuRZKU7LL2s6D/4It+bmK//73kx+obLxU8/TJQvs7cXsW5a9LLy7rnXgfb+6OsvFw/fG/5tR5rS7Oa7nxY8UD321uvF3beNtPNYtVsPccHlN8XK7/orLrTLSpmsu+Em4vRzL7Pz8/rX59+7i59/+t4+dWjvk8U/d99XmC6HWy51dMbecr2tI91ody/EZ50N/i56n3h63YMDnM6kfTlPrEEABKIR4EAeNiAu+y3Fmm132l3cOepa8dQj99qdYVk6DbodeszJYvOtd5QP29tx4xtn6O6ADbnoOjsuPf7gWHsgmtPRevEllhSH9+kn/r75NvJhe9udz7CrbqlL4xff6xJZO79O/UVcd/kF4o1XXnSfEk2aNBF/23QrcfDRJ1rTYi5dd54a0Bf/7wnx2ANjxFeff1J3jnfoobB/7XuI2G3PA0Wz5s35sL2uUrzXac/rIBncieIv1I/ptd9h4uZrLhbPPfVII39Ze72/ieP7D7EHTag+PGbV4bGjrxMzrYcr5GWZTiuIgUMuDvzGKP1gpTrx3JMPi7lz58iX29uUx3H9zrQfXGl00joQtz5ynnK8iNuP4zzjrN36bG5NXX7+GSdbg+Hf1mV7w52P1X36JirPu28facejusw9diiOHnPiIOdMVHmcQdrl9JMbp99OeUaNp6xPXI6UTx7iDZfHbx0lHsVpv7OqX7r2SLJdnGkNhN9t/UalNpsehA5b6EHl0ff9X90D2Cbqpyw3Sj1AuxTv/oLMP+o2PVDer/cBzuXX3vqwWKpDR2efN+L+7jbV79b1f3f6qO2CqX5JWH+fecddh/1uiMtFt38RVm5T9YO5xY1vcfmwHrzOQ3+CdYmzDovzUds91ilqnIkqt2h+7a6X+B1h5vcS1z8336jtBeeXB78v6+8I9B+z7z+GtetJ90PYz8L0oIHuYdan495+/X98iTj3kpGi2xprOftF8BNWNqwd5nS6/JO+TyjH1zj3AUy128xJN05H7W+wPNNrrg/EhZYm1oBKw5aPpPFffS769WkYfKYkg4eOED3W2aBRatmxdtx1T/HDxG/tN/4aJfzrAA0WnHnhVY1u8L747OPiimFn+V1mH6fB27GPvWIPWFxz6Xni2SceDEzPJ6+/41GxhPXWFi2yvp1X7SZ4QCVqfvJ1a623kTjzgqtYbKP10QfuYr2197N9/N9HHm8PmMjXN7rAdUClHPIlP1lvq112wRnWW/ofyoc9t9tYb4see8oZYsO//6PuvMwrjn3rMsUOCIBAJAIcyMMGxGW/pRkz6C1seyaPAKmHH3uq2Gm3vepSyPEpSnzjzGR92i2xlD1DBb1167fQoPRRxw8Q2+28R10SOR85fnOisPOU7p03XhaXDz3LehN3Gl/muaZZNK66+d66N8iuv3Ko/VCB5wWugzSgf8p/Lqg7KvOsO+GxU+R4r9ueexTfyKEo/rK9NU32xG++Fh+9/7avDvS07PnWw3RXDh8sXvvvc77p6C3E86wfEp1WWKlRmm/GfyUuPf/0UL9caKGm4uCjThD/3GPfRnnErY+coew3eWjnZX223G4X6+37V+xBV9aX17KPxOF5yw1XiIfuuY2z9V1v8o9txcmnn2+fjyOPBaRdTi+5ce0dJ56SPiY45iXeMF+/dZR4FKf9zqp+6dojqXaRnrA/9biDxPfWW72qC/U9Rt/7rFjkr1leTNRPt+wo9QDtUvT7C27+Ufe/+uIT0f+4g53Lrx59f6MZjUz87pb9wVS/W6UdleNFnHYhiX6JV3/fMUTMDbncXnLk81G46PYvZHle+piqH4TNRHyT9Y3CRzZfHvoTsj5xtsPivGzHMDlyX5fSxokzUeUW2a9V4h9xjeMPun4eVx5dT4vsf2mUs0Fqvdwy+L1uv5U5pL0Oiyusj1wv0H/Mvv8o28OrXdc5H8ffguTQICGNxb1kvfjDy0qdu4rzLhvpPCRcFD9h/aP4S5h90vAn2U5x7gOYareJZ5T+WdT+BtvP9JrrQ6ID4rLSdFOhx9obiPYdlxbvvtUwJS6fd//Ao9fuj9z/n84b5TQNWc+9DhIdl+kkfp3yi/2UyisvPWs/3X/X468KGhinG6RPPHyPneW7b70q5s2da2/TNcuv2JlFWVPfLib6nHyGPYhOB+UKJlf4qPnJhnaXy1Hirw2vAfGocv3KwTLpCZ8Tj9zbeqPqOz4klmrfUayx9vpiWeuts+8nfiM++eBd5411StS8RQtx9c33170pLstxMrI2dOwrX4dtEACB6AQ4kOsMiMvS6IGkTbbY1v5MwgfvvmF9PuEb+bS46JrbxUqdV3WOxY1vnJFfHKGpeDbdYjvR1Hor631r0F6OV3TtJdfdWTdVj5yPHL+95Hidp7fFjju0l/ht2lS+RNDnPLqvsY5YqGlT663vj+sGQoddfavovMpqTtp+vQ+0p8+mAzRFOr1J3mm5Fe1r6Yf004/d77RFlObs4deKNdZajzbtpQrxPkp7znxMr+P6C70tuO5Gm4pm1mdOXn/lhTrb0qwz9AkCXmjGmeWsgW+aOp0+j8LL1jvsavdBeJ/W9GbHiUfuaz1AuMD/aLCV+hA0EEMPJD56/xhBb+7QQu3txdfeUecLdDxufaQ8aJH9quFIw/+s2nk/fSh+rWz5I3325bdpvwp+Qzwuz48/eNuacegO+437D997y+mLLmF9QkH2/62238X2+bjymHHa5QyTq2vvuPHUBMc8xRvm67eOG4902+8s6lcUeyTVLt5gPcD2pDUrDi/U99l4s61FU6utf+OVl8TzTz/Cp+ybPX+3YjDNmEMPLNNion46AqSNuPUA7ZL6/QUJe+zNsAFxU7+7k+53+7WjfvFCt11Iol/i1Z+PbdC/MpDL7SVHPi/LVOWi27+Q5XnpY6p+mIpvsr5R+PA1eehPsC4m1mFxPmq7FzfORJVbZL+W7ekX/+L6g66fx5XHZfLzv6TKGSZXNS5yPnnw+yj9VtY/7XVYXGF9/OoF+o/Z9B9le3i16zrn2ca01vW3IDmjrr1UPHL/nU729PLH4GHXOJ/vK5KfcCGi+EuYfThvWiflT7KdZHm69wFMtdtR43TU/oZcZpPbXB9SGRCn79LSm3H8Vvb0334VQwb2FV9/+ZlTpstvuMt5a4puQA62vgNOC1Wsq0fdbw021E9DRtOo0zfJN91yOycP3tD5SLtcwbwqPOWpk5+pHya6csPKQQ8LjLxqGCMS6/9tM3HiwHNFK2sAipe51kMEV1pPAr384jN8yH4j8+gTBjr7shw+qGtfvg5rEACBeAQ4kEcZEKeB2ZMGnWd/B5e1kKfeo2P0Rrbs/6bim1ccWXPdDcVJA89zOlokf8Ql54j/s6aP5mUH623dI/v25926gTuv+C3L8Tp/68grxYN33+rkR1Pe7HfIMc4+bXxuzahx1UVn22+VjRj9gKBPffBy2YVnWN8gHW9PiU6D4fRwlrxQGzXwhEPtgTU6Tm/10nT0XotOOxNWrjzF+7jtuRerqMfi+AtNjX7iwHOc78m//87r4txBJ4j58+un3aUp/gedc5kzcEqD4WeccrQzvXezZs3FjWOfcN44pLI8/tDd4sarhzvF6nvqYLHFtjs7+7RB3yo945SjnIc3NtxkC9H/rAXXUBpT9VGuX5QvLVm281760ED4AOuTO9Q3nD9/vvhl8s/OJw1M8aRy/+fkI8WnH71Hm2Knnnvbn2+wd6R/puRlVU4vuVHsHTeemuCYp3gjVRHPzTjxKEr77WXnpP0orj1MtYt0s/nAnls6n6LwaovvueNGMcb63AUt9HDetbc+ZH9bnI1non5yXvI6Tj1Au6R3f0HmHnc7bEDcVD8syX53kP97xYso7UIS/RKv/nxce/L1crm95Mjn+ZooXOhalf6FLM9LH1P1w1R8k/WNwycP/QnW38RaNc6TLJ12z1Sc0ZVbZL9mewbFP1P+QLJU/NyUPC//S6OcXnKjxMU8+H3cfivXrzTWqnHFyz7oP2bXf5Tt4dWu65znehbF3/zk3D92tP3JY87bPRhOx4vkJ1yOKP4SZh/OO0l/ku3E8qLcBzDVbseN01QGnX4Ol9n0mutD4gPi3XusIwZZ39GWB16pMPQW97mDGp66p/1+Zwy1ntTfijbtARAaCKGllfWtcJquzj3QYJ/0+acDWK5gXhWeROjkZ+qHia7coHLQNIF9Dt5dTPt1ik2s0/IriUuvH+PJlG4s0wAOfw+Xpme97raHnbfEZTmUWRT72krgHwiAQGwCHMh1B8TX3eDvYoD1PeOmTReu04FuGtPTYzydesuWrcRIa/CO1rSYim/uOLKe9dZtf2twi97Ukhd68v2UY/a3B53pON2kvnHME6JFy5Z2Mjkfr/gddP536+3ww/fZwXnLlzoyZ1xwpSze2aaHhb7+6jPR1XrrV3e54MyTxVuv/de+jD5BQeX0WnTamaBy5S3e0wMNcdpzL1ZRj0X1F5pJZdA5lzpTRLH8YWefJl5/+Xnetaf+H2LNAuCeEp0+50K+w8vwEbeKlbs0zDQwd84cQbPF0BvOtGy+9Y7iBOub5F7LI/fdKUZdd6lz6hbr27Y8la9zMGRDpT7K9Yuyy7qdd+tDs9sMvWq0zdtdXNM8w25kmZSXVTndcqPYO248NcUxT/HGXTfd+1HjUdT2223nNPworj1MtYs0Y8vJR+/nmGDUPc/UDXbTiTlzZluD5lvYD9jQPr0J0cOK/bSYqp92Zq5/UesB2iX9+wsu9LF2gwbETfbDkup3B/k/gXHHiyjtgipg3X6JV39fVVZYOrncXnLk85RXHC5h/QvKX5bnpY+J+mEyvsn6RuWTl/4E6W9qUY3zJE+13TMZZ3TkqjLJq1+T/kHxz6Q/kKwwPzcpz+1/aZXTLTdKXMyL38ftt5LN01pU44rbPug/Ztt/lO3h1a7rnKe6FsXf6DovOXL9pzReg+F0XE4XZbyO8kh7ieIvYfahMiTpT5S/bCfaj3ofgK4NW8La7bhxmuWr9nM4fRJrrg+JDohTI3zZyLucwRS5ICR4/103d57Wl79X+8mH79pvQnH6/Q4+RvTa/zDeDV3rAJYrmFeFJ2E6+Zn4YcIF1JEbVI7PPn5fnH7SEZytOObEQWLbnXZ39t0bzzz+gLj2sobvYtI5+sb7WutuZCeT5US1r1se9kEABKIR4ECuMyBOU3tfPvJuz7hMWshvSdH+RSNuEyt16UqbiQyIkz5XjLzHGeS2BUn/7rr1BnHXbTc4R+Rp3OV45BW/g87T29sDjj/EyXfA2ReLDTbe3Nk3tTH6+sut6Zdvt7Ojp7SHW9Ouey1ljfdx23MvVlGPRfGXoHbO3VZeeOUosUrX1Rup98ukn6xB712d4wOHXGLP0kIH3AM1NNDbZdXuTlp5Y9LPP4reB+3mHHJP4e+cCNhQqY+y3wSVP6gfF6CC9ilZH7p48NARosc6G3jmY5pn2I0sk/KyKqcsN6q948ZTUxzzFG88K6h0MEo8itN+y3YmNdLwo7j2MNUuvv6/58WwIafZ9Nss2lbQgLjXsv9um4s5s2fbp2jGGp6FzFT99JIZpR4E+SnaJf/7C178ox4LGhA3+bvb1H0FHf8nJnL6oPpmoh+g2y/x6u9HtaP7OrncXnLk83G5hPUv3Hbw0sdE/TAZ30zwyUt/wl034uyrxnmSodrumYwzOnJVOeTVr0n/NPo/zCnMz5PyvzTLWSa/j9tvZbunsVaNK6r2Qf8xnf6jbA+vdl3nfJx+iFvO3gceKehlD5790G8wnOp2kfyEfTGKv4TZJ4i/CX8i3WU7xbkPwByC1mHtdtz+GctW7edw+iTWXB8SHRD3qkByYXr/u6eY9NMP9qE99z9c7Hvw0fb2H3/MtG769hQzpk9zktO0AHvse4igt/jo+whBiw5guYL56auTn4kfJlw2HblB5XjhmcfElcMHc7bi5rufcqZ9dQ5KG/Qm+eH77OgcoSmTaepkWoLkOBf8teFnX3c67IMACEQjwIFcZ0DcL86xBjRF+KATFjyARG/G0hvctJiKbzpx5PNPPhCDTjyc1bPf1GV9wvIJOv/S/z0hLh96ppPv7Q++6Dso7yRS3Jj+2zRBnwaxnvsSjz0wxvlu6Yorr2J/+9krm7LG+7jtuRerqMdM+8s7b7wszvvPiY46N4590npruZ2zzxs008G+/9yEd4U8Jbo8UEMJaBCmWbNmTlp5g2ZwuejcAc6hfv+5UGy8+dbOvt+Gbn0M8hu3jDTaeVmfla2Hc4ZbD+n4LaZ5ht3IMikvq3LKcsPaBz97x42npjjmKd741VE+bjoeUb5B7bds57T8KK49TLWL7h/wo63ZNVq3bsOmsNfTfp1qzxrDB4dddYsgf6DFVP3kvOW16XqAdkkIvzglc4+7HTQgbvJ3dxL97jD/JzZyvIjaLgQxTrJfEiQ37FxYucPOy/mH1cOw/gXlFSbPRP0wGd/C9FXhk5f+hKxr3G3VOE9yVNs9k3FGR24QiyL4dVj8M+kPxCrMz03Kk/0vzXLKcqO2F3nx+7j91iD/MH1ONa6o2gf9x3T6j2H2iHtermdB/RBZDl3TvHkLe7Ys2g4aDKfzRfIT0pcWU/4icwuKdyb8ifRWlUdpg+4D0HmvRafdjhunWb5qP4fTJ7Hm+pDpgPipxx7kfEf8X9Zg9/6H9nHK+tr/nhMXnzvQmbqOT3TouKzYefd9xDY79Ww0DTun0QGsUsF08jPxw8R0Ocbccp245/Yb7Wybt2gh7njoJRbhuaZKsd8umwq6iU9Lz70OEgcd0dfeVuFlJ7T+BdmX02ANAiAQnQAHcpMD4u63UOUHYkzFN504Qg9NUWeOF1mfsHyCzt9920gx9tbr7Wxp2mmafjrq8vEH7wiaFvuj998Wv1rfjObY6c5vxc6riouvaXhb3H1Op50JKlce432c9tzNKc6+aX9xPx17011PibaLLe6p4r7UplpT79MiD4jTN+zpWzxRFtkX5Ovj1seg+iXLoe002nkdfUzzDLuRZVJeVuXUketn77jx1CTHvMQbt6+4903HI8o/qP3WsXNe7GGqXfxj5u/i4F7bOm89bL9LL3FU3/6OSehho2suPVc899Qj9jH6TNdtD75g3xyiAyZ5OEL/2jBdD9AupdMuBQ2Im+yHZdHvpqqpEy/82gW5rqfZL5Hl6m6HlTvsvCwvjEtY/4LyCpNnon6YjG9h+qrwyVN/QtY3zrZqnCcZqu2eyTijI1fmUBa/lstk0h8o3zA/NylPx/+ykusXF/Pk91X9HYH+Yzr9xzA/jXtejmd+/kZpZDnyNbS9xz4HiwMOO9Z9uG6/KH7CSqu2wzIXrwHvsPMsz4Q/UV6q8iht0H0AOk9LnHY7bpxu0EC9n8Ppk1hzfch0QLz/cQcL+kFJi3tAnI5RJbrmsvPE999OoN26haYnON76zubqa65bd5x2VDuSlFalgunkZ+KHCelFi47coHLQ91vpOw+00DQL193WcMPHPuDzj6azp+/p0bJrrwPEwUedYG8HybETSP/C7CslxSYIgEAEAhzITQ6I07eMD9t7e0eb3iedLrbZsWFA2lR804kj9Kb1oXt56xOWT9D5EZeca8XFh+xy0oNWI255wCmz6gY9HXm+9YYwtVUqSxpviOc13kdtz1W4qqYx7S8mOro3X3uJePT+MapFqEt34RXWFO2rLZii3VR9DPKbOgWsnTTaeR19TPKksobdyDIpL6ty6sj1s3fceGqSI9ktD/GG9AhaTMcjkhXUfuvYOS/2MPU7iNiMvHq4eOKhu2nTXmjmMfpMCg2Gv/nqS3Xt+Pb//Jc46vgFs3GY5sE60Np0PUC7lE67FDQgbrIflkW/m+qlTrzwaxconyz6JSQ36hJW7rDzstwgLpQurH9BacLkmagfJuNbmL5UJl78+OStP8H6xlmrxnmSodrumYwzOnIpbdn8msrEi0l/oDzD/NykPB3/y0puUfy+ir8j0H9Mp/8Y5qdxz3Mso7Wfv9E5WQ69HERTW860HiCmZaGFmorBw662xtrWs/f9/hXBT1h31XZY5lK0AfGg+wAm2u24/TO2hWo/h9Mnseb6kOsBcSo4KfjGKy+Kpx69T7z31qv2PgNptUhrcdE1t4mOS3fiQ/ZaB3BYhacMdfKTf5j0WHsDK5CMqNNN3jn6wF3EL5N+tg/9+8jjxW57Hiif1pIbVI7bbrxKPHDXLXbeKm+I//knTe+6qcP6wMOPE7vv/W/7+iA5dcpbO0EB2J0W+yAAAvoEOJCbHBD/YeI3ou9hezrK9DtjqNh4s63sfVPxTSeO/Pj9d+K4Q/+1QB9pmuiwfILO33LDFeKhexqmXm7ZahFx2wPPOzJUNihODhnYV3z03ltO8sWXWFJssvm2on3Hpa03hdtZncmFxMsvPmO3YZQojQHxPMf7KO25A9fAhml/MfHD8f6xo8XtN13tlO6ci68P/SwMJW63xFKi4zIL+j4m62OQ3ziK/rWRRjuvo48pnlzOsBtZJuVlVU4duX72jhtPTXJk22Udb1gPv7XpeERygtpvHTvnxR46v7/CykffxXv95ecJU+Cy/IqdBT1s1KJlSyddEjw4c9P1AO1SOr8/gwbETfbDsuh3U90M8yeuv7T2axey6pfIuuluh5U77Lwsz48LpwnrX1C6MHkm6ofJ+BamL5ed1n588tifkPWOsq0a5ylv1XbPZJzRkVtGv5ZtatIfKN8wPzcpT8f/spJbJL+v2u8I9B/92yU5RsTdDvPTuOdl/fz8jdK45fTa71AxfMiC2bMWb7ek9Zm6W+17TnKe7u28+wnrq9oOu7nQJ7TkJew8pzXhT5SXqjxK63cfwFS7Hbd/RjrSotrPaUidzH+uD1R/aWliDag0bPnIG//V56JfnwUDtoOHjhA91tmgUWodgwU5aKOMrQPfffO1uOmai8X7b7/unN655z7isD6nOPu0oQNYRV+d/G64cuiC78UGTI9LeqY1IP70Y/eL6y6/gETaS9C0rpTg5x+/F30O3r0hsfVfHhBT4cUX6tqXr8MaBEBAjQAHcpMD4u+++Yo49/SGGSFIi6FXjRZdVu1uK2QqvunEEYr3QwYe5wC58ErrrdiuDW/FhuUTdP6Jh+8RI68a5uRLU6bbT0c6R4I33N9o2XqH3cTRJwwQTZsuXHfhvXfcJO4cfa19LI0p04sS71Xb8zqYMXdM+4uJji49MHHJeYOckt049gnrO+RLOPuqGybrY5DfuPVJo53X0ccUTy5n2I0sk/KyKqeOXD97x42nJjmy7eR1FvFGlu+1bToekYyg9lvHznmxh87vr6Dyyf2IRayHqdst2V5M/HZ8nVnowbjd9z7InhWrRYsFg+GUKEkepusB2qV0bmgGDYib7Idl0e+mOh/kT3ReXvzahaz6JbJuutth5Q47L8vz48JpwvoXlC5Mnon6YTK+henLZae1H5+89yfkMqhuq8Z5yk+13TMZZ3TkltGvZTua9AfKN8zPTcrT8b+s5BbV76vwOwL9R/92SY4RcbfD/DTueVk/P3+jNF5yRl9/uXj43gWfd6TZmM+yxv2aNm0qZ+u7nUc/YWVV22EvLpwHrcPOc1oT/qQjj9L63Qcw1W7H7Z8xG9V+DqdPYs31oVAD4gSCnm44/aQjxJeffWxzoSnvzh7eMNjAoGTA9L3xw3rXD5hzOlqrVGid/OR59elbojT47LX89ONEccrR+4tZs/6wT4e9IR6nHPKNIBJ2xHGniR13XfAGqFu/+8aMEnfcvODN9ouvvcN+s5HSqfDi/IICMKfBGgRAIDoBDuQ6A+L0Zukl190hFm3r/a1j+W0D0kx+gMZUfJPjyBLWjWmKMYu2XcwTxPXWQ0ZPPXKvc+7GsU9aA4bt7H05H90pbd5+42V7unPO+IQB54jNt9qBd0PX9HY5PSVHS7NmzcWt1hvmCy9cPxhO56IMiFcl3qu058TQ1BLFX7zqFetjoqM77otPxWnHNczAQvn2k2ZAYDkqa5P1McyvZH3SaOd19DHFk8sYdiPLpLysyqkj18/eceOpSY5sO/c67Xjjlu/ejxKP4rTfOnbOiz10fn8FlU8+t+/BR4te+x0maPYZ+i1Gy7KdVrBmdlnGd3aOJHlEqQdol7oJ9xsbsn/5xSk5TdztoAFxk7+7k+h3B9Uf5iL7TFh6P95Z9Uu4DFHWYeUOOy/L9OPCacL6F5QuTJ6J+mEyvoXpy2WntR+fIvQn5HKobKvGecpLtd0zGWd05JbRr2UbmvQHyjfMz03K0/G/rOQW2e/L8DsiqD3HfQ3/dkmOEXG3w/w07nlZPz9/ozRecqiOn9nvGPHZx+872dAsxjRWpbrkzU9Yb9V22IsL50HrsPOc1oQ/ueVFvQ9gqt2O2z9jNqr9HE6fxJrrQ+EGxAkGvdVHTyfQssba64uzh11jb/O/QSceLj7/5AN7t3uPdQRNQeq3qFRonfyeefwBce1l5zviBlu69bB0lJeffpgozjr1GDF50k/OYa8BcR25QeWY9usU6230XcW8uXNtefZ0gNZblu43IOgkfVvgeGu65KlTJttpl1thZXuwip8KCpJjXyD9CwrAUjJsggAIRCTAgVxnQJxE0dTdZ154tTOwzOKn/jJZnHDEXs73YyhWXHr9gu8bm4pvchyx9bFm0zjL0oceIpIXil0nHLG3mDH9N/uwWx85H68OftD5yT//JHr/ezfn0xBduna3p0lt0qSJrIK9TTfNH3/gLtFr/0OdBwluGnGxeOzBsfb5hZs1EzdZA/XuN8xnz54lLjzrFPHBO2/Y6YLeEK9qvA9rzxsZI8aBKP7iVa9YBRMd3T+sbzUdse9OguoKLSuvspoYfvWtLEJ5bbI+BvmNW6E02nkdfUzx5HKG3cgyKS+rcurI9bN33HhqkiPbzmudZrzxki8fixKP6Pqo7beOnfNiD1Pt4qXnny7+98LTNn6K6ScNPE8s02l52RyB20nyiFIP0C7le0Dc5O/uJPrdQfWHHUEnXvi1C1n1S7gMUdZh5Q47L8v048JpwvoXlC5Mnon6YTK+henLZae1H5+i9CfksoRtq8Z5yke13TMZZ3TkltGvZfuZ9AfKN8zPTcrT8b+s5Bbd74v+OyKo/cd9Df92SY4RcbfD/DTueVk/P3+jNH5yfpn8szjVmhmavkfNy2lnDhMbbbol74au8+QnrKxqO+zHhfMJO8/pTPgT5SXLo/0o9wFMtdtx+2ekPy2q/ZyG1Mn85/qQywHxqy8eImjQeN+DjxE0TYO8UOePHJsHk3fqubc4vE8/OYm4+NyB4pWXnrWPtWzZSlw9+n5nCtLfZ0wXrdss6qSXK5hfA6GTn/tpuxVW6iL+c/4Vgt6CJNgff/COuHzomWKKFWjkxWtAXEduWDnc0190W2NtMXDIJXUsJv38o7jwzJPFhK+/dFTrP/giseHf/+Hsh8lxElobQQFYTodtEACBaAQ4kOsOiJM0Glw+tt+ZzvTj03+bJgaf1rvO//ueIdeO3wAAQABJREFUdrbYYpudHOVMxTc5jnDmbn0oVp894FhBMnnpe+pgscW2O/NuXQfBK37LcrzOX2HF4hf/7wknv40321qQDP526Lx58wRNSUczZtAPx3MvGSm6rbGWnd49Vd3hx54qdtptLycvaqsusOIpz2ZCJ4K+IV7WeB+3PXeAGtiI4i9e9YZVMdXRld/wobz/ttlWoveJp4s2i7ZlUc76m/Ff2XV2mWWXF9vsuJtz3GR9DPMbR6i1kUY7r6MP6WaCJ5cx7EaWSXlZlVNHbpC948RTUxzzFG+4Dvmto8QjzsvdXqq03zp2zos9TLWLjz0w1v7kFvOjNT1lT78Hqb2n34o0ZfrSyy4n6EHgTbfYrtEDbibjiqxHlHqAdinfA+JkX1O/u5PodwfVH66bOvHCr13Iql/CZYiyDit32HlZph8XTqPSvwiTZ6p+mIpvYfpy2WkdxCcP/QlZ17jbqnGe5Oi0e6bijI7cMvq1276m/IHyVfFzU/J0/I90y0Ju3v2+7L8jgtp/3NcIbpfIZ0wsYX4a97ysY5C/Bcl5763XrE9oHu+8OESfmxpmvbBBv5NoKZKfMA/VdjiIC+UVdp7lmfInWR7nrXsfwGS7Hbd/RmXQ6edwmU2vuT7kckB84AmHiS8+/dAuM71RR9Oi040Lelrlv8896bwtSAnOvOAqsdZ6G9Xxud+a8vt2acpvurbr6muKid+Mt79DfvPdTzlv+ckVzK+B0MmPFDnjlKPFJx++4+hEAWSVbmuI77/7Rky2Bp29Fq8BcR25YeWY/tuv4tiD93De/CQd6K3GlbusZr8l8f13E8T4cV84b5HTeXoYYchF19Gms4TJcRJaG0EBWE6HbRAAgWgEOJBHGRBniR2X6SQWb7ekNXD7kfVJij/5sD196FU339vom9gm4pscRxyBf210WHpZseRSHew2gAakeVmqw9Li6lH31ekj5+MVv8PO/zDxW/sN9PnzF5Sb4vXK1htkNCvG119+JmiggReKh/yQ1rcTxomTj97P6ShSmq7d17TbI2pr3nv7NTHz9xl8qb0OGhAva7yP257XAYy5E8VfvOoVq2Gqozt71izR9/A96x6Uo9kSVu3Wwx6caWpNxT9l8iTx6Ufv2tP8kvy11/ubOOOCK1kVYbI+hvmNI9TaSKOd19GHdDPBk8uociPLlLysyqkjN8jeceKpKbvlKd5wHfJbR4lH7rx02m8dO+fFHqbaRZr9ih74/ej9t90IPfdptpeDjugrttt5D+e8KT93MvxrI0o9QLuU/wFxU7+7qZqY7ncH1R+unzrxwq9dyKpfwmWIsg4rd9h5WaYfF06j0r9QkWeifpiKbyr6cvmD+OShP8F6mlirxnmSpdPumYwzqnLL6NduG5vyB8pXxc9NydPxP9ItC7l59/uy/44Iav9xXyMf9zXC/DjsPPk2L0H+FpbPXbfeIO667QbOStC43PmX3WjPMlwkP+ECqLbDYVzCzrM8U/4ky+O8ea16H8Bkux23f0a6q/Y3uJxJrLk+5HJA/JLzB4mXX3gmtNz/2u9Qsf8hvRul+90ahOhtTRE+03qjz2u5+e6nne/VyhXMr4HQyY/k0XTt5/3nREFvOPot6/9tM/vNhBeffdxO4jUgriNXpRz0LYgrhp1lv33vpxcf33K7XaxvjZ9qvzXBx2itIofTBwVgToM1CIBAdAIcyHUGxOmtU/p++A8Tv/EVvIz1Pc2BQy4Wyy63YqM0JuKbHEe23mE38f47r/s+LEQK0NOIA8++RHRaYaU6feR8vOJ32HnK7CXrIavrrM9czJr1R13e7h0azD730pGilfUWGS9jbrlO3HP7jbzruV5vo03F26//zz4XNGV6WeN93PbcE2rEg1H8xatesXhTHV3K78vPPxZXDT/bfmiP8w9ab7LFtuLkQQs+z0JpTdVHFb9h3dJo53X0Yb1M8KS8VG5kUToT8rIqp47cMHvHiacmOOYp3lB5gpYo8ShO+61jZ9Y7br2Oaw9T7SK170MGHOd8Tmth6yGjtou1E3PmzBZzZlt/1tprGXD2xWKDjTd3TsXl4WQkbUSpB2iX8j8gTiY28bub8jHd7w6qPySPFp14EdQuZNEvaShBtP9h5Q47L0sN4kLpVPoXKvJM1A/Sx0R8U9GXZNESxifr/kSDlmb+q8Z5kqbT7lF6U3FGR27Z/Jo4uhcT/kB5qvg5pTMhT8f/SCYtacvNu9/H7bc2UE3nv2pcUa0XuK8R3i6ZsGyYPeKel3UM8rcwOfPnzxfnnX6C/ZIP57n9Lr3EUX37iyL5Cetuyl/CuLE8U/4ky4tzH8BUu03li9s/0+lvME/Ta64PygPi8pMA9I3VC6642ZlqV1ZOHu2nN7vPHn6tfLpu+yxret6P3nvLPnbAoX3EHvseYm/T0453W4MMLz77hPU2+IK38/hiGlTY+8AjxEabbCm8vvdK6b7+6jNx5bDBgqYXlRe6dthVo523DFX1Vc2PZdFg0xVDzxJfffGJoGDCC8nfwQok9NbBqOsuFY/e3/B93qOOHyC2/+e/OJmzVpWrWg56S+LWkVeKN199qe5tNBJI3xRfwRr02Xn3fcTmW+3g6CBvqMqha/zsK+eHbRAAgegEOJDrDIjTjbCzho4Qt95whXj+6UeE/BY2NbLrrL+xONLq6MiflnBrGDe+3XvnzeLOUdfY2R5x3Glisy23t6aXvEy8ZE1fLutDb2nRm7AUHxdtu5hbjbqny7zaG9V4RTNkXHfFheKLTz5sdGO8Q8dlxQ677il26rmXaN68RZ0OFNufe+phMWb0dWLqlMl152ja1V7WQ1vrbriJOGzvHax24E+x2uprifOsQXW/pYzx3kR77sdL97iqv6jWm3HWDAKnHXuQrYbfd+RZx8P23t75FpPfd5jmzpkj7rnjJvHCM486n4Xh62m90EIL2dPub7z5NnY/gvxVXkzVR9Xyk+w02nkdfWQecXlSXvRw4ztvvGxn6/cQJsuMKy+rcurIVbF31HhqgmOe4g2Xx2+tGo/kH8Jx2m8dO8s6x6nXJuxhol0cccm54v+efMguFs0C8x9rdo2u1gwcvFAZP7MeZn73rVfFQ3ffZrfXdI4eXqbPS8lLHB5yPrytWg9U7Yd2KZ12iQYRBvQ9hM1of56t49KdnH3eiPu7m/OJ2+9WrT8sTyd9ULuQRb+EyxBlHVbusPOyzCAulE6lf6EqL279YL3jxjdVfUleGB9Kk2V/guSbWlTjPMtTbfc4vak4oyq3bH7NHN3ruP5A+an4OcuNK0/H/1gmrdOUm3e/N9Fvldkmua0aV1TrBfqPau1SXJuG2SPueVm/IH8Lk0P5TPt1qvW958OcFypXWW11ceEVo6wZNOOP18l6prFtyl9UuFF5TPmTqfsAptpttlXc/plqf4PlmV5zfVAeECcFZs+eJWbOmCFatW7d6M1hWcHfpv1qTb07z376nqad9Vtoet7fpk21B6dpelD3Qsp9983X9lTps/74QyyxVHtBPzYXW7ydO6nv/tRfJouJ1mDHvLlzRPsOyzR6w5AuVNWX0qrkR+l4oaloxo/73J52dzVr2nZ6M5MXKh99Z3ahhZparBYc5/PyWkWuTjkob3oy49vx42wbLGe9ebm09U1SuuEetqjKCbNvmBycBwEQCCbAgVx3QHzYVbfYGdN04BSf/vj9d7H8Sl3szycES6w/Gye+Uexr0mShuthHnasJ4760YtN0a6roztYb6iv4PvTEmoTFo7DznA+tKWbRTaXvv51gf0+Upm/nb+XI6dzbdB19DuOH778V1hzqYpXV1qj7/jO9nUaMF7XiPL2ZFraUMd6baM/DuIWdV/UXyke13tC35al/skibNvZDZX46zJ07V8yw/K15ixaBD5vw9VRnJn47Xkz66UerLrYSba2+w7LLrxjY9+JrTdRH1fKn1c6r6sMM3OuoPOnHA/VTKVbp9D2jysuqnKpydexNaaPEU9l2UTnmId7I5fDaVo1H7h/CcdpvVTt76UvHsrRH1HaRbuYcud/OziD3sf3OFFtZs2D5LddbD8c99eh99mn6nMzIMQ0zeXmlj8pDzku1HtA1qvZDuxR8f0HmH3Wbpt8/69RjnMuvu/0R+3M/zgGPjai/u+Ws4vS7VesPy1NNr9IuUJq4/WRVfVj/qOswOWHnWW4YF9X+hao8khunfrDevI4a31T1DePDetCa0mbVn5D1iLqtE+dlGSrtnpyetk3EGVW5ZfJrN0f3flR/UPVzU/JU/c8tj/ejllNVblH8vky/I8i2qvZB/zH5/qOKPcLsFXae/TnM31TyoRhG92hpTWNWTZsuuJdZBD9hFjrtcBiXsPMs04Q/mbwPQHqZaLe5fJxfnP6Zan9Dlmlim+sD1WFamlgDKg1bJnJHHiAAAiAAAokT4EAedUA8cQUhAARyREDVX3KkMlQBARAoKQHVeOT3Q7ikWIwX6+MP3hZn9lswcCl/NstL2KjrLhOP3HeHfWr5FTuLS69vmMnLK62JY6r1wIQs5GGOwKv/fU5cdE5/J8Mxj76s9MCjcwE2QAAEKkMAcb4ypkZBQSA1AogrqaGGoBIQKKq/4D5AMpWP6wMGxJPhi1xBAARAIHECHMgxIJ44aggoAQFVfylBUVEEEACBnBNQjUf4IRzPkOO++FScdty/nUzoMy07Wp9B8VomfP2lOP2kI6xZP2bap7feYTfR5+T/eCU1dky1HhgTiIyMELhy+GDr8yaP2Xm1WXQxMeqep43ki0xAAATKRwBxvnw2RYlAIGsCiCtZWwDyi0SgqP6C+wDJ1DKuDxgQT4YvcgUBEACBxAlwIMeAeOKoIaAEBFT9pQRFzawI9Lmct179r5g7b24sHVq2bCXW22jT0E8mxBKCi0EgQwKq8Qg/hOMZiWLSwb22dQa5KTf6NvgGG28ulmzfUTSx9n+Z/LP45MN3xX+fe9KeSo7S0Octzr/sJrFS51VpN7FFtR4kpkAFMjbVLr3zxsuCptGnT7G98fILDrkNN9lC9D9ruLOPjXQImLIr+hvp2KvKUhDn1a0Pv1ZnhZTVJoC4krz9EY+SZ5yWhKL6C+4DJFNDuD5gQDwZvsgVBEAABBInwIEcA+KJo4aAEhBQ9ZcSFDWzIrz/9utiyMDjjMi/etT9ouMynYzkhUxAIG8EVOMRfgjHt9zr1uAlTW9N379TWZo2bSpOGHCO2OQf26okj5VGtR7EElLxi022S14oz73kBtFtjbW9TuFYggRM2hX9jQQNhawF4rx6JYBfq7NCymoTQFxJ3v6IR8kzTktCUf0F9wGSqSFcHzAgngxf5AoCIAACiRPgQK4zIN5l1e5i6FWjE9cNAkAgbwRU/SVvehdJH3qD7rz/nGhEZdygNoIRmeSUgGo8kn8Io/2ObsxPP3pPPPbAWPHa/55z3gJ357Zws2aCpknfY5+DRfsOS7tPJ7KvWg8SEV6RTE22SzIyerO490n/EZtuuZ18GNspETBpV/Q3UjJaRcUgzqsbHn6tzgopq00AcSV5+yMeJc84LQlF9RfcB0imhnB9wIB4MnyRKwiAAAgkToADediA+JRfJon33n5NzP/zT7Fyl9VE51W7Ja4bBIBA3gio+kve9C6SPrNnzxIv/d8TYt68ebHUbtGypfjH1jsJelMTCwiUkYBqPEL7bdb6v/8+Q0z68Xsxdcpk6+8XO/P2HZcWHToua0+hvvDCC5sVGJKbaj0IyQanAwiYapdmzpwhFl98CXumgeVWWFmssFIXsUjrNgGScSpJAqbsiv5GklZC3kQAcV69HsCv1VkhZbUJIK4kb3/Eo+QZpyWhqP6C+wDJ1BCuDxgQT4YvcgUBEACBxAlwIA8bEE9cEQgAgQIQgL8UwEhQEQQqQgDxqCKGDikm6kEIIJwGARAAgYITQJwvuAGhPgjkkADiSg6NApVySwD+klvTZKIY1wcMiGeCH0JBAARAID4BDuQYEI/PEjmUnwD8pfw2RglBoCgEEI+KYqlk9UQ9SJYvcgcBEACBrAkgzmdtAcgHgfIRQFwpn01RouQIwF+SY1vEnLk+YEC8iNaDziAAAiBgEeBAjgFxVAcQCCcAfwlnhBQgAALpEEA8Sodz3qWgHuTdQtAPBEAABOIRQJyPxw9XgwAINCaAuNKYCY6AgB8B+IsfmWoe5/rgDIhbGGrVRIFSgwAIgAAIgAAIgAAIgAAIgAAIgAAIgAAIgAAIgAAIgAAIgAAIgAAIgAAIlJHAhx9+aBerifUfA+JltDDKBAIgAAIgAAIgAAIgAAIgAAIgAAIgAAIgAAIgAAIgAAIgAAIgAAIgAAIVJeAMiFuvimNAvKKVAMUGARAoJoEmTehZJutpJoTvYhoQWqdKAP6SKm4IAwEQCCCAeBQAp0KnUA8qZGwUFQRAoJIEEOcraXYUGgQSJYC4kiheZF4yAvCXkhk0ZnHc9aEJBsRjEsXlIAACIJAyAXcgT1k8xIFAoQjAXwplLigLAqUmgHhUavMqFw71QBkVEoIACIBAIQkgzhfSbFAaBHJNAHEl1+aBcjkjAH/JmUEyVsddHzAgnrFBIB4EQAAEdAm4A7nu9UgPAlUiAH+pkrVRVhDINwHEo3zbJy3tUA/SIg05IAACIJANAcT5bLhDKgiUmQDiSpmti7KZJgB/MU202Pm56wMGxIttT2gPAiBQQQLuQF5BBCgyCCgTgL8oo0JCEACBhAkgHiUMuCDZox4UxFBQEwRAAAQiEkCcjwgOl4EACPgSQFzxRYMTINCIAPylEZJKH3DXBwyIV7o6oPAgAAJFJOAO5EUsA3QGgbQIwF/SIg05IAACYQQQj8IIVeM86kE17IxSggAIVJcA4nx1bY+Sg0BSBBBXkiKLfMtIAP5SRqtGL5O7PmBAPDpLXAkCIAACmRBwB/JMlIBQECgIAfhLQQwFNUGgAgQQjypgZIUioh4oQEISEAABECgwAcT5AhsPqoNATgkgruTUMFArlwTgL7k0S2ZKuesDBsQzMwUEgwAIgEA0Au5AHi0XXAUC1SAAf6mGnVFKECgCAcSjIlgpeR1RD5JnDAkgAAIgkCUBxPks6UM2CJSTAOJKOe2KUiVDAP6SDNei5uquDxgQL6oloTcIgEBlCbgDeWVBoOAgoEAA/qIACUlAAARSIYB4lArm3AtBPci9iaAgCIAACMQigDgfCx8uBgEQ8CCAuOIBBYdAwIcA/MUHTEUPu+sDBsQrWhFQbBAAgeIScAfy4pYEmoNA8gTgL8kzhgQQAAE1AohHapzKngr1oOwWRvlAAASqTgBxvuo1AOUHAfMEEFfMM0WO5SUAfymvbaOUzF0fMCAehSKuAQEQAIEMCbgDeYaqQDQI5J4A/CX3JoKCIFAZAohHlTF1YEFRDwLx4CQIgAAIFJ4A4nzhTYgCgEDuCCCu5M4kUCjHBOAvOTZOBqq56wMGxDMwAkSCAAiAQBwC7kAeJy9cCwJlJwB/KbuFUT4QKA4BxKPi2CpJTVEPkqSLvEEABEAgewKI89nbABqAQNkIIK6UzaIoT5IE4C9J0i1e3u76gAHx4tkQGoMACFScgDuQVxwHig8CgQTgL4F4cBIEQCBFAohHKcLOsSjUgxwbB6qBAAiAgAECiPMGICILEACBOgKIK3U4sAMCgQTgL4F4KnfSXR8iD4hPnTpVfPDBB2LOnDmidevWYt111xUtW7bUAjpz5kzx0UcfiS+++EKMHz/evn655ZYTm2yyiaC13/LOO++IKVOmiCWWWMKW65fOffyTTz4R33//vVh00UXF+uuvL5o2bepOgn0QAAEQyD0BdyDPvcJQsFAEfv75Z/Hqq6+KWq0m1lhjDbHKKqto6f/LL7+I999/3+4jzJ49W3Tp0kV07dpV9OjRI5N84C9a2JEYBIwQiBtHfvrpJ/HSSy/Z/fbff/9drLnmmmLDDTcUHTt21NIvb/kgHmmZLzSxKfsGCaLfnCRHZWnfvr1YaqmlQpOiHoQiQoISEUjDT2Vcpvqhcp6zZs0S7733npgxY4Zo1qyZWGmllcQKK6wgJ7G358+fLz7//HO7D93oZMiB5ZdfXrRp06YuVRLxhwXEbadN5RPFXqY4m8qHWchrxHmZBrZBQI9A3Phkqt3JWz55iSvUNn366afis88+s/vI1HZ17txZbLTRRkr9YK4NebGzKX04H9W1KY4kT7WfEqRbHH3o3uGECRPEl19+aY/xUV4rrriifS+wW7duol27dkGiPc/FrR9Z+4up+OEFJ8n+C8uLw/+PP/6w7+XQWC/ls/TSS4vu3buL1VdfPbAuJFmuRvXBqrSRFqsgNQuS87f33nsr52OBqV1yySU166aBc72cF21vttlmtWeeeaZRnq+//nrdNdbgeKM0XgcmT55cd929997rlQzHQAAEQCD3BDhe5l5RKFgoAlbno3bNNdfU2rZt67SX//jHP5TL8Nxzz9VWXXVV51qup7ymvF577bXQ/Ezlw4JYPu9jDQIgkByBuHFk+vTptb322qu28MILe8YS64d17corrwwtQN7yYYURj5hEvLUp+4ZpYf2I962LbEt5vdpqq4VlaZ/na5QSIxEIFJRAWn7KeEz3Hzlf6wWQmvVQZ6M2yRoI4CTOetSoUY3Ssb+HrXv27OnkQxtJxZ+47TQrGTefOPYyxdlUPsxEXrO95WPYBgEQCCYQN66Yanfylg9TyzquPP/887X11lvPt52zXjqsHX/88ayu7zovdmYF4+rD+aiuTXFkeTr9FL5GXsfV58UXX6xZD0P41osWLVrU+vXrV7MGyWWxvtum7JGVv5iKH76ArBNJ9l/i8LdejKrtu+++tVatWnnWB4oRJ510Uo0YeS1JlstdH+jpVe3llVdeaVSw5s2bK1XuuXPn2oPdrEjQmkBZT1TU6eeW/eabb9ad99uhfGRZd911l19SHAcBEACBXBPgWJZrJaFcoQhYT/jWNt9887p2kuoZHQtbqMN0yimn1Kwn7hpdz3WV19RXsN769MzSVD7uzFm2+zj2QQAEzBKIE0dIE2v2qdrGG28cGkfIp8855xxf5fOWj6wo4pFMI9q2KfuqSH/qqaeU6iPb1Xo7XCVbJ0+lxEgEAgUkkKafJtV/ZOzDhg1zfJZ9ndbvvvsuJ3HWF110kWda+Tq/7W222cbJhzaSiD9x22lWME4+JuxlirOpfJiLvGY7y8ewDQIg4E8gTlyhXE21O3nLRyaWVVyhAVca5GL5QetllllGVrnRdl7szIrF1YfzUVmb5CjL0+mnyNeZ0Gfo0KFK9YLqjDXzpO9AKOtl0h5cTznvNNam4keYrkn1X+Lwv+GGG2o0jsvcg9bWjBK1X3/9tVExkyoXCWJ9WGikAfFjjz3WyYgzpPW1117L+fquTz755Lpr6amBAw44oHbGGWfU+vTpU7OmMq87//HHH9flhQHxOhzYAQEQqCABjrsVLDqKbJgAdYJpYIme2uR6Ja9VBsTdT/FRXvvvv3+NOjMDBw5s9BQxDRi4H3ajYpnKx42Iy+M+jn0QAAEzBEzEkWnTpjWKFdbUavbNl8GDB9f+9a9/NXroZvjw4Y0KkLd83AoiHrmJ6O2bsq+qVPeAlPVJr1rQ36GHHqqUNeqBEiYkKiiBtP00qf4j4Z84cWLNmgrWs4/sNSD+8ssv1zp16lSzPu8R+rfkkkvW5bvrrrvWWdxk/DHRTpNyJvIxYS9TnE3lU2e4v3YQ572o4BgINCZgIq6Yanfylo+bVlZx5cgjj6xrr2gmL3ojmF6KoHEgup+088472/eUVl55Zbfa9n6e7EwKmdDHs6ABB01wdGev20+Rr4+rD83+KM/qRvcBe/fuXbvppptqt9xyS61///61xRdfvK7ukEyvJQl7pO0vpuKHFx/3MdP9FxP8N9100zpbW58Cqu244472H90DZnvw2qsumC6XzI3l8jHtAXGC5FUQypimOQ9arG+J1ujtMFaCAqX1jYFGl7z11lu1f/7zn/aTBT/++GPdeQyI1+HADgiAQAUJcAytYNFRZIMEqE1ed911nTaZ6hUNQMntdNiAOE11Q08Bc52k/gF1YuSF+g177rmnk4bSnnvuuXIS+0lRE/nUZfrXDuvmdQ7HQAAE4hEwEUdIg6uuuqouRuyzzz61efPm1SlH06vK8YkGJulNM3nJWz6ybrSNeOQmordvyr6qUuUBKZq9wNSCemCKJPLJI4E0/dRUP9SPIz3gyf66yCKLONt0zPqmuN9lSsfHjh1blx+9WSMvpuKPqXbaRD5J20vmx9thnDld2Fo3H643YfniPAhUmYCJuEL8TLU7ecvHXTeyiCvUNrFcWtPnq7744gu3avb+77//XrO+F9zoXN7sbEqfRgUNOGCCo1f2UfspJvShl1u5btBvdK8ZnOlFGHpQkNMtscQSjYqRlD1YZiOBCR0wFT9MqxfWfzHFn+4dE3P6VKb7E9gzZsyoHXTQQU49YNvQ562jLmHlcufLMvm49oD4Qw895BSAnv447rjjnH2aLnXcuHGcd6M1OQcrQOuwactnzZrVKA8MiDdCggMgAAIVI8BxtGLFRnENE6AfMlyXqP0+4ogjapMmTartsccezvGwb4i73/LwmymGPpciD3jT04LyQJapfLwQcRm9zuEYCIBAPAIm4ghpsOGGGzpxh77D7PddKXqYhn2a1i+88EJdAfKWT51y1g7r7j6OfTUCpuyrJq1+ymIMiKtSQ7qqE0jTT5PsP1L7wjGb+sn0xhPv0zrugPjf/vY3Jz+6QTxz5sy6qmNqQNxUO20inyTtVQdP2gnjLCUN3NTNh+tKYKY4CQIVJ2AirhBCU+1O3vJxV4+048qff/5ZW2mllZy2qmvXrrXvvvvOrVboft7sbEqf0IL/lcAUR7e8qP0UU/qsvvrqTt2gwU6/5fLLL3fSUR3+9ttv65ImZY+0/cVU/KiDY2AnrP9iiv9jjz1Wu++++3w1poF3iiFsF1rTCw9Rl7ByufNluXxce0B87733dpTv2bNn7aOPPnL2KfOgb/rdfPPNdWlpcFt3wYC4LjGkBwEQKBsBdyAvW/lQnnQI/PDDD3abTNNd0XRHvOgMiNM0SFwfaUpJ6uT4LSeddJKTlq756quvnKSm8nEylDZYP+kQNkEABAwRMBFHPvnkk7rYQDfM/RaaOUr+NtXRRx/tJM1bPo5i0gbikQRDc9OUfXXEmhqQcstEPXATwX5ZCKTtp0n1H2mGkrXWWstpmw4//PDahx9+6OyTD8cZEP/f//5Xl9eAAQMaVQFT8cdEO03KmcgnKXs1gvfXARXOftfKx6PkgzgvE8Q2CHgTMBFXTLU7ecvHi1jaceXBBx+sa6vuvfdeL7VCj+XJzqSsCX1CCy0lMMVRytKeSS1qP8WUPvQJZK6TNH2+33LjjTc66Si9e6bopOzBuvnpZfK4qfhhUifKS6X/khR/r7KcdtppdXXh+uuv90oWekylXO5M3PVBa0CcPnjesmVLR/kxY8bY+a+99trOMXqrw295/PHHnXSkyNChQ/2S+h7HgLgvGpwAARCoCAF3IK9IsVHMBAh4fctbZ0B89913d9r1ddZZJ1BDmkqd6y6t5R9UpvLxUoBlep3DMRAAgfgE4saRIUOG1MUG949kt4Z///vfnfT0lDEvecuH9ZLXiEcyDb1tU/bVkWpqQMotE/XATQT7ZSGQtp8m1X+88sornXaGvn9JU8CaHBDv1auXkz99f9P9thTVB5PxJ247zfUzbj5J2Yv1c69VOLuv8dqPkg/ivBdJHAOBxgTixhVT7U7e8mlMKv2ZpugTVhzLaIY/9+esvHT0O5YXO7N+cfXhfFTWJjmyvDj9FFP6dO/e3akf6623Xo3ePPdajjnmGCfdoosuWjdTJKdPwh5cd1lGkmtT8cO0jqr9lyT4e5WFxoHZLrS+/fbbvZKFHlMtl5wRy+VjWgPi8lMdrVu3rtH3IWhxF+j111/n/OvW9FYHK0Br+g7TSy+9VJcmbAcD4mGEcB4EQKDsBDiOlr2cKF82BHQGxLfcckunXacpgoIWfvKQ6+95553nJDeVj5OhtMHypEPYBAEQSJiAThyhN+/YT1deeeVQzeT07dq1c9LLx/OQj6OYtMHllA5hU5GAKfsqirOTmRyQkuWiHsg0sF0mAmn7aRL9Rxr8pkFw9tMrrrjCNpGpAXGaIWmhhRZy8qcZGL2WpOIPy9Jpp/kar7VOPknYy0snOqbK2e96Ph41H64/nA/WIAAC6gR04oqpdidv+XjRSjuurLLKKk5bNWjQIC+VYh3Lws5BCuvoE5SP+5xpjnH7Kab0OfLII536QXVz4MCB7qLbnzeTZ3fr27dvozR+B+LaI01/MRU//FhEOR61/8Ky4vLnfOT1scceW1dn3N8al9P6bUctl7s+aA2Ib7XVVo7i++23n6MbvclB31XizI8//njnnHtjk002cdJRenrj/IwzznAG193p3fsYEHcTwT4IgEDVCHCsrVq5Ud50COh0fOhbQVwf27dv7/m0J2s9Z84cJy1dQ9Pl8GIqH85PXrN+8jFsgwAIJEtAJ47ssssuTmzYbrvtQhW78MILnfT0+4PfVshbPl4FQTzyoqJ2zJR91aQ1pJIHpOghC3qQm3640/fO6Mf43LlzdbJz0qIeOCiwUTICaftpEv1H+aYmTUfKbYypAXG6V8YxgNY07aPXklT8YVk67TRf47XWyScJe3npRMdUOftdz8ej5sM25nywBgEQUCegE1dMtTt5y8eLVppxZdq0aXXjPLfccout0vTp02svvvhi7a677qrdeeedtTfffLM2Y8YML3VDj2Vh5yCldPQJykc+lwTHOP0Uk/rQ7DbytOlUP/fcc88avQxLC80qLZ9fbrnlapMmTZLxBG7HtUea/mIqfgQC0TwZtf/CYuLy53x4PX/+/BrNNMF2ad68eW3KlCl8WnkdtVwslwUpD4h/8803dcGQvjkgL5tttplTqA4dOvjeIPjss8/qHIIV6tixY+3888+v0bTsQQsGxIPo4BwIgEAVCHDcrEJZUcb0Ceh0fM4880yn7ad6+cADDwQqvNhiiznp+/Tp46Q1lY+TobQBf5FgYBMEUiKgE0c22mgjJy7Q9FdhC31riv2a1vzDOm/5eJWD9fY6h2PBBEzZN1hK/Vl5QIptJ69pquMuXbrUBg8eXKMbhKoL56GaHulAoCgE0vZT0/1HmulQftHjhRdecNCbGBCfOnVqrU2bNk4btsEGGzj5uzeSij8sR6ed5mu81jr5mLaXlz50TIezXx5x80GcDyKLcyAQTEAnrphqd/KWjxehNOPKO++847RVJLdfv341enCZ+r6sB6+p3VxzzTV9H/DyKgsdy8LOfrro6hOUj3zONMe4/RTT+jzxxBONxvhoWnTZn6ie0EDol19+KaMJ3dapH16Zcf30Omf6mFzeOPczTOlloh8Ul7+7LFRX2Ca03m233dxJQvfjlItlsxDlAXH5bQyaQmr27Nmch70eMWJEXcEeffTRuvPyzn//+9/aMsssU5eeFaOpD2kaVZ6OXb6OtjEg7iaCfRAAgaoR4HhZtXKjvOkQ0On40NtyXB9pTR1d+la4e6G2e+edd65LS9Pl8GIqH85PXrN+8jFsgwAIJEtAJ46suOKKTmw49NBDQxW77bbbnPTk35988ol9Td7y8SoI4pEXFbVjpuyrJq0h1bPPPltX19h+Xmt6uPvhhx9Wyp6vV0qMRCBQIAJp+6nJ/iO9uSLf0JRnRCQTmBgQHzZsWF1MufXWW32tm1T8YYE67TRf47XWycekvbx04WM6nPkar3WcfBDnvYjiGAioEdCJK6banbzl40UqzbhCD4SxPNU1fQ6E4qbqkoWdg3TT0ScoH/mcSY4m+ikm9eFyvvbaa/YDEX71ZN999430JnBce7A+rGeSa1Pxw5SOcfovrENc/pwPrWm20G7dutXFFBog113ilMtdH5QHxHv06OEofthhhzXSmd7OkJ8Ucv+AcF9A3xKlfORvCbBytF599dVrH3/8sfsyDIg3IoIDIAACVSPAsbJq5UZ50yGg2/HZaaednP4B1U1q19dZZ53aXnvtVdt6661ryy67bN15rr/ygDiVzFQ+bkosz30c+yAAAskR0Ikj8rda6VtkYcvo0aPrYsqnn35qX5K3fLzKgXjkRUXtmCn7qklrSEXTuNEUeNtss43dph1xxBE1emhjhx12sN8MZ3vyum3btrVx48aFiuD0oQmRAAQKRiALPzXVfxw5cqTTttBb3BMnTqyjH3dAnD6xQNOFsv8vvfTSjV4ykQUmFX9Yhk47zdd4rXXzMWUvL13omC7npPJhO/vlj+MgAAL+BHTiiql2J2/5eNFJM67QQ54sT17T2BDdxxkyZEiNfrd17969Lh1Ng6zSF6byZWFnL658TEcfviZsbZKjiX6KSX247DNnzqydfvrpdfVArjP00sztt9/OyZXXce3BOigLjJHQVPyIoYJzqal+UFz+jkLWBr34zPagddiYsXwtb8ctF8vn/JQGxN1TKjz99NN8fd1a7twussgitd9++63uvNcOvdVxyCGH1Jo1a1YHhxSlmwpff/113WV4Q7wOB3ZAAAQqSMAdyCuIAEVOkIBux4e+o7reeus1asO5nvqtBw0aVFcKU/nUZWrtsHz3ceyDAAgkR0AnjqywwgqOn+6zzz6hStH3yNivac2/FfKWj1dBWG+vczgWTMCUfYOl6J198skna2uvvXZdfaQHwcIW1IMwQjhfVAJZ+KmJ/iNNwdi+fXvHl4cOHdrIBHEHxO+44w4nf4oBZ599diMZOgeixh+WodNO8zVea918TNjLSw8+Zopz3HwQ59kiWIOAPgGduGKq3clbPl7U0owr9957b12bRQ+H0vfC3Qu9+en+pi89QKqyZGHnIL109AnKRz5niqOpfoopfbiM7777bk1+O5rqKL0QQ7M/c33l9YEHHhj4ICDnyeu49mC5nF+Sa1Pxw4SOcfsvrENc/pwPfQJIfoF6ySWXrP388898Wnkdt1zu+qA0IH7KKac4FZmmg5s3b56nwjTlEwug9ahRozzTeR2cMGFCjaZRkK+n7S222KIuOQbE63BgBwRAoIIEOE5WsOgocgoEonR86IcQPSVMb4a3atWqri3v0KGD/fb3gw8+WGvRooVzzms6LVP5yJjgLzINbINAOgR04si6667rxIUdd9wxVMGbb77ZSU/+zZ9Zyls+XgVBPPKionbMlH3VpKmn+u6772pLLbWUUyfpB/8ff/wRmAHqQSAenCwwgaz8NG7/sW/fvo4Pr7baap43bOMOiK+//vqODOoP//TTT7EtHSX+sFCddpqv8VpHySeuvbz04GOmOMfNB3GeLYI1COgT0IkrptqdvOXjRS3NuPL44487bRbJ9fosHutIn9Tt1KmTk57uCaksWdg5SC8dfYLykc+Z4miqn2JKHyrj888/X6PvhXO9pL4NPVA4a9as2q+//lobMGBA3UAopaMXaVWXuPZgvVTlxUlnKn7E0YGvjdt/4Xzi8qd8aObvxRZbzKkj9Dv5scceYxFa67jlcteH0AFxGvx2f++b3gTz+lt11VWdQpKgbbfdVqtwlJi+C0jfnWBFaT1+/Hgnn1dffbXunN/b6s4Ff23Qk6hynvRUDBYQAAEQKCIBjmVF1B06559A3I7Pn3/+WaM2l54WlWeKoaknue7S+tFHHw2EYSoflhkoDCdBAASMEtCJI9ttt50TGzbeeONQPeQpt1q3bu2kz1s+jmLSBuKRBENz05R9NcUqJe/fv79Th8nGXm/QyBmhHsg0sF0mAnnwU93+I91rkj/jN2LECLsfS31Z+c89zegDDzxgn//mm29CTej+ZufBBx8ceo1qAt34w/nqtNN8jdc6bj669vLSgY+Z4mwiH8R5tgrWIKBPQCeumGp38paPF7U048pLL71U17elNjBoOeqoo5z0NACmsmRh5yC9dPQJykc+Z4KjyX6KCX2ofDNmzKjJb0XTLDv0Aqt7oTE8mjKd6y6tVV+ejWsPlunWKYl9U/Ejrm4m+i+sQ1z+9BZ4586d62x/ww03cPZaaxPlcteH0AFxerWdL9Jd08C2+9tLKiU++eST62Tef//9zmXffvtt3blrrrnGORe04S4HTQOPBQRAAASKSIBjcRF1h875JxC34+NXQvfTqFGmyaG8dfOBv/hZBMdBIDkCOnFEniGKfliHLYcffrjzW2DllVd2kuctH0cxaQPxSIKhuWnKvppilZLTjR22La3DnnzntEqZIxEIFIhAnv3Ur/84duzYOv9l/9RZ0/TlQUvPnj3rZLz99ttBybXO6cYfzlynneZrvNam8nHn7Wcvdzp53xRnE/lw/ZH1wzYIgIAaAZ24YqrdyVs+XqTSjCvvv/9+XbtFM3QFLfI4TsuWLWvz588PSm6fy8LOQUrp6BOUj3zOBEeT/RQT+lD5Lr/88rr6QQ8J+i30oDB9W57r71ZbbeWXtO54XHuwvLpME9oxFT/iqmei/8I6xOFPMwTIb82TLc4880zOWnttolzu+hA6IP7vf//bqbR8sc56+PDh2gWlHxSyjJEjR9blIU/JcNJJJ9Wd89u5+uqrnTxpoD5sKju/fHAcBEAABLImwPExaz0gv5wE4nR8gojsuuuuTjtMTwpGXXTzgb9EJY3rQCA6AZ04csIJJzixgfz1s88+CxTcvXt3J/3222/vpM1bPo5i0gbikQRDc9OUfTXFKiW/+OKLnTpJNg4b7EI9UMKKRAUkkGc/9es/0gyF7JNR17fffruvtT7//PO6GRA333xz37RRTujGH5ah007zNV5rU/m48/azlzsd75vibCofrkusH9YgAALqBHTiiql2J2/5eNFKM67MnDmzbvaU008/3Usl51ifPn2ctpSmT1dZsrBzkF46+gTlI58zwdFkP8WEPlQ+eayQ3gAPW+Q2nb4xrrLEtUea/mIqfqhw8Utjqv/C+UflT7MHbLLJJk48IDsceuihnK322lS53PUhcECcvsnXpk0bpxCHHHKI/T0l+j6E39+UKVPqvh+69tpraxeWpjNnRWntnhZ9o402cs7Tx9inTp0aKIOmYSI9OM8uXboEpsdJEAABEMgzAY5ledYRuhWXQNSOT1CJP/3001qTJk2cdvj8888PSu57Lko+8BdfnDgBAokR0Ikj7gdhL730Ul+9aLCcfZrW8pRrecvHqxCsu9c5HAsmYMq+wVKind1///2detmsWTPP7w/LOaMeyDSwXSYCefXToP4jtSubbbZZjT7ZEfQnP4xFPtytWzc7PQ1w0806v+XYY4914gNdd8899/gljXRcN/6wEJ12mq/xWpvKR847yF5yOnnbFGdT+SDOy9bBNgjoEdCJK6banbzl40Us7bjStWtXp/2i7aBFfht0m222CUrqnMvCzo5wjw0dfTwu9z0Ul6PpfkpcfaigW2yxhVM31lxzTd+y8wn5DeoyDoibih/MK8raVP+FZUfxB/p+vDx9PMWsvfbaq0af4466mCqXO34GDojTk658Aa2feOIJJf332WefuutoSgZaLrroIvvGVRAIGrymtz1YLt1Adw949+3b1zlP6ehJpKBFfjuc0hNMLCAAAiBQVAIcH4uqP/TON4EoHZ+gEn3//fe1ddZZx2m3aQqtyZMnB13ieS5qPvAXT5w4CAKJEtCJI/S7oEOHDk6M6NGjR2369Ome+vXq1ctJR98Pl9PlLR+vAiAeeVFRO2bKvixtwoQJtbvvvrtGAy9xlhdffLHuDRqVh8FRD+IQx7V5JpBHP43af3Rz/vDDD532h3z4vffecydptP/LL7/UFllkEee6FVdcMdZNQbeAKPGH89Bpp/kar7WpfDjvKPYyxdlUPlQWxHm2KNYgoE9AJ66Yanfylo8XtbTjypFHHunEMpL92muvealVe+SRR+rS9e/f3zOd+2AWdnbrIO/r6MPXqfyeSJoj66LaTzGhz9FHH+3YnKZD/+GHH1iNRuu5c+fWVl99dSf9zjvv3CiN14Eo9pDzSdNfTMUP1l+lXnFaWpvsv3C+uvzJzrvvvrtjZ+K/yy671ObMmcNZaq9NlstdHwIHxHfaaSenIEsttVSNCqeyPPjgg851JPC0006zL2vbtq19fI011qjRNOjyTSxK8N1339UOOOCAumvpNXv3QjfS27dvX5eOHIq+Ly4vv/32mz1YLr+V1rFjx0YD7PI12AYBEACBvBNwB/K86wv9ikVAp+ND34YaM2aM501BOkc/mujmH9dZWp999tmNgJjKp1HG1gGW7XUOx0AABJIhoBNHSIPjjjvO8VXyWXo4lp4w5oV+SA0cOLAuzUEHHcSnnXXe8nEU+2sD8chNRG/flH3d3+K77LLLGilCM5a1a9eu1q9fP8+3P+nGB81QQL8t2a60Vnn7k9M3EooDIFACAmn6aZL9R7cpVG80y9fRjEjs77RW/ZxgkvGH9dNtp/k691onn6TsFZWzuyym8qF82e5uGdgHARAIJ6ATVyg3U+1O3vJxk0o7rtC9HJZJa3qz9+OPP65T66mnnqotvvjiTjranjRpUl0av52s7GxKH5XfEyQraY5cHtV+igl9brzxRsfmVDdoph16oM290PTZ7gH4wYMHu5N57uvWD3cmXHfdx5PaNxU/VOuVXA6T/RfOV5f/EUccUVcntt1227r7OZyvztpkudz1wXdA/Mcff6x72p2e/lBdaDp1uoHAwpZbbrkavflN05vzMVrTUyQ0VcPWW29doykWaF8+T3mMGzfOU6z77XW+jr5dQFM3rLLKKnX683m6cY8FBEAABIpMgONZkcsA3fNBgKazoikf5b8WLVo4bfHCCy9cd47SybPFUKeX6yO19fT2Zu/evWv0QJ3cD+A0e++9d41uhrkXU/m486V9lu11DsdAAATiE4gbR0gDmgrO/bBrq1ataltuuWWtZ8+eNerfsy/Tmvr59OS0e8lbPm79uAzu49hXI2DKvgMGDKirT16zh11++eV1aeg36/+zdx5gd9RW3h96M830EroxzYRevkCAUEIgBhLq0nZpJkBwYHGoJhASFtNChxAWlmJqqBtCDc2Eju2AnaUXxwZCMeAEMKFkvvlfOBONrqbdOXPv3Jm/nud9NUVzdPSTdKQ7Gklo2/bcc8/WUnDYH1HyU/xhw4ZlSoiEzxSYgUigzwh0s56W2X+0sWd90SzP4Z0YBg+kvmNVE3vlQwlr+9r2R6Odho5F5ZSRX0U4m9y15IhMyXc5p08CJOAmUNSuQKpWu1M1OTaxXtgVe/ljrHqCMRf0h7Eq0owzzhi2c9DvzDPPtNVunVcpn6GQhj5Zfk8IDC2OIs/l5+mnFNUH2yUPGjQokvd4j4j3gZgUO3LkSB/bLtu/7wcPHuxj8qrtNPLDltnt+qJlP/KUK6RZo/9SlP9rr70WKQvCHu+Tk/4wDnznnXfaWdc610iXKVh0kmuxA+Lnn39+JDH333+/PJPJt78AefDBB30smyEKpPmYkW6+dHdFih8KMus8TR6WYhw9erRLDK+RAAmQQF8REHvXV0pT2coRQEdUylIeH9ufiHvnnXcyycAPpX322cf/5JNP5NGIryUnIvTrE0mb6x6vkQAJFCOgYUdEg+eee853DTJKHRYf+7jipXqcq5ocU09Jg3mNx/kIaOTvcccdF2m7XB9+21/nS965fLRx++23X2wbZ6dQZNjXeU4CdSHQrXpaZv/Rzos8L5rx7JVXXhmxM/hgNKvTtD9a7bSGnDLyqwhnMz+05IhM2nkhQZ8E4glo2BWRrtHuQFbV5Ej64PfCrmDg09xzWnSwfQxsnXbaaa3JkKbOOK5aPmvpk+X3hLDQ4Ciy4vw8/RQNfbDt1MCBA8NyaZcJ+xyratkrDCAtWvlhc5H47etlnmvYjzzlCmkp2n/R4D927NjM5UDyRfyLL77YmSVF02ULlfjkeuyAOL7okMCYhYEZ3nnco48+GvlS6Iorrmg9jn2OsKH6vPPOG8qXeOBjFvkJJ5zg/GLEFT/2Kdh7770jew+KPCyVvswyy7Rmq6Gy05EACZBAHQiIjatDWpiG3hFAu77YYos522IpYy7f/rgMX3/aX37Kc/hoDTPqxo8fn5pQLTl2RKKLfZ3nJEACxQlo2RHRBCtD7brrrq3+u9Rd8TG7Dsuk44V6mquaHNFX0iLn9DsjUDR/8aG3rFyG1UxuueWWNkWwmsm1117bWr4fqxVI3pk+2rihQ4f6zz77bNvzSRdERlIY3iOBfifQjXoKRmX1H23+r7zySrgC4UwzzeS/9NJLdpDI+fDhw0O7Mffcczu3Xog8YJxo2h+tdlpLjnZ+FeFsIPe15IhM2nkhQZ8E4glo2RWJoWi7U1U5olev7MqHH37oY5AOv8VEB/ExIIqtrsaNGydqtvlVy2ctfbL8njBhFOVoynId5+2naOgDGaNGjUp8r4gtFDGhNW5yjFZ+2EykjNrXyz4vaofylqui/RcN/tjaGhObhXlWH+O2t99+uzNLiqbLFio6yfUZcBBcbHO4HOz7gAFzL0iUF3T628KkXfj444+94EsDL/hSyAteOkSCB/uueS+++KIXLM3uBRXIC5aT8oLlFtrCRR5KOQmWoPKCrzG8t99+21t22WW9YCkGL3iBkfIUb5MACZBAfxEIGo2WwjHmu78SQ21rQQBlMeiAe6+//ro3bdo0Lxgg94Ivib1FF100V/q05JiRsr6YNHhMAv1DAL9Dgq+NveBHWut3AmxK8CImdwKqJIf2KHf2pT7Qaf4GA06tNit4SZP6Oxe/W4NZEK3fmPjdGqw81mrjgpkOqfq5ArAcuKjwWp0JlF1Py+g/uvJD3m8FH8OktkfQaerUqd7nn3/eeseFd2KdOG3704kO2s9o5pcWZy05wop2XkjQJ4HeEOi03bG1rZKcXtsVtEfBllWt9z44Dra+9YJtrWxkXT3Xyp9Olc7ze0LiKJNjnn6Ktj7BRFTvL3/5izd58uTWbyv8xsLfgAEDJKqu+r2uL0hsp+UzT7nS7r90NZMSItNOl10eYgfEE3TiLRIgARIggR4SsA15D1Vh1CRQeQKsL5XPIipIAo0hQHvUmKxOTCjLQSIe3iQBEiCBvidAO9/3WcgEkEDlCNCuVC5LqFCFCbC+VDhzeqCaXR44IN6DTGCUJEACJFCEgG3Ii8jisyRQdwKsL3XPYaaPBPqHAO1R/+RVmZqyHJRJl7JJgARIoPcEaOd7nwfUgATqRoB2pW45yvSUSYD1pUy6/SfbLg8cEO+/PKTGJEACDSdgG/KG42DySSCRAOtLIh7eJAES6CIB2qMuwq5wVCwHFc4cqkYCJEACCgRo5xUgUgQJkECEAO1KBAdPSCCRAOtLIp7G3bTLAwfEG1cEmGASIIF+J2Ab8n5PD/UngTIJsL6USZeySYAE8hCgPcpDq75hWQ7qm7dMGQmQAAmAAO08ywEJkIA2AdoVbaKUV2cCrC91zt38abPLAwfE8zPkEyRAAiTQUwK2Ie+pMoycBCpOgPWl4hlE9UigQQRojxqU2QlJZTlIgMNbJEACJFADArTzNchEJoEEKkaAdqViGUJ1Kk2A9aXS2dN15ezywAHxrmcBIyQBEiCBYgRsQ15MGp8mgXoTYH2pd/4ydSTQTwRoj/opt8rTleWgPLaUTAIkQAJVIEA7X4VcoA4kUC8CtCv1yk+mplwCrC/l8u036XZ54IB4v+Ug9SUBEmg8AduQNx4IAZBAAgHWlwQ4vEUCJNBVArRHXcVd2chYDiqbNVSMBEiABFQI0M6rYKQQEiABgwDtigGDhySQQoD1JQVQw27b5YED4g0rAEwuCZBA/xOwDXn/p4gpIIHyCLC+lMeWkkmABPIRoD3Kx6uuoVkO6pqzTBcJkAAJfEWAdp4lgQRIQJsA7Yo2UcqrMwHWlzrnbv602eWBA/AwdN0AAEAASURBVOL5GfIJEiABEugpAduQ91QZRk4CFSfA+lLxDKJ6JNAgArRHDcrshKSyHCTA4S0SIAESqAEB2vkaZCKTQAIVI0C7UrEMoTqVJsD6Uuns6bpydnmYIdDA77oWjJAESIAESIAESIAESIAESIAESIAESIAESIAESIAESIAESIAESIAESIAESIAESiIwceLElmQOiJcEmGJJgARIgARIgARIgARIgARIgARIgARIgARIgARIgARIgARIgARIgARIgAR6QyAcEPcD1xsVGCsJkAAJkEAnBOylPjqRwWdIoCkEWF+aktNMJwlUnwDtUfXzqBsashx0gzLjIAESIIHeEaCd7x17xkwCdSVAu1LXnGW6yiDA+lIG1f6VaZcH7iHev3lJzUmABBpKwDbkDcXAZJNAJgKsL5kwMRAJkEAXCNAedQFyH0TBctAHmUQVSYAESKAAAdr5AvD4KAmQgJMA7YoTCy+SgJMA64sTS2Mv2uWBA+KNLQpMOAmQQL8SsA15v6aDepNANwiwvnSDMuMgARLIQoD2KAul+odhOah/HjOFJEACzSZAO9/s/GfqSaAMArQrZVClzLoSYH2pa852li67PHBAvDOOfIoESIAEekbANuQ9U4QRk0AfEGB96YNMoook0BACtEcNyeiUZLIcpADibRIgARLocwK0832egVSfBCpIgHalgplClSpLgPWlslnTE8Xs8sAB8Z5kAyMlARIggc4J2Ia8c0l8kgTqT4D1pf55zBSSQL8QoD3ql5wqV0+Wg3L5UjoJkAAJ9JoA7Xyvc4Dxk0D9CNCu1C9PmaLyCLC+lMe2HyXb5YED4v2Yi9SZBEig0QRsQ95oGEw8CaQQYH1JAcTbJEACXSNAe9Q11JWOiOWg0tlD5UiABEigMAHa+cIIKYAESMAiQLtiAeEpCSQQYH1JgNPAW3Z54IB4AwsBk0wCJNDfBGxD3t+pofYkUC4B1pdy+VI6CZBAdgK0R9lZ1Tkky0Gdc5dpIwESIAHPo51nKSABEtAmQLuiTZTy6kyA9aXOuZs/bXZ54IB4foZ8ggRIgAR6SsA25D1VhpGTQMUJsL5UPIOoHgk0iADtUYMyOyGpLAcJcHiLBEiABGpAgHa+BpnIJJBAxQjQrlQsQ6hOpQmwvlQ6e7qunF0eOCDe9SxghCRAAiRQjIBtyItJ49MkUG8CrC/1zl+mjgT6iQDtUT/lVnm6shyUx5aSSYAESKAKBGjnq5AL1IEE6kWAdqVe+cnUlEuA9aVcvv0m3S4PHBDvtxykviRAAo0nYBvyxgMhABJIIMD6kgCHt0iABLpKgPaoq7grGxnLQWWzhoqRAAmQgAoB2nkVjBRCAiRgEKBdMWDwkARSCLC+pABq2G27PHBAvGEFgMklARLofwK2Ie//FDEFJFAeAdaX8thSMgmQQD4CtEf5eNU1NMtBXXOW6SIBEiCBrwjQzrMkkAAJaBOgXdEmSnl1JsD6UufczZ82uzxwQDw/Qz6Rk8ABBxzgPfHEE95ss83mnXLKKd4WW2yRU0L9gl911VXe8ccf733xxRfetttu61188cX1SyRTVBoB25CXFhEFk0ANCLC+1CATmQQSqAkB2qOaZGTBZLAcFATIx0mABEig4gRo5yueQVSPBPqQAO1KH2YaVe4ZAdaXnqGvZMR2ecg0IP7ZZ595r7zySitBs846q/eNb3zDg9+p+/jjj70pU6Z4//znP70ZZ5zRW3bZZZ3ynn32We/dd9/15ptvPm+ttdbyRHnE+/bbb3vvv/9+pyq0nlthhRW8WWaZJVXGuHHjvA8++KCl4zrrrOPNMcccqc9MnjzZe/nll1vhVlllFW+RRRZJfcb3fe+pp57y/v73v3vzzz9/K82pD/VBgKWWWsoDD7gzzjjDO+KII7qi9TPPPOO99957zvITp8Bbb73lPf/8895MM83krbHGGt4888wTF7TQ9ZEjR3onn3xyS8baa6/tPf3004Xk8eFmERBbCJtB12wC06dP9x5++GHv9ddf99555x1v0UUX9VZeeWUP7Q7akTxu6tSpHtrdCRMmeP/4xz+85Zdf3ltxxRW91VZbLY8Yr2pyWF9yZR8Dk0ClCKCvj37ZCy+80Or7DxgwwFtuueW89dZbz1twwQVTdcXvBdjIN99808PvjyFDhnjrrrtupn65KVxLDu3RV1S1eJp5lHRcpF1CGYS+WdxCCy2UqVyyHGShyTB1IdCN+q5dT/Eba9KkSa33OS+99FLrvdPSSy/d6huvtNJKqX1sLX205MSVpU8//dTDO5OPPvqo9V5smWWW8fDuJs5p61OUs0tP6Fik31CkvTD1oZ03afCYBLpHQNOuaLVfWnKqYlfw3unxxx/3wHrVVVf1MLaS5rTaDy05pr5a+SMyO+Ejz2b1td4DatWXqukDjr2uL9rlKmvZ6KQfVLReYXz3xRdfbNmErHpKOIwx4x1PFpe332rKbCsPQeFPdJ9//rkfdIox6hL+LbDAAv7999+f+Fzczfvuu8+fe+65Q1mQu8kmm7QFnzhxYiTMQw89FAkTvKiP3Df1y3p84YUXRmS6ToKB+0g8wUCmK1jkWjCQ4AcDqeFzgwYNityPO7n++uvDZ5CG4EdYXNC+uh4U7jBdwYB4V3QPBnTCOMHSLj9xSgQfPITPBTPb44IVvn7ccceF8QQD4oXlUUCzCIiNa1aqmVqTQDBw7e+2225+8IFWaEukXMAPPurxDz/8cD/4wMp8zHn8wAMP+GinzOfN429/+9t+sMqH81nzYtXkiG6SFjmnTwIkUH0CDz74oB98DBtrl2Djhg8fHpsQ2L6dd97Zn3nmmZ0ygoEN/7zzzot9Xm5oyRF5TbdH2jyFa5xftF0KPjaLLUOSl6Y/ePDgOFUi1+WZyEWekEDNCHSrvmvX0zFjxvjBR1fOtgN1N1j1zh8xYoQfvDx05piWPlpynEoGF4NJL37w0WtbOoMP0JyPaOtTlLOtZNF+Q9H2wtaHdt4mwnMSKJ+All3Rar+05Ai5XtuVYNDLv+iiiyLjHXhXlOa02g8tOaKvdv50ykf0yeJrvgfUqC9V08dk2Kv6ol2uzDQlHXfaD9KoV5dffnlbf1L4p/nbb799UrLCe3n7reGDXx+IHnIdo/eJDoVbHjL94MvYxOdcN2EcgplrbfLwQt92f/rTnyLh7AH4eeedN3Lf1C3r8VlnnWVH23YeLGkdMfb4cZTmgpkobboFXxanPebvv//+4XNzzjmnj4H1OrheDIinlZ84rmuuuWaYB/vuu29csMLXOSBeGGGjBYiNazSEBif+kksuaQ14SzlI8oOZlP6HH37opIU2OVixww++lAvtXpysYFUYH22by1VNjq2jpMm+znMSIIHqEcAPHXzsI/U2yV9sscWcCQhWdfI32GCDTDJ+8YtfOGXgopYcMwJJj3mtKcdl8Ixjp9Uu3XPPPZnKkeRrsGpBnEqR6xI+cpEnJFAjAt2s75r19NRTT81c54MZcc4PT7X00ZITV6xOO+00Z1rxHsXlNPXR4Cw6Fu03aLUXoo/4tPNCgj4JdIeAll3Rar+05Jj0emlXgpU3/I033rit3cC1NKfVfmjJgb7a+VOETxo/ua/1HhDyNOpL1fQRTuL3or5olytJS5JftB+kUa8w+VV45/U333zzpOSF9/L2W8MHvz4QveR66oC4PbAoAuDbg9QiNM6/++67nYA6GRDfY489/GDZQ+efqWOwZKwzzOqrr+5Dnyzuhz/8Yag3ZqTEfQ0ssk466aQwvOhywQUXyO1YP1iiKnxum222iQ3Xbzc4IN6eYxwQb2fCK9kJiF3J/gRD1onAt771rbCtQFmAjd16661bf3gZL+VD/LjVLuyv+DDjZffdd/fRmTnmmGPaZmdCdrDsTxvKqsmxFRQO9nWekwAJVI8A7JXUWfiY4Y2PUfHxzq9//WsfA9joI8NeBVsutSVg2rRpbbYLvwUwyH7iiSf66NPbHwGdfvrppcmxBUva7Ot1P9fKl6yctNol+wXBkksu6Sf97bPPPplUbGo5yASHgfqeQLfru1Y9xWpI5qoiaGcOOugg/7LLLvOvvPJK/6ijjvKDrfwibZSrj62lj5YcV4F64403/GB5ykhaxC5lHRBPsoW4F2cPtThLuor2G7TaC9FHfOEp5/RJgATKI6BlV7TaLy05NrFe2BUMtuH3F9pEid/0OxkQ77T90GoXNfNHg4+dz3HnWu8BtepL1fSxuUk5ta+Xda5ZrvLoWLQfpFGvHn30UX+JJZbwg+2iU/+w6rjkDfyhQ4emJreTfqstVOKU64UGxPFyKY/bbrvtIokWZToZEE+K11ySHYPTRR2+ehFd4d90002JIjfbbLNIeDyTtgRAsEd75Jnzzz8/MY5+uskB8fbc4oB4OxNeyU5A7FH2JxiyTgTky1wsT/WHP/whkrRgD0B/r732irQnKC/vvfdeJByW8cHsSilLGOxGJ8Z06NzvtNNOYRiE/eUvf2kGac2MqZKciHJfn0gaXfd4jQRIoDoE7P42ljWPW2Ep2A/cD/Zna1Me/Wep8/B33XVXH6s9mQ7LomLVCwmHlzKYIWY6LTmmTBxLnPb1up+XxdPFTat9g2zzBQFWHdByTS0HWvwop9oEulnfQUKrnmLChdRNtBFPP/10G2h8GIoXfhJu4MCBbWG09NGS06ZgcAEfwEoasDKhHMMP9hR3PVI5zlCyaL9Bs72woQlT+zrPSYAE9Alo2W+t9ktLjk2q23YFq9aaq6gifnxobP6OyjsgXqQ/rdUuauWPFh87n+PONd4DQrZWfamaPja3btcXrXJlpyPpvGg/CLK16lWSnuY9e7topCHNddJvtWXa5SH3gDhmZYgQGMF3333XjsN5jjXpZ5xxxvDZXXbZJTyu+oC4vY/4j370I2cacXH69On+7LPPHqZNWGGQHvuxx7nf/OY3kWcwQF4XxwHx9pzkgHg7E17JTkDsSvYnGLJOBO644w7/5ptvjk0SOuYrrrhipE3BAJDp7NkQmHnpcmi3zAFv2HNz4KhqclxpYH1xUeE1EqgWgS+//NI3V0qCDUP/O69bd911Q9uH/Zzxstvl8HGP2Ab4Dz30UCSYlpyI0OBE4rSv1/28LJ4ublrtEmSX9YKgqeXAlV+8Vj8C3azvoKdVT1dZZZXQRuPj0jh3zjnnhOFQlydPnhwJqqWPlpyIcsEJ2juxQVgxBTPg5Rx+2QPiWpw1+g2a7YXNWZja13lOAiSgT0DLrmi1X1pybFLdtiv4MFniRHuBbV4xBvSDH/wgvJ5lD3Gt9kxLjlb+aPGx8znuXOM9IGRr1Zeq6WNzk7JrXy/rXKtcZdVPox+EuLTqVVa9119//dB+4MPSTz75JPHRTvuttlC7POQeEL/xxhtDxSHMtcygHSnOjz766PC55ZdfPvI1Z9UHxKE/llgXeNA/zmEZeQln+2PGjIl7zDc/EMALvCwOP75uv/12/8wzz/RHjx7tjx8/vjUgn+VZM4yGHHwt/bvf/a611O6dd97pY6kIcVkGxDETET++brjhhlaZuuiii/z77rsvtWJIHLZvL/WfdXl/8+u3rHuId8Iv74A4BqUmTJjgX3HFFf5ZZ53l33vvvZk/RrHZ8Lz/CYht6f+UMAVlETjyyCMjbRE+ujIdln2UcoQlEzGIHucOP/zwMCyeMT/YqpocVxokna57vEYCJFANArfddlvEzqStxuTS+rnnnovIwIvuOPfXv/7VxzZIYh8OPPDAMKiWnFCgcSDxGZdqf1gmTxc8rXYJsst6QdDEcuDKK16rH4Fu13cQ1KqneCcldRPbdMS5Sy+9NAyH8JMmTYoE1dJHS46pHFZMMd9r7bfffv7EiRMj6Sl7QFyLs0a/QbO9MDnjWMqSfZ3nJEAC+gQ07IpW+6Ulx0Wp23blrbfeatkybF+FZbbF9fOAuGb+aPERrhp+2ntAxKFRX7Lq2kt9ullfNMtVVrYa/SDEVUZ/My4NjzzySNg/Qv5grDjJFem32nLt8pB7QPzPf/6zv9FGG4UJGDRokB1H2/mnn37qL7TQQuEz2Aj9v//7v8NzVEbbdTqgCTnaS6ZDptlZBsTXXnsNl9vc8ccfH6br+9//fsTQjBw5si08LmC2ncnnsMMOc4bDRQyMHnvssT6+opDMNH283Nt22239N998M1aGphz8YDK/LhJdoAeW1MfMnLQB8VtuucXHRwbyrOnPO++8mT+6MBPcafnJOiBeNB+yDojjSxnsXeZadQCcMIPKXubY5MDjehKQOlLP1DFVGgROPfXUiE29+uqrI2J32GGH8P4aa6wRuWefwMZImYNvDlRVTY6tO85Fd9c9XiMBEqgGASxtLnUV/UZ7mfMsWmKbJJEB3x6ksGVsuOGGYXj0p8RpyRF5pi/6mdfqflwmTxc7rXYJsst6QdDEcuDKK16rH4Fu13cQ1KqnK6+8ctgmrLXWWj5m3rgcVguUOoz3TubKSZr6aKXLTMN5550X6o790LH1SLcHxLU4a/QbNNsLkzOOpYzY13lOAiSgT0DDrmi1X1pyXJR6YVcw+c12/Twgrp0/GnxsvkXO094DQrZGfcmqYy/16WZ90S5XWfhq9IMQTxn9zTj9d9xxx7B/NPPMM7etsmQ/V6Tfasuyy0NHA+L20kJps2+vuuqqMMGzzTZba2Zrvw2IP/jgg2EaANGebSegzY8FLrzwQv+73/1u+By+qnI5e/AWhdHlXn31VR/7bUgmJvnYpB5fi7iclpz//d//9TGzMEkP09Ai3BlnnBFRCTPbk57HPQyu2z80I0IcJzbTtDIqIrIMiGvwyzIgjh+nq666aiofGJGzzz5bkkC/AQSkzjQgqUxihwQOOeSQiO2w9xrfdNNNw/tY2ifJyZevUu5OPvnkMHjV5ISKGQeit3GJhyRAAhUjsMIKK4Q2CR9+duIw003q+7LLLpsqwgyP/fDEmdeLyBF5pi/6mdfqflwmTxc7rXYJsst6QdDEcuDKK16rH4Fu13cQ1KqnBxxwQNiGoI4ec8wxbRmEZRvN1UUOPfTQtjBa+mjJEQUx+I1BcLE/5557butWtwfEtThr9Bs02wvhLL5wlnP6JEAC5RHQsCta7ZeWHBetqtiVfh4QLzN/JM/y8pHnNPy094CIQ6O+ZNW1l/p0s750o1zZzDX6QZCp3d+09ZRzrDRqb6Ut91x+0X6rLdMuDx0NiH/88cf+PPPME3amMRM4yZmDuNgIHa7fBsQxI9hM884779yW5I8++sifZZZZQi7PP/+8/6tf/So8R8ZPnTq17TkMEkvGzDXXXD5m1NsOS4qbhR3hl1pqKX/vvff2sQ8ifLy0Eznw55xzzraZ4lpysG8I5JvxQT8YAXwUgP1FzHtybA6I/+1vf4vM5sfzF198sY+BGwyU/9u//VuLJ2TFfaFtc5LzsgbEtfilDYijvNl7AGNZ/UsuuaS1rDxeFqOsCFeULfyYpWsGAcn3ZqSWqcxLAB8QmStzzDrrrP77778fEYO9EaUcYYWSpI+OYPckLHwseySuanJEL9MX3c1rPCYBEqgOAWyzY/Ybr7zyypZyWGUI2w1hO51rr73Wf/rpp330teMcVmaS+r7lllvGBQuvjxo1KgyP+GVWupacMCLjQPQzLtX+sEyeLnha7RJkmy8I8Dvr4Ycfbv1OeeCBB1rbh6C/3olrYjnohBOf6T8C3a7vIKRVT7ENmrmMKOrpTjvt5GOLDbjrrrsucn/JJZd0bmGmpY+WnJbywT/zZS2WTZc2r5MB8SL2UIOzVr9Bs70QzuLTzgsJ+iRQPgENu6LVfmnJcVGril3JO+Cr1Z5pyCkzfyTP8vKR54r6Wd4DIg6N+pJF117r08360o1yZTLX6gdBpka9MnWLOx4+fHj47gV5g+XTk1zRfqst2y4PHQ2IQyj22hNheNmOkXuXGzt2bBgO4fEiAa7fBsShszm1HzOw7UHau+++O0zrYosthkd8LDEvnOBff/31revmv+9973thmKFDh5q3wuMLLrggDAM5CIcXhabDHrDmXuQIZ+6JiLBacn72s59F9MEXRqaDgV1nnXUiYaCPOSCOl0m4hj+UITxjO3xBgh+feZ09IL7VVlv5w4YNS/0zl9t37SGuxS9tQPz8888P2eAlrbwcNjngg4uFF144DIclv+iaQUDqTTNSy1TmJXDXXXeFdgFlZbvttmsTYdvwW2+9tS2MeQHbV0i5O/jgg8NbVZMTKmYciN7GJR6SAAlUiMD48eND+4L6OmLECB8D2lgBR+qv+OgTDRkyxPkDCisxSTj02dMcVnuS8PDxsSeclhxX/BKf615dr5XJ08VMq12CbPMFgeSd6aOMYtunE088se13mUs3uSYy5Jw+CdSFQLfrO7hp1lP0oe1BcbwfMNOF+osPT19++WVntmnpoyUHSj755JORD88w011cJwPiYsNMP489LMpZq9+g2V4IT/GFjZzTJwESKJdAUbti2nn+jkjOq7wDvlrtmYYcrXxOIpSXT5KsPPeyvAcUeUXri8hJ8nutTzfb4W6UK5O1Vj8IMjXqlamb6/iDDz6IrDCN8cIkp9FvteXb5aHjAfGnnnoq8hLp9NNPt+NqnWNQUSLF8s/i+nFA3NQZacJMFdNhM3hJ6x577BHewtfDch1fOJgOM+/Mmb5YZt12mJG/yCKLhDKwDLk9GC/P4DqWv5X48MNE9hPXkjN9+nQfHwRIHGuvvXb4hbHoAf/DDz9sW+LdHBC/7LLLQhmYfR+XJlNm1mN7QFx0zePbA+Ja/JCGpAFxrBBg7ilvliU7/WeddVbIEGnDV0J09Scg5bj+KWUK8xJAm7LSSitF7AI6orbDx2lSjuDjxR72CrfdY4895m+zzTaRsFj2SFzV5Ihepi/pNK/xmARIoDoE8GJe6mlWHyvjnHbaaZFELL300qGcffbZJ3LPdWJv2/Pcc8+1gmnJccUp6XPdq+u1Mnm6mGm1S5B93333hWVK8i7Ox2+13/3udy6V2q6JjLYbvEACfU6g2/UduLTr6RNPPNH68Erqqe1jdUR75SUz27T00ZKDGVrmi1qswme6rAPiWvpI3EU4a/UbNNsLSZf4Um7knD4JkED5BIrYFa32S0uOi1ZV7EreAV+t9kNDTpn5I3mWl488V8TP+h7QjKNIfTHluI6roE8360s3ypXJWasfBJka9crUzXWM9zaSH/CxtXac0+q32vIlfrne8YA4BGCpJRE4aNCgtiVX8UPB/MIWm6GLMweXEcZ29oBm1j2gIcec5YuN7bXclClTwvQi3aecckpE9Prrrx/eR/rEmdP8MehgOrsT/vrrr5u3W8cYpBDO8LFsdpLDfTO87B2rJWfChAkR+Zg1HeewLPrAgQPD8OaAuJ12LP2u5ezyY/LIemwPiGvxQxqTBsTtH6X2hxcmo0mTJoVska5x48aZt3lcUwJShmuaPCarAAHs7y3lA7790ssUba5OgrDYE3GNNdbwsSXId77zHX/xxRePyBK55oA45FVNjplGHIve9nWekwAJVIMABhGlnpr+aqut5sPeoC+PlYjwQah5H6sLvfrqq2EizL1R7ZWLwkDGwRVXXBGRh5V34LTkGFGFh6J/eKEBB2XyjMOn1S7htyyWwNt8881bbeP+++/v42OL7373u62Z4ZKf4uMDX7NMxukn4ePu8zoJ9CuBXtR37Xr6ySefRH6rS30VH+9zrr766tgs0tJHS4753m3AgAH+G2+8EdHdfvfwzDPPRO7LiZY+Iq8IZ61+A3TRai8kXeJLeZFz+iRAAuUTKGJXtNovLTkuWlWxK3kHfLXaDw05ZeaP5FlePvJcET/Pe0CJp0h9ERlxfhX06WZ96Ua5Mllr9oM06pWpm32MLcbMicKLLrqojxWu45xWv9WWb5eHQgPi5557buRFkj1ojcFPiRCzoDFjWJyZwH4ZEIfu3/zmN8M04eWIOMzMxWCCpNd8GYK9D+U6/P/7v/+Tx/wTTjghvIcXfS6H5bLN59977z1XsPDa22+/HQmPfbnhtOT8/ve/j8j/y1/+EsbtOsCPRtHfHBDHku/mTHOE2XTTTX0sPY8vQoo4e0Acg9uIO+3PnJltD4hr8UO6kgbEb7nllpAXmGDJeFxz/d14442RsDinqz8BqU/1TylTmIcAlroxlxiGfY3bzgRysSXFWmutFbEhUraS/GOPPTaiVtXkRJQLTiQt9nWekwAJVIPATTfdFNZT1Ff0r10fA+JLc3vvKQxQiltqqaVCObvuuqtcjvXRvxL7AP+1115rhdWS44pY4nPdq+u1MnnGMdNql+Lky3X8ZjF/GyJ/8UFZmmtiOUhjwvv1INCL+p5GLk89xTsEc5YP6io+EJ1//vkj7QWu77nnnokv9OL0yqNPnAxczyIHS1Sa7zdOPfXUNpFZB8TbHrQuZNFHHinKWavfAH3Kai9o5yW36ZNAdwgUtSta7ZeWHBe1qtgV7QHfPO2Hi4tcyyKnzPwRPbT5iNw4P+97QMgpWl/idMH1qujTzfrSjXJlMtfsB5lyXcdZ6pXrObl2zTXXRPrQP//5z+VWm19mv9UuD4UGxKdOnerPPvvsYcLMl08Y0MSeahKh+cIKKe7XAXFzWfTZZpvNxxc1cLfffnuYVvyIMh2+tjAHy88+++zw9kYbbRQ+d8QRR4TXzQNzb6M555zTvOU8BnvMmhH2Rx55ZCuclhws6y6ysWTlF1984dRDLsYNiOP+zTffHGEjcpdddlkfy4Hb+6SLzDQfxl1kwbc/1oh7fs011wyfswfEtfgh7qQBcXspCTMdacfy8UNc+ni9HgSkHNQjNUyFBgF8aGXu842B8TvuuCNVNAaYMPsSM8PNFV1QxhZeeOHWrInbbrvNR3sn5c5ephiRVE2OmXDR27zGYxIggeoQuPPOO0P7gvrq2r5BtMXXxEsssUQYHrZLnNmH23rrreVyrP8///M/oRzEi61x4LTkuCJuoj0qk6eLsVzTapdEXpyPFcQWXHDBsCyh/cX2UkmuieUgiQfv1YdAr+p7GsEs9fTBBx+MrDSIvi8GkLGdGSZ24D2Q+eEp6jFmF3fisuiTRW6anEMPPTS0TYMHD3YO4GsNiEPfNH0QRoOzVr8B+sCV0V7Qzn/Flv9JoBsENOyKVvulJcfFrSp2pYwB3yzth4uJfS1NTpn5I7qUwUdk234n7wE16outh5xXSZ9u1pdulCthDF+7H2TKdh2n1SvXM3IN2yxLXqBvjUm8ca7MfqvoIHEXGhCHECzHKkIxCCuz0ezMsWd69OuAuL1OP76UgMNgtnBw7Vu4wQYbhPexHyscBntnmWWW8Losbd66afzDwKzItpdcN4JFDs2BDRlo15Jz/PHHh/pgefo0lzQgjmexdLq9562kF1/ZjBkzJi2KtvtlDIhr8YOySQPihx12WMhXOGT1n3zyyTYWvFA/AlIe6pcypqgTAmh3l1tuuYjdSNtawxXPl19+2ZolAfuJ7S7EYWlFKXPwsUpIkquaHNE9SWfeIwES6B0BewudtH2Yhw0bFtokfAgkbssttwyvo9+d5syl3LCSlTgtOSLP9Jtoj8rkabJNOtZql+LiOOqoo8Kyhzy2f/fazzWxHNgMeF5PAlWo73Fkk+rpRx995JuzezCr+rHHHmsT9fjjj/vmuw3U5csvv7wtXJYLSfpkeV7CxMnBVnzmpAxMasBsaPvPXnbz1ltvbYVJWwVQ4rf9OH0QTouzVr/B1h3nWu0F7byLLq+RgD4BLbui1X5pyXGRqopdKWvAN6n9cPGIu5Ykp8z8EX3K4iPyxe/kPaBWfREdTL9q+nSzvnSjXJmsy+wHmfGYx0n1ygxnHttjqP/+7/9u3o4cl91vtctD4QFxe/N1mTmG/dYksnXWWSeSSJz064A41r43Z+H99Kc/baXNXHYWS2vbzlwaHbO8McPFXHoc+znFraFvFrosM8ShI2ZuC39ZGktLjrkU/gwzzOAjviRn/mg0l0w3n8Gsdvz4woweU3ekIet+fKa8MgbEtfhBz6QB8VGjRoV5h/TD0P3xj39M/cOPW7pmEJC63YzUMpVJBDBjxfwaEWUDq1loOvsDN/nwLW8cvZLD+pI3pxieBLpL4Nlnn430ezBzO8n953/+ZxgeK1XJNju77bZbeB0DG2luv/32C8NjZSJxWnJEnuk30R6VydNk28mxVruEATHJW/hpK7RI2E505jMkUGUCVa7vSfX0nHPOidRhvJeIc/jgxVyNb7PNNosLmng9SZ/EB62bcXKuv/76SJrE7uTxZfKHFWXiaZw+eEiLs1a/ITEh1s287YVwtsTwlARIQJmAll3Rar+05LgwVcWulDXgm9R+uHjEXUuSU2b+iD5l8RH58Dt9D6hVX0xdqqgPdOpmfelGuTKZ96IflFSvTN3M4+233z7MB+THuHHjzNuR47L7rXZ5KDwgjpdQ5sy0QYMGtb4oNQc1Mfhtu34dEEc6dtpppzBDsVQjlkQ30zt58mQ7ua3lHwU+fHxIYL7QQyGJc1gG23z23XffjQvauv5asAeiGR57C8Bpybn22msj8hFfkssyIG4+jyU2zK9rkBbsGZnHlTEgrsUP6UgaELf3nE9aTiIPE4atDwGp3/VJEVPSCQF83fn//t//i9hj1wolncg2nxk6dGgYB9r7Tl2v5LC+dJpjfI4EukMA2w+Zs9jQR0pyBx98cGiTsHy6uJ/85CfhddT7F154QW45/ZVXXjkMv9VWW4VhtOSEAo2DJtqjMnkaaDs61GqXzjzzzLAsIY+TfuxD0SaWg44yiA/1HYEq1/ekerr33nuH9RLvLtKcaTuwx3gnLkmfPPLi5IwePTpMk9icvP7VV1+dR5VW2Dh9cFOLs1a/IU/izDzP8ntIWOeJg2FJgATyE9CyK1rtl5YcF4mq2JWyBnyT2g8Xj7hrSXLKzB/Rpyw+Ir/Ie0Ct+iK6wK+aPqJbN+tLN8qVpAt+L/pBSfXK1E2OX3zxxchY6cYbbyy3nH7Z/Va7PBQeEEcqzCUHEQFmhEtEmE0te/KZKe7nAfFLL700TB9mSJsDpfggwOWwz/Z8880XPofZxt/85jfDc8iIc/fee28YDlwvuOCCuKCt6//1X/8VCY8vR+C05NhLM5x//vkt+a5/GCzH7HcpD3EzxO1nMet8vfXWC5/bdNNN7SCJ52UMiGvxg+JJA+Jjx44N0w1uN954Y2JaebN5BKQ+NS/lTLEQwH6G9odDO++8s4+2RtM9//zzPto5KXNoXzpxvZQjuneiN58hARLoDoEVV1wxtDM4TnLmqhibb755GBQz2aS+wz/rrLPCe/YBBsvNsPjiWZyWHJFn+hKnea3ux2XyLMJOq12CDrvvvntYnrAdVtyqX6JvE8uBpJ1+vQlUtb6DelI93WSTTcI6PGTIkNRMMmcCdTognqRPqgJGgDg5aOc22mgjH1uIJP2ZH4fBNmErO4THi0u8zMzr4vSBHE3OGv2GrGnrpL2gnc9Kl+FIoBgBLbui1X5pyXFRqYpdKWvAN6n9cPGIu5Ykp8z8EX3K4gP5Rd8DatUXSWvV9BG94HezvnSjXJlpw3E3+0GIL6le4b7tDjnkkDAPkBdpY1tl91vt8qAyII7N1c2ZHRIJfGyI7nL9PCBu76eKPaYkzQceeKArua1r5sxyzGgxBxmS9mjCDGFsPC9xrLrqqq2vQVwRYV9y/CiTsKussko4QKIlZ9q0aT72WpQ41l13Xeey6VhWd/DgwWE4hM86II60mZUn71JkZQyIa/FD2pIGxLF3r8kXy/HTkYBJQOqeeY3HzSGAD4Z22GGHiG3FNiWfffaZKoQ333zTxyooUt6wNPF7772XO45eyxH9cyvOB0iABLpG4IADDghtDersE0884Yz79ttvj4TDB6bi8EHQwgsvHN5fbbXVfPSLXW7HHXcMw6HPZYbTkuOKt4n2SJvnpEmT/N/+9rc+Big6dVrtEuIfM2ZM5HcwPnhOc00sB2lMeL8eBKpY30E2rZ7iHY7USyyH/tZbb8VmCPrheMci4bfZZpvYsHE30vSJe86+riFn4sSJYVqQpmeeecaOJvN5mj6anDX6DVkS1ml7IeUjSxwMQwIk0DkBLbui1X5pyXERqYpdKWPAN639cPFwXUuTU2b+iD6d8Mny+0bjPaBWfUFaq6aP8Be/m/VFu1xlKQ/d6geBZ1q9EubiT5061ceWz5IHSy+9dDg2KWE69Tvtt4ouEq/KgDiEmXuGSyTw//znP0tcEb+fB8SREHN2t5ne6667LpJO8+SSSy4JC4P5DF7Ypbkjjjgi8iy+9v3ggw8ij6HCrL766pFwt912WySMlhy74g0bNixSuJ988kl/mWWWieiCNJsD4ljaF18noWLZDoPP2P9ROMV9WGE/J+dlDIhDtha/pAFxxPPzn/88TDsY4MUtluZ3uQkTJvhHH320j5UL6JpBQOpFM1LLVNoE9t9//4h92GKLLVpfitrhks6x3QnaK9dLL9zDYBQ6LVLW4MMu2a5qcmz9cC5pcN3jNRIggWoQgM2RugofH3diCx3T3XPPPZHVlrDykr2N0I9//OOIHCyFji/XxeHDoWOOOSYSZq+99pLboa8lJxT49YGk0b5e93MtnvbeYmeffXYbOq12CVtOzT///P6IESOcsyTx4gMrCyyyyCKR8pT29TsUbmo5aMssXqglgW7Wd616aq4AiPqJdy0YCLUdlgW134OceOKJYTAtfbTkhIolHGR5sailjxZnJEej36DVXrjw0s67qPAaCegT0LQrWu2XlhybVlXsSp4BX632Q0sOmJaVP5JfefjgmSy/bxBO4z2gZn2pmj5gZLpu1xetcpW1PGj0gzTrlcneXrn69NNPN28XOs7Sb3VFYJcHtQHxW2+9NfxxL5EkrQ/f7wPi9ss0STMGcuMcZoFLONP/6U9/GvdIeB2z8rD8vPkcZo1jOSu8yMPy4uYscoTDYLPttOSMHz8+shcA4hs4cGBr1iLiNfU0j80Bcegu9/CBAfZcGDVqVKtxgiy5h5n0WK48jytrQFyLX9qAOLYZWHLJJUMGYIGVCPDhyZFHHtmaYf4f//Ef/gorrBCGMfe/zMOKYfuPgNSN/tOcGhclgG0oJP9Nf+aZZ/aT/jDb5c477wyjx0s+eR62Bh/dHHTQQf73vve91gCA3BN/l1128fHSyHZVk2Prh3NJg+ser5EACVSHgL0NBL4qRp9yzz33bH2IOuOMM4b1GfUa+1jZDkttmSs3Idwcc8zhY+ud7bff3sfesGIT4KMfhQ9Kbaclx5YrcdvX636uxRMfgApD+FhNynZa7dI555wTiQvL0qGNRHlEWcVqX6YuOMYHwlmcPJclLMOQQL8R6GZ916qn+PAcW99J3YSPdyvoH+O398iRI3389rbbF6yGh9XdxGnpoyVH9Erys7xY1NJHi7Okp2i/Qau9EH1MX8qSeY3HJEAC+gQ07YpW+6Ulx6bVC7uC7amwlYb5Z4494B2UeQ/Hd911V6i6VvuhJQeKaeZPUT7QJ8vvG633gFr1pWr6gKPtul1ftMpVlvIgaS3aD9KsV6ITtg4zV67Ganz2hF4J24mfpd/qkmuXB7UBcSyVsOiii0Z+RFxzzTUuHVrX+n1AHLOaBab4WMo8zdl7NOHZBx54IO2x1v1HH33UX3755dvilfhNHz/Y8AWzy2nJufbaa33sk2fGax/jRdXw4cPDMOaA+K677hpet58zzzF4nNeVNSAOPTT4pQ2II56nnnoqshybycR1DJ50zSAg+d+M1DKVJoGxY8dmsptSRkz/4osvDkVhSwvzXtwxBqCwmscnn3wSPmseVE2OqZscS9rknD4JkEA1CeAHurkXltRd28cHPqeddpr/5ZdfOhPy3HPPOQcrbTnok+NleJzTkmPKFx3Ma0051uBp9p/BEsv+2U6rXbK/zpe8c/loK/fbb7/YttLWUWTY13lOAnUh0K36rllPsQ2D+VG+1NM4H6tD2CuZaOmjJSdLecryYlFTHw3Okq6i/Qat9kL0MX0pN+Y1HpMACZRDQNOuaLRfSKWWHJNYt+0KPviSOPP45nt/rfZDS47w1MgfDT7QJ8vvG633gIhPo75UTR+ky3ZSZu3rZZ5rlKss5UHSULQfpF2voNeVV14ZsRuYeKXpsvRbXfHZ5SF1QPzFF18M90XDlz/4CiTOmcs8Y7lrfBUQ52644YYQEAbSbffSSy+1ZrtBYbxkwOBgVmfOrMXXDmU4fABgv7Q76aSTUqM65ZRTwnQjbfh6Ks++r9jjEIXJTKNkKr66wKzrpA8RREEtOXfffbe//vrrRwbGUU423HDD1jKCiO+EE04I03zRRReJCq29aDErfIEFFgjvS1rgY9b4zTff7JyVGAqJOei0/GAGkehw+OGHx0j3W3tNFskHsxwgzjiHZT7xRTrqk7nnvOg400wz+WuuuaZ/8sknxy6pHieb1/uXgOR//6aAmndKAKtULLjggqGdkrKQ5sN+YO9d08G22DNdRM4888zTmgmH1UDSXNXk2PpKmuzrPCcBEqgegQ8//LD1UgB9Wqm74mOgAqvhjBs3LlXxV1991ceHgq7teyAbqyvhRXia05Ij8Uha5LxpflGe999/f/i7AcuZ33LLLU6EGu0SVkXBx78oc1hlQPLO9NFWDh061H/22WedesRdFBlx93mdBOpAoBv1Xbueog3CinWLLbaYs86j7mJLIbxjcn0sqqWPlpws5eiVV14J3/fh3QLeo9hOW5+inE39ivYbNNoLUx85pp0XEvRJoDsENO1K0fZLUqwlR+R1267g4+Ok9lD0sf3Ro0eLyq33+Rr9ae12CAoWzR8NPtAjy+8bzfeAiLNofamaPkiT7aRc2tfLPi9arrKUBzMNRfpBZdQrc1Ls3HPP7dx6zNQ/73GWfqtLpl0eZkCg4GKiCzr73rRp07xgrz4veCGQGDaYBu8Fg3he8JLdCwZGE8NC5vTp071gQNQLZhq3hcW9IGO94GWDF7y8arsfdyHY080LKqcXLOPhBS9L4oKpXEc8wYC2F2Ry6y+L0GA5bC/4kqiV5mBgI8sjzjDgF+zR7gX7J3rBLBcvWPbRCz4ecIZNuqghB3kefLTQys9gMLyNRfDSsaWbK70ogsFXNN6UKVO8YFa7FyxB6C233HKtMpSkd9q9TspPYAxaPIMfg55LV1ecnfJD2UFZRV1BfGkO5Sb4kssLlvb0BgwY0NIvWKYtV91Ii4P3+4NAMLjZUjSD+e6PBFHLnhFAGQo6FN7rr7/eaudhj4KPvbzgQ7VcOlVNjqk864tJg8ck0B8E0D9Cfwf2CcdDhgzxguXOO1Ie/eTgK3YveGnhBct3tWxcnt8VEqmGHNojoem1+tud5Av66mizgkGpxP6zVrsEjVEG0QcPtsZq/TZdeOGFW+UomCH6rwTlOGI5yAGLQWtBoFP7mbW+A5J2PQ1m3XjBlnfe5MmTW7YGNgd/+B2exWnpoyUnSWd5P5XlvZu2PkU5S7qgV6f9Bs32QvShnRcS9Emg+wS07Ao077T9slOtIaff7YpW+6Elx8wjjfwx5eU9ztPfySs7LbxmfUmLK8t9LX2qUF86LVedlIci/SDki1a9Qp9q6tSpXjCRuDXeG6zulyXbc4XJ028VwXZ5yDQgLg/TJwESIAES6D0B25D3XiNqQALVJcD6Ut28oWYk0DQCtEdNy3F3elkO3Fx4lQRIgATqQoB2vi45yXSQQHUI0K5UJy+oSfUJsL5UP4+6qaFdHjgg3k36jIsESIAEFAjYhlxBJEWQQG0JsL7UNmuZMBLoOwK0R32XZaUozHJQClYKJQESIIHKEKCdr0xWUBESqA0B2pXaZCUT0gUCrC9dgNxHUdjlgQPifZR5VJUESIAEQMA25KRCAiQQT4D1JZ4N75AACXSXAO1Rd3lXNTaWg6rmDPUiARIgAR0CtPM6HCmFBEjgXwRoV/7FgkckkEaA9SWNULPu2+WBA+LNyn+mlgRIoAYEbENegyQxCSRQGgHWl9LQUjAJkEBOArRHOYHVNDjLQU0zlskiARIgga8J0M6zKJAACWgToF3RJkp5dSbA+lLn3M2fNrs8cEA8P0M+QQIkQAI9JWAb8p4qw8hJoOIEWF8qnkFUjwQaRID2qEGZnZBUloMEOLxFAiRAAjUgQDtfg0xkEkigYgRoVyqWIVSn0gRYXyqdPV1Xzi4PHBDvehYwQhIgARIoRsA25MWk8WkSqDcB1pd65y9TRwL9RID2qJ9yqzxdWQ7KY0vJJEACJFAFArTzVcgF6kAC9SJAu1Kv/GRqyiXA+lIu336TbpcHDoj3Ww5SXxIggcYTsA1544EQAAkkEGB9SYDDWyRAAl0lQHvUVdyVjYzloLJZQ8VIgARIQIUA7bwKRgohARIwCNCuGDB4SAIpBFhfUgA17LZdHjgg3rACwOSSAAn0PwHbkPd/ipgCEiiPAOtLeWwpmQRIIB8B2qN8vOoamuWgrjnLdJEACZDAVwRo51kSSIAEtAnQrmgTpbw6E2B9qXPu5k+bXR44IJ6fIZ8gARIggZ4SsA15T5Vh5CRQcQKsLxXPIKpHAg0iQHvUoMxOSCrLQQIc3iIBEiCBGhCgna9BJjIJJFAxArQrFcsQqlNpAqwvlc6eritnl4cZAg38rmvBCEmABEiABEiABEiABEiABEiABEiABEiABEiABEiABEiABEiABEiABEiABEigJAITJ05sSeaAeEmAKZYESIAESIAESIAESIAESIAESIAESIAESIAESIAESIAESIAESIAESIAESKA3BMIBcT9wvVGBsZIACZAACXRCwF7qoxMZfIYEmkKA9aUpOc10kkD1CdAeVT+PuqEhy0E3KDMOEiABEugdAdr53rFnzCRQVwK0K3XNWaarDAKsL2VQ7V+ZdnngHuL9m5fUnARIoKEEbEPeUAxMNglkIsD6kgkTA5EACXSBAO1RFyD3QRQsB32QSVSRBEiABAoQoJ0vAI+PkgAJOAnQrjix8CIJOAmwvjixNPaiXR44IN7YosCEkwAJ9CsB25D3azqoNwl0gwDrSzcoMw4SIIEsBGiPslCqfxiWg/rnMVNIAiTQbAK0883Of6aeBMogQLtSBlXKrCsB1pe65mxn6bLLAwfEO+PIp0iABEigZwRsQ94zRRgxCfQBAdaXPsgkqkgCDSFAe9SQjE5JJstBCiDeJgESIIE+J0A73+cZSPVJoIIEaFcqmClUqbIEWF8qmzU9UcwuDxwQ70k2MFISIAES6JyAbcg7l8QnSaD+BFhf6p/HTCEJ9AsB2qN+yaly9WQ5KJcvpZMACZBArwnQzvc6Bxg/CdSPAO1K/fKUKSqPAOtLeWz7UbJdHjgg3o+5SJ1JgAQaTcA25I2GwcSTQAoB1pcUQLxNAiTQNQK0R11DXemIWA4qnT1UjgRIgAQKE6CdL4yQAkiABCwCtCsWEJ6SQAIB1pcEOA28ZZcHDog3sBAwySRAAv1NwDbk/Z0aak8C5RJgfSmXL6WTAAlkJ0B7lJ1VnUOyHNQ5d5k2EiABEvA82nmWAhIgAW0CtCvaRCmvzgRYX+qcu/nTZpcHDojnZ8gnSIAESKCnBGxD3lNlGDkJVJwA60vFM4jqkUCDCNAeNSizE5LKcpAAh7dIgARIoAYEaOdrkIlMAglUjADtSsUyhOpUmgDrS6Wzp+vK2eWBA+JdzwJGSAIkQALFCNiGvJg0Pk0C9SbA+lLv/GXqSKCfCNAe9VNulacry0F5bCmZBEiABKpAgHa+CrlAHUigXgRoV+qVn0xNuQRYX8rl22/S7fLAAfF+y0HqSwIk0HgCtiFvPBACIIEEAqwvCXB4iwRIoKsEaI+6iruykbEcVDZrqBgJkAAJqBCgnVfBSCEkQAIGAdoVAwYPSSCFAOtLCqCG3bbLAwfEG1YAmFwSIIH+J2Ab8v5PEVNAAuURYH0pjy0lkwAJ5CNAe5SPV11DsxzUNWeZLhIgARL4igDtPEsCCZCANgHaFW2ilFdnAqwvdc7d/Gmzy0PfDohfddVV3vHHH+998cUX3rbbbutdfPHF+WlU8Im6pquCqKkSCfQtAduQ921CqDgJdIEA60sXIDMKEiCBTARojzJhqn0gloPaZzETSAIk0HACtPMNLwBMPgmUQIB2pQSoFFlbAqwvtc3ajhJml4eOB8Q/++wz74knnvCmTJnivfvuu95cc83lLbbYYt66667rLbTQQh0pl+ehkSNHeieffHLrkbXXXtt7+umn8zxe2bBa6XrkkUe83/zmN960adO87bbbztt33317luZnnnnGe++997z55pvPW2uttTwphFkV+uijj7zJkye3BZ9xxhm9eeed1xs4cKA366yztt1PuxAnN+65xRdfvBVf3H3z+qeffuohD1A/3nnnHc/3fW+VVVbxVlttNW/ppZfOzcCUzWMSkDqEckXXbALTp0/3Hn74Ye/1119v2ZpFF13UW3nllVv2Zv755+8IDmzW448/3rJbq666qrfCCit0JAcPwRaiDYC9nWWWWbxlllnGW2qppWLlvf/++97bb78de9+8gb7GggsuaF5yHrO+OLHwIglUjkAZ9R/2BDbyzTff9D7++GNvyJAhrd8qiyyySK70a8mhPfoKuxbPrJk4depU79lnn/UmTJjg/eMf//CWX355b8UVV2z1y9NklFEuWQ7SqPN+nQg0ub7jt9qkSZO8l19+2XvppZc82BO8C4ANWmmllbw8ffVO7Ng///lP78UXX2z16fOWqW984xvegAEDUh9Dmp5//nnvhRdeaPXh8cxyyy3nrbfeerH9dG27qslZElz09xDtvJCkTwLdIaBtV6C1VvulJacqdqWIfSzj/RXyKu97JzwjrpP2VZ4Vv4x2SGTH+Rp6/+1vf/P++Mc/tsZcMLaHd2yDBg1qvU/Eu8U4p9W/0JLj0rPX9UWr3rvSlnYtb32osv2UtHbS35Rn4beVh6DS5nKBAv4+++zjzz333BiJafsLIvCDQXF/9OjR/pdffplLdp7Axx13XBh3MCCe59FKh9VK15ZbbhnymX322f2g0elJuoMXT6EeKC8PPfRQLj2g9wILLBCR4Sp3wccY/m677eZfc801fmBQU+PIKteMa+edd06VG7xw9RFuzjnnjNU5+JHob7TRRn7wQUmqPAYgARcBKZeue7zWDALBi/2WzZtjjjmctmammWbyDz/8cP/vf/97ZiCwnRdddJE/zzzzhDK//e1vZ37eDhh8OOcHHwGFsqTcBi/M7KCt82BQ35955pnbwstztj948GCnHPuiPGdf5zkJkEB1CGjXf9g+9MfibEowIOGfd955qQC05EhETbdH2jyFa5z/wAMP+MFLndh2BW1cUn9cu1yKnk0vB8KBfr0JNL2+jxkzxg8GhWPtz2yzzeaPGDHCx/u1JFfEjl1++eWx8YsdivO33377JLX8Bx980A8mO8TKx2+R4cOHt8nQtqtanEVRrd9DwlXk0icBEiiPgLZd0Wq/tOQIuV7blSL2sYz3V8Il73snea5I+yoy4Gu3Q6Zs17GG3k8++aQ/dOhQP5i04mzHgwmI/rBhw/zg4weXCr5W/0JLjkvJXtUX7XrvSlvStbz1oar2U9LYaX9TnhffLg/4WjSze+yxx3y8QBIhaf5mm23mf/LJJ5nl5wmoNXCcJ85uhNVKlzkIgY8Ugtl53VC/LY4//elPkfJy//33t4VJumA/n1bmcH+TTTbxgy+hk8T6ncj9zne+kyjz97//vR98TRVJb5K+eEn7i1/8wg+W/U+Uy5skYBOQcmVf53kzCFxyySU+XjJJOUjygxka/ocffpgKJpjZ4W+88cZtMnGtU3faaae1yYOusL8ud8899zjDx6UvmB3uEtN2TZ5vu8ELJEAClSGgWf8/+OADf4MNNshkT9APi3Nackz5Tbb/qMpZAAAQFElEQVRHZfA02ZrHeGF3xBFH+PgNJMzj/GCVKT9YRcB8PDzWLJeh0OBAdDGv8ZgE6kSg6fX91FNPDeu51Pc4P1iJyfkBq4YdO+OMMzLrYeu3+eabO4skXrRiIoId3nWOSQu207SrGpxN/TR/DwkPUz6PSYAEyiGgaVe02i8tOSaxXtqVIvaxjPdXJpe875002leJX7sdErkuX0vvYDVhHwPeUp6SfIwBBisPt6mj1b/QktOmYHBB0uW6V9a1Mup9Xl3z1ocq2k+kuWh/0+Zml4fMA+LnnHOOc5YFBgC33nprH1/YB8sphAVOIrrjjjtsHVTOtQaOVZRRFKKVrmB/9XDABB8m9MrZA89FB8SD5Q39b33rW62/NdZYw19yySXDdEqZg49Z8aNGjYpNtq2XKVfk2/6vfvWrWHlxL92CpYH9XXbZpfWHgSlTRzlG/nBQPBYtbzgISNlx3OKlBhCAbZIyAD9Y0rDVDqMtxiCxeQ/HBxxwQCwVdDIwIIRZKvZzOO90QPyNN97wsRqGS2bWAXHY96Q/rFaTxYkOWcIyDAmQQG8I2D/Ekuo+7sXVf/xgt2esBUvStl7en3jiif4Pf/jDtkHS008/vS3RWnJswU21R2XxtPnKuT3bAG3c7rvv7uOlyzHHHNNWRtB2BsvayeOhr1UuQ4FfHzS1HNgceF5PAk2v71h1wlydBPbnoIMO8i+77DL/yiuv9I866ig/2Eou0kd29dU17Nijjz7qL7HEEn6wTUjqn70qH2aOuRx0FRsGH2nFTHi8D/n1r3/d+l2xzTbbtH5bLLvssm0itOyqFmcoWMbvIWHUBoAXSIAE1Alo2RWt9ktLjg2qF3ZFwz5qvr+ymXTy3kmjfYUemu2QnS7XuZbemEQoZQkTbbbaaqvWijVHH310a4Kh3BPf1UfR6l9oyXHxEv1d98q4Vla9z6NrJ/WhavZT0lu0vylyxLfLQ6YB8YkTJ7YNOmK2rGsWLr6wRwdYIrrpppskblVfa+BYVSkFYZrpwqzAt956S0GrzkXYA89FB8Rdzwf7ZvhXX311a1BIyp341113nVP5onqZQu+6666wvEu8+NELQ2S7YC91/8c//nFb+CuuuMIOynMSiCUg5Sw2AG/UmoDM5MaHaH/4wx8iacVqIHvttVebjYHtsV2wj6q/5pprRsJi4Aiz5aSMdTogjoEHkWFvIRHsKW6r0jo3O2KY3anlRA8teZRDAiSgT0Cr/p9//vmh7UHd33XXXds+OsQyc6adwwA7vrg3nZYcUyaOm2qPyuJp88U5lqnDrERhjcFuvGwxHV7u7bTTTmEYhP3lL39pBmkda5VLW7DoZl/nOQnUgUDT6/see+wR2ha0NU8//XRbtuIDHAxUiy0YOHBgJIymHYsITji5/vrrQ32gF2b02Q7XRGf4mDkW7I1uB2udf/zxx86lVrXsqgZnKFrW7yHh5ITDiyRAAqoEtOyKVvulJceG1G27omUftd5f2Txwnve9k2b7qtUOudJlX9PUG5PyMEMcA45YLtt2mEEuZQ3+vPPOawfJdZ6lf5FFYF45koYssjXClFXv8+iWtz5AdtXsJ3TS6G9Cjuns8pBpQHzbbbeNVAZUGrxISHI33HBDa59k16B50nNZ72kOHGeNsxvh6pauogPPeZ7HwDj2upJCDh8/NNFw2C6PXPtZ8xwvULGHvRnnSSedZAZxHp9yyimRGUqYPf755587w/IiCdgEpLzZ13neDAJYeeXmm2+OTSx+uGDVCykn8DEAZDu8wJIwWFZ2//339999913/Bz/4QXi9kz3EH3roofB5yMWMGIkHPgfE7ZzgOQmQgNYPsXXXXTe0N4MHD3b2AUEbg5+mXYLdMp2WHFMmjiVO+3rdz8vi6eJmz57AjEWXQ7/bHDjHaiv2hxFa5dKOv6nlwObA83oSaHp9X2WVVUJbj49U4xxWYBRbAH/y5MlhUE07FgpNOVh//fVDfTBAb299+OWXX/rLLLNMGAa/NaZMmZIitf22ll3V4Aztyvo9JHnbToBXSIAEtAlo2RWt9ktLjs2p23ZFyz5qvb+yeXTy3kmzfdVqh+x0uc419X7qqaf8CRMmuKIJr2HbFClv8CdNmhTey3uQ1r/IKi+vHNE/q/yi4cqq91n16qQ+QHbV7KdWf9PmZpeH1AFxbF4uD8FHBms7dP5vv/12/8wzz/RHjx7tjx8/3p8+fXpiNGkDx5glh0qOJSywhn+Swyzqxx9/3B83blzbQD9+CEDOk08+GflRAP3uvffe1tJ70DnOmEAPzJLHEn3XXHNN7Be0ol9cut5//30fX8OAEZbaevXVV+URp//pp5/6Y8eObaXfNTPQfAhfKN92223+RRdd5GPZyGuvvbb1XJZ9Z005ruOiA8+dPG9+EYMyO2LEiDbVOpHbJiS4cOONN0bqx7Bhw1zBnNfMr8mgJ77CoiOBLATEJmcJyzDNJHDkkUdGbJPLvqDtQ1nCModoK8UVGRDH9g+rr756GPd+++3nY5UZKbPwOSAupOmTAAkIAY0fYs8991zE1uDFQZz761//Gln96sADDwyDaskJBRoHYguNS7U/LJOnCx6WIxbO2LoDH4nFucMPPzwMi2deeeWVSFCNchkR+PWJ6Oe6x2sk0M8EWN99f4455gjtCpYRj3OXXnppGA42wXzZrGnH4uI3rz/yyCMRXbBsqu3wvkhsF/xOV4LUsqsanJHGMn4PQa6wwjEdCZBAuQQ07IpW+6Ulx0Ws23alLPvoSluW91fmc52+d9JsX7XaITNdcceaesfFYV7HFlNS3uBjXKwTl6V/kUVuJ3JE/yzyi4Yps95n0a3T+gDZVbKf0EervwlZprPLQ+qAuP1VSNKsNDOitGN8lX/sscf6+PpUlDJ97GOAmelvvvmmU1TcwLEE/tGPfhTKxRLuSQ57G0nc+FLXdD/72c/CeyeccEJrwPzggw+O/NCRZ7HvwjvvvNN6HDMMIAtLS8h98fE17QsvvGBGEx7b6cKAOn5ImUs7ihzMavjtb38bPmseQFcJ51p6FvpdddVVrQ8cJJztzzXXXK0ZNBhc79QVHXju5PnXXnvNn2WWWcL0Y18re5Z4J3JdDDCQZHLDwE9WN2bMmMizqGt0JJCFgJS5LGEZppkETj311Ih9wbYSLufaM7XIgPh5550Xxov9EdEmckDcRZ7XSIAETAIaP8SwQo+0j/DNwQUzLjnecMMNw/Dom4vTkiPyTF/0M6/V/bhMni52O+ywQ5iva6yxhitIeA1LqUuewLcHeDTKZRiZcSBxGpd4SAK1IMD67vsrr7xyaFfWWmstHzNdXM58XzX33HNHVqjQtGOuuO1rO+64Y6gz3p2Ys9UlLLYgEduFFTXw8rUTp2VXNTiL/tq/hyBXWEkc9EmABMojoGFXtNovLTkuWr2wK2XYR1fasr6/kmc7fe+k2b5qtkOSrjhfU++4OMzre++9d9iOodxhJclOXJb+RRa5ncjpZn0ps95n4dNpfYDsKtlP6KPV34Qs09nlIXVAfIEFFggrwUorrRTpqJuC8xxjdjMGaUWZJB/x4+sA29kDx/Z9LP0qcrfcckv7duQcHXoJi5ncpjPjwb7Qm266aRhWnjH9IUOG+BjENiureV+O8SEAviCxnRnf4osv7uNFjjzj8rHvg2vmnykHS3rbDmlxyXNd23nnne3HM58XHXju9Hl8tGCmxd67q1O5dsLx0YDEs8kmm9i3U89Rp+T55ZdfPjU8A5AACEiZIQ0SiCNwyCGHhOUE5cXeazzuOVzvdEAcg98YBJfyee6557ai4YB4Em3eIwESAAGNH2JYkULsDz52TXNm+Pnnnz8Mbl4vIicUaByIfsal2h+WydMFz/ytlraymcx8kXw5+eSTIyI1ymVE4NcnEp/rHq+RQD8TYH33W3tySh2Hj1lWtsOylpgAIuEOPfTQSBBNOxYR7DjByhh4pyS67LLLLo5Qvr/CCiuEYTCxpVOnZVexjaPo3CnnpDR0+ntIZIpuck6fBEigPAIadkWr/dKS46JVFbtS1D660pbn/VWR906a7WvZ7ZDJSVNvU67rGIPfiyyySNjGYmyqE5e1f5Emu1M53awvZdb7ND5F6gNkV8l+Qh+t/iZkmc4uD4kD4limWx6Aj0HUog57j5uJg9ylllrKx9cn2M8PvjljG/fnnHPOtpniaQO+ZQyImywwYxtf6OAHw2yzzRbhhJdqZlgM/u+zzz4+jIh5fd99923DaabLDIuvhpEm5IHND+HsmcmmHNeAuDnQjg8CfvKTn/gXXnhha3AdP8jsNGHp/E5c0YHnTp/H4I/Jz54d2alckwGW2zTjGDVqlHk707FZTlGm4r4gzySMgRpDQMpdYxLMhOYigBVAzA+9YFvQnmd1nf7AMTuBWDZdZo50MiCOfsDDDz/cGsjH/ufoBGNlmU4c60sn1PgMCXSXgPlDrNP6//3vfz/sl6V9DIvUod8m9mGGGWYIbZaWHBdBic91r67XyuTpYoY9e4XzQgstlPgxN36XSlj4WK7RdBrl0pQnxxKnnNMngboQYH33W7OrzWVUUd932mknH+8O4K677rrIaoNLLrlk28wrTTuWVraGDx8esYNYltR206ZN89FOiu3CFn5wWIUPq97dcMMNrW33MAkBk0OSnJZdxSz2opyT9Oz095DIFFZyTp8ESKA8Ahp2Rav90pLjolUVu1LUPtppy/v+qsh7J832tex2yOSkqbcp1z7GYDhWP5ayBv/ss8+2g2U6z9K/yCKoUzmShixxFA1TZr1P061IfYDsKtlPzf6mzc0uD4kD4thTVB6AjyUsiroLLrggInPo0KFty1ljrzcMNJtxm3v7QYe0AV9zoDHtpZg5cJA0Q1z0gXEw9+XG4CuWlpL74mNJc+xLLg6zEAYNGhSGm3322X1ktunMdImcLbbYou1HEgbT5T58zIg2nSnHNSCOfbaxhBeWXHcNwmLPdPNL4cMOO8wUn/m46MBzp89jFQKTz/HHHx/R2ZaLJRlGjhzp/MOzGIyxnb3MIpagz+sg29RzypQpeUUwfAMJSJlpYNKZ5AwE7rrrrohd2W677TI89a8gnfzAQZthvijDzBdxnQyISxk3fbSzWEnjxBNPbOs3SFwuX2S47vEaCZBANQiYP8Skzpp+lvpvbmODlZrSHFZYMuOQpeC05Ljil/hc9+p6rUyeLmbmdlfgfeutt7qChdfM7a3s31Ma5TKMyDhoYjkwks/DGhNgff8qc9EXtwdrMcHB5AM7gPdQL7/8cluJ0LRjbcKNCx988IE/YMCAsC1cZ511jLv/Ohw/fnwYBnqPGDHCxzs21zsw/B7AqomugXVI1LSrRTn/K4XtR538HjKl0M6bNHhMAuUS0LArpn3m74jk/CpqH23ped5fFX3vpN2+ltkOmZy09YbssWPH+vfee6+PNOB3McZ9zN9FaMcwERRjdHld1v5FmtwicrrZDmvZjzQe9v2i9QHyqmQ/NfubNiu7PPx/AAAA//94wzX0AABAAElEQVTsnQfYHUXVxy819BACAQSB0EKQSEcQkCZINSiEIAIaaQICIkj/kKo06UWkSAtNQFApoiIGlS5SlN4DSOgdpOy3/6tnmJ072+6evffu7n+e531n7+zsmZnfzJydndoKEsxFF10UtFot83fZZZcl+E6/9c477wRzzz23kTd69Ojg448/9j4I9xVXXNH4nXbaaYPnn3/e+D3wwAPNveWXX964y8X2229v7q+77rri7LU/+9nPGr/HHXdcxI8dDlistdZawbvvvhvxgx9f+9rXjAz4QzoffPDBDn9nn312xN8999wT8eOGt9FGGwUfffRRxA9+/Oc//wnAT/Jn1llnDcBXjC3Hx0f8Jdkbb7yxkT927Ngkr7H3/vGPfxgZiOtNN90U69d3o9vnP/zwwwBlRvhsueWWEfGuXPEXZx999NGR5/HDrR950wYZp512mokjwv7rX/8KZxoSSCQg5TTRE282kgDeDUsssUREr9xwww25WNjvsy996Uupz37yySfBSiutZML8xje+EXnmgQceMPdQdu+9997Iffnxxz/+MeJPyrnPxjv2N7/5jTyaaMvziZ54kwRIoK8ENOr/ggsuaHTIhAkTUtPjtuOk3a4lxxeBJuqjMnn6GN9yyy2mHIA3vvP+9re/dXi99dZbgw033DDid9ddd4340yiXEYH/+9HEcuDjQLf6EWB9/zRPb7/99mDMmDERHSN1Hzb6J1599dVPH7CuNPWYJbbj8phjjonE78ILL+zwA4c///nPEX92OuKup5566gDyXaOtV4twduNm/877PWQ/i2vh4rrzNwmQgD4BDb2i9f7SkuOjNCh6pah+tNOWp/9Ko9+pjPdrWe8hm5N2vN98881gmmmmMe8qKVu2/dOf/tQ7HmXHK+46a/si7nlxLyJH0iKyyrTLrPdx8daoD5A9SPpTs73pcnPLQ8v1YP8+/PDDI5Xj5ptvtm/nvkZnhEQA9llnnZUoA/dt/3/4wx+M/7QB3zIGxBdYYIHg7bffNnGwL9y43nnnnfZtc/3ss89G0vTb3/7W3MOFnS504NiD3BGP4Y9DDjkkIsseZLDldDsgvtdeexn5yy23nBt8pt/uwHPeQeMiz0811VQm/u4AjSvXLme+a3eiBBLvKua77747ExPb0xlnnGHiiHBvu+02+zavScBLQMqo9yYdG03gyCOPjOgUV/dlgZP3A8ee6DXLLLMEzz33XCSYrAPi6BTERKx11lknGDduXID3OAa1vvKVrwSLLLJIJF2oA7PNNlvwxBNPRMLy/WB98VGhGwkMFgGN+j/77LMbPbHDDjukJvD88883/qEnHnroofYzWnJ8EWiiPiqTp48x3DbYYINI3qLDZ5lllmm/W9Zee+3gM5/5TOS+5Is7IK5RLn1xlPB89+hGAlUmwPr+ae5hEYXdJyP1Xmz09UycOPHTB5wrLT3miDU/sYBg/vnnN7pwnnnmCT744ANz377AJFSJt20vtdRSAfTmYYcdFuC9ay/YgL/pp5++o62urVeLcrbTaV/n/R6yn8W1cHLd+ZsESECfgIZe0Xp/acnxURoUvVJUP9ppy9N/pdXvpP1+Les9ZHPCtWa8UWekPMXZWIRy1FFHxS5kdeMnv/O0L+QZn11UjqTLJ1vbrcx6HxdXrfowSPpTs73pcnPLQ+KA+CmnnBKpIFdccYUrL9fvCy64ICLv5ZdfTnz+xRdfjPg/88wzjX/748I34FvGgLgvHInQ9ddfH4nrlClT5FbExuwne6AWTGyTli7bL1Y2SIbCvvbaa83tPHLMQ+HFK6+8Ejz88MPtTsFddtnFyP/85z9ve8t87Q4892pA/LXXXjNxB5u99947Emc3Xvvss09wySWXxP699NJLkefx4xe/+EUkjBtvvLHDT5oDZlzZefjYY4+lPcL7JGDKDFGQgE0AOsjeGWP48OFB3LvIfs69zvOBA10711xzmTLp200j64C4Gw/39+9+97tg6aWXNmFBd2JgI82Ijk3zx/skQAKDSyBL/cfEVanv48ePT03MpZdeavzjuSeffLL9jJYcXwQkfr57dXUrk2ccs8cffzzAZF7hndU+4IAD4kR63bOUS9+DEh/fPbqRQJUJsL7/N/fQ12CvFkKdx0ScYcOGdeilrbfe2jsQXbYeu/jiiyNxOfTQQ2OL3pVXXhnxi8mrd911V4d/9HXtvvvuEb/ol8tj8uhVDc5xccvzPeSTQT3vo0I3EugPgSx6Rev9pSXHR2pQ9EpR/Shpy9N/pdnvpPl+LfM9JJzE1ow3ZB5//PHBD3/4w/Z4ybbbbhusscYawdChQyPvcJQ57JSM93tWk6d9kSSzqJxe1pcy672PkWZ98Mm33XqpP8tsb7rlIXFA/LrrrotUBAzeFTEHH3ywkTfTTDOlisLyf8wqlUhj0FJM2oBvrwfE3e0rfAOoEvchQ4aYNBUZEH/qqaeMHDD6+c9/LkFEZiMnDeRPmjQpgOLDB5vNWpiLjUGIbow78NyrAXFsRS9xh21PpkA6isYLMtxtJdy8hJ80Y6/Cx+qVPC+ZNNm8X18CUrbrm0KmLC+Bf/3rX5HGKwbG8Q7vxuT5wNltt92Mrh01apS3Q09rQBxpmTx5cjDnnHOaMJHO9957LzGZrC+JeHiTBCpDIK3+L7vsskY3rL/++qnpcic2yq5MWnJ8EWiiPiqTp4+xuKFNjVWLWBk+44wzmrKBPBgxYkR7lcU111wT2N9lvu19RV6cnVYufc81sRz4ONCtfgRY34MAuyriODup59AxmDD6/vvvB6+//nqw3377RSawwh9WfflMmXoMfUR2HLEYJc64iz98x1DIs1hlPt988xnZ0MF5TRa9qsnZF78830O+54Wt7x7dSIAEek8gTa9ovb+05PgIDYpeKaofkba8/Vfa/U4a79ey30O+MqARb59cccNW6mizuN9OP/rRj8RLqp2nfZEkrKicXtaXMuu9j5F2ffCFYbv1Sn+W2d50y0PigPgjjzxiGrJ4ELM9i5jvfOc7Rh62iMpi7EqIwUMxHBAPAqywlwyFje0SxKTxeeutt4LVV1898rwty72u2grxX/3qV5G0/elPfxI0bVtjQByruW1O3XSiYVtgkYFJCTQkkIWAlJksfumn/gSwCnzhhRc2ugTlI+1IkiQqWT9wMCnLPnfo9NNPDzBr1f1zt725+uqr236eeeaZpGjE3tt3330jafWtULEfZn2xafCaBKpNIKn+r7vuukY3rLzyyqkJtbfom3nmmY1/LTlGoHXRRH1UJk8LbeLlxx9/3H7voP2Pjh4xOOJD8gS2vduW+MliJ5VL3/MSpu8e3UigygSaXt9xvJ69Sgi7KGFXP9fgmDT0h4kugH3eeee53iK/NfWYe0bjt771rUhY7g938Qfa9klmxx13NGnDarNuTJJeLZOzxDXr95D4d23JW9edv0mABPpHIEmvaL2/tOT4KA2KXimqH/P2X5Xd79TN+7UX7yFfGbDduom3/XzSNXbQlfIGG9/KCC/N5G1fxMnTkCPxjwtD073Meu/Gs+z64IYnv3uhP8tsb7rlIXFAHDNP7M7ubgdFffCyrBDHeQFTTz21qYT2VqxpA772CvG0LVXtjxH3rOi0cCRtbqb1YoW4OyBrb2mfFG9wxZYXUhhgzzvvvO0JD9gFACudcZ7V2LFjjZ9u877owHO3z2+zzTYm7kgfZrPYplu5tgzMfra3v19zzTXt26nX6JDDebuSD3mfTw2AHmpLQMpMbRPIhGUmgJUm9mxElA3sxlLEZP3Aueyyy4z+kjKZ18b2O3kNOgztcNJWwovfvOHQPwmQwOARSKr/W265pdENGJBIM9ttt53xP3LkSONdS44RaF00UR+VydNC29WlOwu9m2NGEHBSufRFrInlwMeBbvUj0PT6ftJJJ5n3Cuo5JoHGGUzotHfoQ/9MN6YbPWb38yCef//73xODvu+++yLpwg4rSeYHP/iB8T/DDDME2Pkxr0nSq73gnPV7KC5d1PNxZOhOAv0jkKRXtN5fWnJ8lAZFrxTRj930X/Wr3ynp/dqL95CvDGRxS4p3lufFzworrGDe5Sh7WNWfZvK2L+LkacjpZX0ps967jPpVH3qhP8tsb7rlIXFAHNAXWWSRSAX47W9/6+ZF5t/YtloiADtp0BhCcZaf7R97yYtJGvCFH/v867Ttvqs6IP773/8+wufOO+8UPIlbpmNGss0VHYIYJHfNEUccYfylMXSfld9FB567eR4VyJ5IMf/880t0jN2NXPOwdWGXHQyO5zkDHKsp7XzAbBsaEshCQMpNFr/0U18CmJX6xS9+MaJHJkyYUDjBWT9wLrrookjYUi7z2Jh8lddg4pYdRlonnvjNGw79kwAJDB6BpPq/xx57RHTDww8/nJiA0aNHG//rrbee8aslxwi0Lpqoj8rkaaHt6nKTTTYxZQA7rXRrksqlT2YTy4GPA93qR6Dp9R1H0Un9Rj9BmrF1EM4Y78bYMrLoMewCafeVYNfANPPuu+9GFsqgLy7J2H1x2D69G5OkV3vBOev3UFzapBzE3ac7CZBA7wkk6RWt95eWHB+dQdEr3erHbvuv+tXvlPR+7cV7yFcGsrglxTvL8+Ln29/+tmnToOzdcccdcstrd9O+8AnSktPL+lJmvXcZ9as+9EJ/ltnedMtD6oC4m+BVVlnFzYvMv90B3NNOOy3x2R//+MeRyoeBTjFpA+KHHnqoeRZbVcWZJ554IrJKd5BWiOPj4ZVXXomLerDzzjubNCJj7VUNSXyQRikImLGLnQB8pooD4ph9vOGGG5r0IZ2XX355R/K0BsRtRgjL3ta/I1DLAQ2BJZdc0sQT24/Y+Wd55SUJdBCQ+ttxgw6NIYBzCO1teVAmcATDRx99VJhB1g8cDDatttpqAbYmTvqzB50QzyWWWKLtHx1waOzmNVtttZXRndNNN5333HJbJuuLTYPXJFBtAkn1HztOSH2HfcIJJ8QmFvrL9osZz2K05Ig825Ywbbe6X5fJswi7hx56KLLTE747uzVJ5dIns4nlwMeBbvUj0PT6vsYaa5h3y5gxY1Iz2F5R1M2AeDd6bNdddzVxhC6ydxlMivDiiy9unsN1krF3r1pnnXWSvMbeS9KrveCc9XsoLgHU83Fk6E4C/SOQpFe03l9acnyUBkWvdKMfi/Rf9aPfKe392ov3kK8MpLmlxTvtefu+29+Ytqi12/aFHSauteT0sr6UWe9dPv2oD4hDL/QnwimrvemWh9QBcSitBcOzjeVB2OPHjw8woBdncK7AySef3N6G+6qrrjLeXnzxxWDIkCFG1uc+97kAo/8+gzOu8VEg4WLw0O7oTxrwhTycnyrPwv6Tc4Y0/OCcU/uMJ/gbpAFxxAcrs31KByznmGMOk0awtE0SH5wFL2yQH2+88Yb9aPsa+fLlL3/Z+KvCCnFMbnC3gocC9xmtAXFse27nA7jiTMokg7PfV1ppJcMWzxxwwAFJj/AeCUQISP2NOPJHYwhgR49NN900okM23njj2MlNecF084GTFMYDDzwQieu9996b5D3x3qRJkyIrVLK8m1hfEpHyJglUhkBa/cd3wogRI4y+WWqppQJ8T/jMZpttZvxhUqLtT0uOL9wm6iNtnk8//XTwy1/+MkCHT7fm+eefD5ZZZhlTBjBBGO3zbkxaufTJbGI58HGgW/0INL2+77TTTkavYDv0F154ITaT0Z63J8hjUn8e040ew2ILHF0oOgj9fMizLGaHHXYwz+H522+/3fsYdpQU+bC72QUvTa/2gnPR7yFh4IVERxIggZ4TSNMrWu8vLTk+QIOiV/Lqx7L7r4SVVr9Tlver9nuoV983GP/Be9q3S7BwhI1dGLH4RMqcb+dd23+R9kUZciBT4m7LL+tau95rlAet+gBmvdKfCKus9qZbHlIHxBGZCy+80BQkEYBOpmuuuSZ47rnn4KVtMHB79tlnB7gn/uwVF/CEFbRyDzZWl7322mv/FfC//8h4nFlt+0NYtkka8IW/u+++O/I8ZuhKXLGK+Oabbw5Qoe0wcD1oA+KIEwa77e3QwWv55ZePxB3nftsmiY+7df2pp55qPxpgsN0dsNU6Q/zaa69tT4LAgLvvz1XKSQPXeB67BmBW80EHHRRZ6Q9u+AiN6yxLkhuBkeEHBsDdcoQz7G+99dbIhI9nnnmmvVodqyNt/0OHDg1effXVDCHRCwn8l4CUH/JoJgHoFykDsDF5CZPXtEzeD5y0cLM0xHAkyrBhw4K9997bu2ocDUy0J+aee+5I2rOsahFWafHkfRIggf4Q0Kz/3/ve9yI6Aluh2/oRuyLtv//+ET/bbLNNR8K15LiCm6qPtHi6Z6adeOKJLuL2WbWXXnpp4Jt8hW9ADOK4k72xs5hrNMulK7up5cDlwN/1JNDk+n7OOedE3i/o60LHumuwuMTt8DvkkEOMN+gqDT1mBP7vwt2B8dhjj3W9xP6G7hTdBRuLV9zzRG+88cZg9tlnN/5wbS/u0NKrWpxjExveKPo9JKySwuA9EiCB4gS09ApiovX+0pLj0hkUvZJXP5bdfyWcsvQ7ab1fNd9Dvfy+ke22cTzyGWec4R2LwLt85MiR5l2OcrfbbrsJZq9dpH1hC9SSA5m9ri9a9T5LebCZxV1nqQ+DqD812ps+Jm55yDQgjhXfW2+9tSlMIkTsOeecM8Cgnvy27UsuuSQSD8y+d/1ilTK2W0WHFAZi7VXkkIWtKFyTNOArfr/0pS9F4oRwsWLY7QSx4zuIA+ISP5wJhS1mMdArbrCRHncgOYnPP//5z8i5UTj7GlvhH3zwwe0td+2PGAlHa0Bc5MXZGOywjTtwPe200wazzjpr+w/xjpODLRb+8Ic/2KIi165clDkMxiT9ffWrX43IkB9YVYStwHxxQXwxoQHb3/vuzzvvvMFNN90komiTQCYCUpYyeaanWhF48sknvboEuibpD++N66+/voMFdBcm6dh/9jsYMu17uL7hhhs65CQ5ZGmInXTSSZF0QYdvsMEG7bYH3ts+HbrjjjsmBWvusb4YFLwggYEkoFn/sYUYjkqSeg97xhlnDNZcc81g7NixAc50te8tuuiiASbiukZLjitXwnbd6/5bi+d+++0XyT9sqecaDD4JZ0x+xm4AOGYK7xS08+We2FtssUV7EN2Vo1kuXdkStuvO3yRQBwJNru+Y5L7YYotF9Aza1dBD++yzT3sSP87kdN9To0aNCrDznBgtPSbyYH/wwQeRHRixO4q7MMX277t2t0/FanP01aGvELs22WeTQ8/h+EXbaOlVLc4StzK+h6jnhS5tEiiXgJZeQSy13l9aclxy/dArRfWjdv+Vy8T+naXfSev9qvke6uX3zbnnnhtpo6CfEAsu0U7BtzL6+6SciY3dbLAgMc5otC8gW0uOxFPiL7/LtrXqfZbykCUtWerDIOpPpK1oe9PHxy0PmQbERRBWimMwUoQk2dNMM02ArbndgVrI+tvf/hZgNkrS83IPHwy+7dmTBnwlvlih6+v4ENmwN9lkk/ZAvLgN0oD4dtttlzh4jzijI+/BBx+UJBs7jQ8GvyXNcfZGG21k/GTZltYEbl1gBXecfJ87tizEBAwxeZ9Hp+fhhx+eeqZsXrmIK14McQazzI4++ujIliK+9NluX/nKV9qr8eNk0p0E4ghIOYq7T/f6EnB3P5GykMXG7iC2QcdbludcP+570pbpu87SEHNnQbph2r/R2Yb3Y1Kj3I6HPGu78ZoESGBwCGjXf7SLfZNoRBeIPXr0aO/KPSGjJUfkwZawbbemXGvwtL9vwBLbFbpmypQphrPw9tl4l0yYMCH2XaJdLu14SnxsN16TQJ0INLm+Y4c690g1qfM+GwsC3JXWWnrMLlPYUdAOHxOF8hoMANhnO9ry7Gt0sB9zzDGRfh2EpalXNTgjTmV9DwkPhEFDAiRQHgFNvYJYary/NOXY5HqtVzT0o2b/lc3Cd52l30nz/ar1Hurl9w3aG5gQJ2UpzcYO0FhUmWQ02heQryVH4ippk9+9sDX0R5bykCUtWerDoOrPou1NHx+3POQaEIdAnLuN7Z1WXHHF9ooLESg2tlXYY489vFue2hHCqlo0wn3blqNyYsX4xRdfbD8Suf7JT35iKjBWfcSZRx55JPjCF74QOXMUK4sxwPuzn/2svSLg+9//vpEFN9tkDQfnK8iKZcwC9p3LLXLtGcG/+tWvxLlt29tvn3baae3tK9BZ464KxyrucePGBTinwWfS4o1BZ2xvb5/TjjxEGjD7Z+LEie2wsToQ7quuuqovmFQ3bHO77LLLGr5STuJsrNyxTdLzOM8CZ0ViRvXXv/714Pjjjw8w+yyLSZIbF7ekciZh3nXXXcFWW20VYIt+N88gF51vKNvYph6D6DQk0A0BKaPdPMtnqk0Au6xgVxYpA1lt6HacFWQbvAewS0VWGeIP2yzlMWg3YJIcnof96KOPdjwOfYgdZbC9MSY2SVi2Pdtss7UnsWFCUx4jMvI8Q78kQAK9I1BG/X/iiSeC8ePHBwsttFCHPsF3BnalQodImtGSI+E0XR8V5YldlYYPH97OU0x6dr+jhDOOUrK/t4Q7bLxLsFr8nnvuEe9eu4xyKQFJfOQ3bRKoI4Em1/fXX389OOqooxLb2djlDytz4iZ4augxu1xhsYroHixyQT9ZNwZpQ2etr0MdEwHQlkffmM9o61UNzmV9DwlrHwe6kQAJ6BHQ1iuIWdH3l6ROS47I67Ve0dCPmv1XwiHOztLvhGc1368a76Feft8g/ZMnTw4OOOCA9liKlCnbxrgFJr9hW3iUgTSj1b7QkiPxlTTJ717ZRet91vKQlp4s9WGQ9WeR9qaPjVsepoKn0LErE1aMVtiQboVnc7fCTodW2LHeCgcoc8sKB49b4YyTVni+UCtcrdEKVz23wgqYKidUrK1wYLMddtjJnug//NBohWfJtcIB5Fa4PXgr7Ewx/oEg7BRrQUY40GDc5SJrOOEgfytczd4KB6tbYYe+PN5hh+cXtuMBP/DrGsQF6bfjgniHgwCtsEC0wgHrVqicWuEAh/to5HeWeCMPw60iW4899hgmR7TCLetbYQeTkfPOO++0wllh7biEA9DGnRfpBFA2UT/wF658b9eNsGO2FX4opj9MHySQQEDqfgH1nSCdt0hAn4C8S8KBiFbYgZYYAHRnONu29eKLL7bfeWhX4J0XrqBJfC7uJutLHBm6k8DgEdCu/0ghvi/C1QkttHnDiaBtfZKmh3xkNORQH31Ktlue4Yd766mnnmqFg0ntb7dPJUav0EYKOwLafvGtiW9VvEvmmWeeqMcMv7TLJctBBuj0UisCTa7v4SqX1jPPPNN69tln2zoLugt/s8wyS2oea+oxyEKfUriDY7svLJy8nxp+kgfoRfQjQc/iOlwQ0AoXNyQ9ErmnrVeLcI5ETOkH9bwSSIohgRwEtPUKgu72/eVGW0MO9YpLtfN31n4nzferxKLIe6gf3zeIN8afwoWFbRvjUOFuzq3wuN5WnjaCVvtCS47kxyDUl27rfdbyIGmNs7PWBzw/qPoT8SrS3hQ2bnkoNCAuQmmTAAmQAAn0joCryHsXMkMigeoRYH2pXp4xxiRQVwLUR3XN2XzpYjnIx4u+SYAESKBqBKjnq5ZjjC8JDD4B6pXBzyPGcHAIsL4MTl4MQkzc8sAB8UHIFcaBBEiABHIQcBV5jkfplQQaR4D1pXFZzgSTwMASoD4a2KzpacRYDnqKm4GRAAmQQM8JUM/3HDkDJIHaE6BeqX0WM4GKBFhfFGHWQJRbHjggXoNMZRJIgASaRcBV5M1KPVNLAvkIsL7k40XfJEAC5RGgPiqPbZUksxxUKbcYVxIgARLIT4B6Pj8zPkECJJBMgHolmQ/vkoBNgPXFpsFrtzxwQJxlggRIgAQqRsBV5BWLPqNLAj0lwPrSU9wMjARIIIEA9VECnAbdYjloUGYzqSRAAo0kQD3fyGxnokmgVALUK6XipfCaEWB9qVmGFkyOWx44IF4QKB8nARIggV4TcBV5r8NneCRQJQKsL1XKLcaVBOpNgPqo3vmbNXUsB1lJ0R8JkAAJVJMA9Xw1842xJoFBJkC9Msi5w7gNGgHWl0HLkf7Gxy0PHBDvb34wdBIgARLITcBV5LkF8AESaBAB1pcGZTaTSgIDToD6aMAzqEfRYznoEWgGQwIkQAJ9IkA93yfwDJYEakyAeqXGmcukqRNgfVFHWmmBbnnggHils5ORJwESaCIBV5E3kQHTTAJZCbC+ZCVFfyRAAmUToD4qm3A15LMcVCOfGEsSIAES6JYA9Xy35PgcCZBAHAHqlTgydCeBTgKsL51MmuzilgcOiDe5NDDtJEAClSTgKvJKJoKRJoEeEWB96RFoBkMCJJBKgPooFVEjPLAcNCKbmUgSIIEGE6Ceb3DmM+kkUBIB6pWSwFJsLQmwvtQyW7tOlFseOCDeNUo+SAIkQAL9IeAq8v7EgqGSQDUIsL5UI58YSxJoAgHqoybkcnoaWQ7SGdEHCZAACVSZAPV8lXOPcSeBwSRAvTKY+cJYDSYB1pfBzJd+xcotD1OFEQn6FRmGSwIkQAIkQAIkQAIkQAIkQAIkQAIkQAIkQAIkQAIkQAIkQAIkQAIkQAIkQALaBB544IG2SA6Ia5OlPBIgARIgARIgARIgARIgARIgARIgARIgARIgARIgARIgARIgARIgARIggb4SMAPiQWj6GhMGTgIkQAIkkIuAu9VHrofpmQQaRoD1pWEZzuSSwAAToD4a4MzpYdRYDnoIm0GRAAmQQB8IUM/3ATqDJIGaE6BeqXkGM3mqBFhfVHFWXphbHniGeOWzlAkgARJoGgFXkTct/UwvCeQhwPqShxb9kgAJlEmA+qhMutWRzXJQnbxiTEmABEigGwLU891Q4zMkQAJJBKhXkujwHglECbC+RHk0/ZdbHjgg3vQSwfSTAAlUjoCryCuXAEaYBHpIgPWlh7AZFAmQQCIB6qNEPI25yXLQmKxmQkmABBpKgHq+oRnPZJNAiQSoV0qES9G1I8D6UrssLZQgtzxwQLwQTj5MAiRAAr0n4Cry3seAIZJAdQiwvlQnrxhTEqg7AeqjuudwtvSxHGTjRF8kQAIkUFUC1PNVzTnGmwQGlwD1yuDmDWM2eARYXwYvT/oZI7c8cEC8n7nBsEmABEigCwKuIu9CBB8hgcYQYH1pTFYzoSQw8ASojwY+i3oSQZaDnmBmICRAAiTQNwLU831Dz4BJoLYEqFdqm7VMWAkEWF9KgFphkW554IB4hTOTUScBEmgmAVeRN5MCU00C2QiwvmTjRF8kQALlE6A+Kp9xFUJgOahCLjGOJEACJNA9Aer57tnxSRIgAT8B6hU/F7qSgI8A64uPSnPd3PLAAfHmlgWmnARIoKIEXEVe0WQw2iTQEwKsLz3BzEBIgAQyEKA+ygCpAV5YDhqQyUwiCZBAowlQzzc6+5l4EiiFAPVKKVgptKYEWF9qmrFdJsstDxwQ7xIkHyMBEiCBfhFwFXm/4sFwSaAKBFhfqpBLjCMJNIMA9VEz8jktlSwHaYR4nwRIgASqTYB6vtr5x9iTwCASoF4ZxFxhnAaVAOvLoOZMf+LllgcOiPcnHxgqCZAACXRNwFXkXQvigyTQAAKsLw3IZCaRBCpCgPqoIhlVcjRZDkoGTPEkQAIk0GcC1PN9zgAGTwI1JEC9UsNMZZJKI8D6UhraSgp2ywMHxCuZjYw0CZBAkwm4irzJLJh2EkgjwPqSRoj3SYAEekWA+qhXpAc7HJaDwc4fxo4ESIAEihKgni9KkM+TAAm4BKhXXCL8TQLxBFhf4tk08Y5bHjgg3sRSwDSTAAlUmoCryCudGEaeBEomwPpSMmCKJwESyEyA+igzqlp7ZDmodfYycSRAAiTQop5nISABEtAmQL2iTZTy6kyA9aXOuZs/bW55qOyA+IUXXtj6v//7v9ZHH33U2mijjVpnnnlmfhoD+ERd0zWAqBklEqgsAVeRVzYhjDgJ9IAA60sPIDMIEiCBTASojzJhqr0nloPaZzETSAIk0HAC1PMNLwBMPgmUQIB6pQSoFFlbAqwvtc3arhLmloeuB8T/85//tG6//fbW5MmTWy+99FJr5plnbs0777ytFVdcsTXXXHN1Fbk8Dx100EGtI488sv3I8ssv37rrrrvyPD6wfuuaroEFzoiRQAUJuIq8gklglAeMwHvvvde65ZZbWk899VRrypQprXnmmac1evTo1pJLLtkaNmxYamxfffXV1osvvpjqDx7QRphzzjkz+YUnyH7ooYdaDz/8cDuMWWaZpbXwwgu3VlpppUxyWF8yo6ZHEugLgU8++aT1yCOPtIIgyB3+Zz/72RZ0gs8U1Wu2TOg36Mjnn3++9c4777TGjBnT/uaZe+65bW+p19RH/0WkxTMV+P88vPLKK6377ruvdf/997c++OCD1iKLLNJafPHFW0sttVRWES3N8sRykBk7PdaAQC/qu3Y7FO+jp59+uvXYY4+1Hn300XZbdMEFF2zrjiWWWCJT2xhZ9+abb7b+8pe/tJ599tl2nxnawIsttli7fY22dh6jocfs8NDev+2229rv3s997nOtRRdd1L6deF3XdCHRWpyp5xOLEG+SQCKBIvpJs72m9f7SklM3vVK0n0cKkZYcyHv//fdb9957b+vtt99uTTfddK2FFlqotcACC0hQsbZmuYsNxLqh1U4pI95F6q+VxMr3A2rVe5tJ3LVWebDlF6lXWvHRLJ8d+jOMZC4TAgkmTJgQzDrrrOi16vgLAwjCQfHgoosuCj7++ONcsvN4PvDAA03Y4YB4nkcH2m9d0zXQ0Bk5EqgYAdG9FYs2ozuABMIBgmDLLbcMZpxxRvNOlfIFe5pppgn23HPP4K233oqNfTiIHkw77bTe521Zcj1q1KhYWfaNm2++OVhuueVi5SJuu+++u/2I91rC9d6kIwmQQN8JnHfeebH1XOpvnD127NiO+GvoNREK3Tdu3LhYHRcOkASnnHKKeE+1JR2pHmvqQZtnGqY//elPQTj4FFu+vvSlLwXhBO9EMZrlSQJqejkQDrTrTaBX9V27HTpp0qQgnHQZqzeGDBkS7L333gH6xeLMHXfcEWyyySZB2JnulTP11FMHO+64YxB2GseJMO4aeswICy/CSWjBGWecEcw222wmbtCFWUxd04W0a3Omns9SouiHBKIEiugnzfaa1vtLS45Qqote0ern0ZIjfMOFn0E4Wda8G4V3uDBDvHTYmuWuQ3iMg0Y7pYx4F6m/dlK18lXyz5bdi2vtep8WZ43yYIdRlL9GfMoon255wIzQzObWW28N0PEjQtLstdZaK3j33Xczy8/jMcvA8U033RQcd9xxwcknnxw888wzecT3zW+WdPUtcgyYBEhgIAiI7h2IyDASlSVw1llntQe8pTwl2eGK7OD111/3pvXGG2/M3C5AGOHqcK8cccSHCAbpk+Ij98KdaeSxWFv8xnrgDRIggb4SQFtd6mlee5111onEXUuvQehrr70WrLzyypnidvjhh0fiEfdD0hd3v87uZfCM44UOmb322ivARG1hHmdPP/30Qbj63ytKszzZAUhcbDdek0CdCPSyvmu2Q48++uhUnSH1N1xR7Z0w+vOf/zzAgLf4S7LRt/bGG294s15Lj9nCwx2XgtVXX70jbnBLM3VNVxmcwVLyPY0r75MACfyXQBH9pNle03p/acmxy0fV9YpWP4+WHJstro855hiju4U17H/84x+u1/ZvzXLnDcDjqNFOKSPeReqvJFM7XyUPRX4v7DLqfVK8NcqDyNfgrxGfMson0uiWh8wD4ieddJJ3dUS47VOw/vrrB5hVGm77ZAKQgK677jphq2pnGTgOt3o18TniiCNUwy9LWJZ0lRU25ZIACVSDgOjXasSWsRxUAquuuqp5R6JMhVsPt9/neKdj0FrKmdg77LCDNyluR+T8888fJP1hl5kkg3AkTNhYfY6VOhjc+NnPfhZg4GnDDTcMsEJn5MiRSaLa90RWqkd6IAES6AuBv/3tb8F8880XhNuPp/4NHz48oh+wAs82WnoNAxTuDhXh8RHtyTqHHHJI8PWvf71jsPXYY4+1o+K9bqo+KounF3Lo6O46gPfFVltt1Z4ovf/++3fkLd554bZ2HeK0ypMruKnlwOXA3/Uk0Ov6rtUOxW4R9o5H0Bs777xzcO655wYXXHBBsO+++wazzz575B3kaxuvscYaxg92M1pvvfXaK8r322+/wL4nesAnAyVDS49BFjo50X5GmiRc284yIG7HvU7p0uQM1mKEr/ymTQIk4CegoZ+02mta7y8tOS6xqusVrX4eLTk23+eeey4Ij+HyviPjBsS1yp0dj6RrrXaKZrw16q+kWTtfe11fyqr3wse1tcqDyC3KXys+muVT0gbbLQ+ZBsQfeOCBjlVka6+9dhCe92fLbl9jhj06qiWgK6+8ssOPhkOWgWMOiGuQpgwSIIFBIyD6ddDixfhUi4CsEMGEtj/84Q+RyIdnJgXbbLONeZdLmXv55Zcj/vDD7ojEasoiBrMBJSzYWDkTnt3oFRme45tpq0mR5xVCRxIggUoRuOyyyyI6AjrDNlp67dRTT42EM378+OCjjz6yg2pvr4rVxaJjMBEIK82SjPhN8lPHe2Xx9LHCNnXYPURYY7Abky5sg86bzTff3PiBX9/kaa3yZIeNa4mb687fJFAHAr2s7+Cl1Q795je/aeomdPtdd93VkR2YOIMJXFKH55hjjg4/2CURK8TRsYjt3F2DldbyPOyhQ4e6Xtorz7X02AcffBAsu+yykTAxwct+f2UZEK9jujTfF24mSh677vxNAiTwKQEt/aTVXtN6f2nJ+ZTUf6+qrFe0+nm05LhsMXFW+M4000zmGm7hmeKu9/ZvrXLnFe5x1GqnaMVbq/4iqWXkq+SnB2UpTmXV+7jIapUHyNfgrxUfrfLpcnPLQ6YB8Y022iiiDNC4R0dCkrn88suD1VZbzTtonvRc1nscEM9Kiv5IgATqRsBV5HVLH9PTGwLYweWqq66KDQwN3MUXXzzy/sf5eq7R6oj8+OOPg4UWWsiEh7AnT57sBpf7N+tLbmR8gAQGlsAXvvAFoyMwEOEezaSl11ZccUUTzqhRo7zb4gISBlFFx8D+85//nMhO/CZ6quHNsnj6ULmr/bCziM98+OGHkYFz7JLiTmjQKk9u+E0tBy4H/q4ngV7WdxDUaofaiykwKTTOYOdEqcOwn3322YjXO++8M7j//vsjbu4PHPdhy3j66acjXjT1GCaWSlg4RmL77bcPXnrppeBrX/uacc9yhngd06XJOZKB4Q9h7rrzNwmQwKcEtPSTVntN6/2lJedTUv+9qqpe0ern0ZLjcsX3m7DFexI7w8hv2HED4lrlzo1P3G+tdopWvLXqb1n5KnkYx1Pbvax6HxdPrfKgxV8rPlrl0+XmlofUAXEcpi4PwUYGaxnMsL3mmmuCM844I8A2g5dcckmAJfZx55Ta4cYNiL/33nvB448/3v6zzzvfbbfdjDvuP//887a4jmt0kuBD5vzzzw9OOOGE4Pe//337w6HDY4rDm2++Gfz1r38NzjzzzACzRa6++urAt8JOxMSlCxMQ/vKXvwTHH398cOmllwaPPfaYPEKbBEigYQREJzcs2UxuHwjss88+kTYAVrW4RqsjEu0BKduwtXaYEZluvPmbBEigWgTQnpb6DBvbz3Zj0vTagw8+GAkHHeZx5t///ndkF62ddtopzmvbXeKf6KlmN8vk6UOFbY2FM7Y+xOSuOLPnnnsav3gG34h5TVp58smT+Pnu0Y0Eqkyg1/UdrLTaoTPOOKPRBzimJ86cc845xh/qsjuYHfec7Y6jG0QPwMZgs2009dgLL7zQDgvHD6GvTUzeAXF5LsmuWro0ObtcJH9dd/4mARL4lEAv9VNae03r/aUl51NKn15VVa9o9fNoyfmUaNDeAezzn/+8eSdvt912AXZJFtaw4wbEbTlx12nlLu45n3sv2ylZ4q1Vf8vIV/CTPPSx1HYrs97HxVWrPGjx14pPXHpt9yzl0/aPa7c8pA6Iu7NXk1aTuYH5fmPm/YUXXtgeWJfIuPbMM8/cXnHx/vvv+0S03eIGjvHx4srz/ca5Rzjs3jVYaYKzomaYYQavHKxYc7fdc2XgNzrIxo4d23G+IOKCLbSwTZ/v48lNF2ZqwM3dsgNyFl544eC+++7zBU83EiCBGhMQnVbjJDJpA0Lg6KOPjrwLJ06c2BEzrY5IbEksZRsr9dztiTsCzuggMjN6pzcSIIEBJbDZZpsZHYFzXt1VeVmjnabXDjvsMBMO9IevvW6Htcoqqxj/+E5IMk3UR2Xy9LHedNNNTX4ss8wyPi/GDd90kiewu5mIlVaeTGDWhYRpOfGSBGpBoNf1HdC02qGjR482+mC55ZYL0A/jM9/97neNv1lnnbVjZwnfM67btttua2RAH2DFtm209RgWorimjAHxqqVLm7PNmHrepsFrEogn0Cv9lNZe03p/acnxEauqXtHq59GSY7M95ZRTzPt49tlnbx/Jpzkgnlbu7LikXfeynZI13hr1t4x8Bcte1pcy631cudAqD1r8teITl17bPWv5tJ9xy0PqgPjw4cNNIVpiiSW6avDbEcBgs0QizR43bpz9aOTaHTiWm9gCKk2u3H/uuefksbYNpfe5z30u9Xl0wp144omRZ+0f119/fWBzk/Bce+655w6wgtw2drqwwn3ddddNjA8mD2QZoLfD4DUJkEC1CYguqXYqGPsqENh1110j7yD3rHGkQasjctFFFzVhHXDAAWp4WF/UUFIQCfSNAFbuYkKp1Octttii67ik6TWsDJBwRo4cmRqO7R/nsiYZkZvkp273bD7aPH2s1lxzTZN/aTubycoGyZcjjzzSJzLRLa08+R6W8Hz36EYCVSbQ6/oOVlrtUBwLKHUTNlY7uwbbqmJhhfjDLoR5DQa/0Q8kMj7zmc90iOiFHtMeEK9iusrkLPnbkbl0IAESSCWgrZ8QYFp7Tev9pSXHB6mqekWrn0dLjrCdMmVKgEFw4XryySe3b2kOiKeVO4lLFrtX7RTEpUi889Zf7XwVlpKv8rtMu8x6HxdvrfKgxV8rPnHptd27KZ9ueUgcEH/11VeNYsCDGMwuajBTXyKBFWB77LFHcPrppwfYhhUfFEOGDDH34Q9btvuMPXC8/PLLGy833HBD8NWvfrX9Z8taZJFFjDvuT5gwITK4jy3S3bNS0dmGg+VxHjo65zH4LHFHpxyUpGveeOONYMSIEcYf/KMzBlvy/fCHPwzsRjfu/f3vf4+IsNMlYcFGeFit/53vfCeYf/75I/IxaE5DAiTQHAKiG5qTYqa0HwSwowve01Lepp9++gDtAtfYHZEY7LjlllsCDJz/KTxvHINYeL+mGbw7cV6ThHXBBRe0H3nrrbeCSZMmtd/DOFblrrvuCt5+++00cZH7IjPiyB8kQAKVIrD77rsb/YA6je3TuzFZ9NrGG29swsrSxj7qqKOMf+ixpN0tmqiPyuTpKwM4+1c4zzXXXJHvPdc/jqQSv7Cx/Voek6U8+eRJmL57dCOBKhPodX0HK412KORg1xF7u0fUU+zqh53/YHBsnX0ffTLuyu62x4R/8L/eeutF9I5voUUv9FjeDuuEZLU5VDFdZXKmnk8qMbxHAskENPUTQsrSXtN6f2nJ8RGqol7R6ufRkmNztQcxsW26fMNpDYhnKXd2fNKue9FOQRyKxjtP/S0jX4VjL+tLmfVe0uPaGuVBk79GfNw0+n53Wz7d8pA4II4zhuQB2FiSXtRstdVWAbag+uUvf+ndhuqOO+6IrAD5/ve/7w3SHji2B8Rtz/aB7kcccYR9q+Ma53tLWtGZJZ3xtseHHnooMtiNLZZc4+5jf9BBB7legttuuy3AanuE9+STT0bu2+mS+Ky66qqBvZodZ5CDodyHjfMKaEiABJpBQOp+M1LLVPaLACaYSVmDjclkPmN3RNr+5Rq7qmBS2iGHHBJggNtn7rnnnkhYe++9d3uHFDwrcsTGO3rMmDGZB8TkOV+4dCMBEhh8AjjiCGdBS11eYYUVuo50Fr2Gc1YlLGzTnmYwqVf8w04aIBF/aTLrdL9Mnj5OBx98cCQ/rr76ap834zZ06FDjf5dddjHuWS6ylCefnCaWAx8HutWPQK/rOwhqtEMlJ1Cn7UFv1FVsi26nC26YMPrYY4/JY1777rvvDn7/+98HkIn3BPq1bH0DOehP+uCDDzqe74Uey9NhbUewTukqkzP1vF1qeE0C+Qh0q5/iQsnSXrP1fJH2v5YcX1qqqFe0+nm05AhXjD3ZCzKwA4wYrQHxLOVOwsxqa7ZT4sIsGu889Vc7X+009bK+lFnv7TS510XLgzb/ovFx0+f73W35dMtD4oD4RRddZDoI8OBll13mi4u6mz2zAudw+4w9cFx0QBxnlWMFgcD55je/6Quy7XbCCScYf/CP2RRiXn/99cgKd8ySjTP48MHAuGvsdEH+6quv7h1A+N3vfheJRzdn3rlh8zcJkEA1CIiuqkZsGcsqEsCqOZm4JeUNDQ+f+eMf/xh5H4l/n40tIn/zm990iMEHiM9/kht2TjnmmGM6ZLkOIsN1528SIIFqEEA9l3oM+8ILL+wq4ln1Go4skvCwo1Sacb+Xkiapitw0mXW6XyZPHyfsUiKcYWPgyne81K233hpsuOGGEb/Yfi2ryVqefPIkfr57dCOBKhPodX0HK412qM0ci0Iw8VLqqWtvueWW3h2TbBk4Fs/eWt2Vgd8//elPzWo0+1lc90KP5emwlvjVLV1lcpY8F3a0SYAEshPoRj/FSc/aXtN6f2nJ8aWninpFq59HSw64YoWpPYD5jW98I4JbY0A8a7mLBJzxh0Y7JS4ojXjnqb+a+eqmqZf1pcx676bL/V2kPJTBv0h83LS5v4uUT7c8JA6IH3744ZEPgbjty90IFv291157mXCxEtpn7IHjogPirrLDlqxx5umnnzZxA0x7y3PMMBLAsH/961/HiYl1t9O1wAILxG4NCwU+wwwzmPCwwp2GBEigGQREzzQjtUxlPwjgHFUpZ7DdjwQ7TthGHRPZcKzHuHHjgu233759LMlXvvKV9spwWw6uZ5tttuCJJ56wRbQHyV1/+L3UUku1zy867LDDApxJM3r06Ei8sI27KysiOPwhcl13/iYBEhh8AjhywT4qaJ555vGupsuSkqx6zT5LDnonzZx//vlGz0DfYEepONNEfVQmzzjOG2ywQSRPMDCFY7vwjlp77bUDnNkreWHbeQbEs5YnXxwlTN89upFAlQn0o75rtENt5u+++25g98lIfRUbk2wmTpxoP9Jx7R49KM/aNiaJ4siNjz/+uON5OJStx/J0WEsE65iusjhLXgs72iRAAtkJdKOf4qRnba9pvb+05PjSU0W9gsUQEm/bztvPoyUHXM8++2wTJ+xCZu/Ii/vuGNG9994L51wma7nLJfR/njXaKXHhasQ7T/3VzFc3TVLeXPcyfpdZ79PiW6Q8lMG/SHzS0lqkfLrlIXFA/JRTTjFKAg9eccUVaXHr+v4rr7wSPPzww+1OJGxXJxHFOQ4+Y3+kFB0Q/9WvfmXCQ7g4Hwpuvj8wkLi5TPBhZN975513fFFPdMuSLhGw0EILmfD+7//+T5xpkwAJ1JyA6JmaJ5PJ6xMBbD1pb1U+fPjwYMqUKV3HBjuaLL300uZ9hfKLAQnbYJcTKdewMbjum5yGGYHuWcIYgE8yIjfJD++RAAkMJoGLL744ohsOPfTQriKaR69hQqrojfHjx6eGh+8G8Q/bPQ7JFiD+bLe6X5fJM47d448/3nG8lLBPsg844IA4kRH3POUp8uD/fkgcfPfoRgJVJtCP+p7GK0s7VGT84x//COxVPqirmEAzbNiwiJ6H+9Zbb504Qev4448PfvjDHwY4BmjbbbcN1lhjjY4t0yFnrbXWCtC+dU3ZeixPh7Udt7qlqyzO1PN2qeE1CeQj0K1+ckPJ017Ten9pyXHTgt9V1Cta/TxacnAUl71DsO9o4KID4nnKnS+fk9w02yluOFrxzlN/tfLVTQt+97K+lFnvfWkTt6LlQZt/0fhIunx20fLplofEAfHrrrvOFCA8iG2dtMykSZPaHwb44MAKL4mYa6MT3WeyDBxnPUPc3YrRjUPS7zPPPNNED5104hezQ7oxWdIlcu1zxLN24MiztEmABKpLQPRMdVPAmA8qgX/961+RzjoMjKMtUNRMnjw5mHPOOc07EnLfe+89I/b6668391C+fdvbimccOTLffPMZ/1j1l2RYX5Lo8B4JDDYBTHqVOjxkyJDgxRdfzB3hvHpt2WWXNWGuv/76qeH94he/MP4R16QJsZKWVKE18lAmzyRMGGDC7iJ4R7hnAo8YMaK9+vKaa66JHHeV5RiOvOXJF8cmlgMfB7rVj0C/6nsaybR2KJ7Hbog4L1zqJ9456CjH8Xo4Gm+//faLTBiFP6wuzmOw5ThkujrpRz/6kVdMWXoMgeXpsPZGznKserrK4CzlyMLESxIggYwENPRT3vaa1vtLS44PVRX1ilY/j5ac3XbbzbznR40a5Z3YVmRAPG+58+VznFuZ7RTNeOepv1r56mPWy/pSZr33pQ1uGuVBk79GfOLSqlE+3fKQOCD+yCOPGEWBB7Eqq6h566232udiS0TS7F6sEP/+978fSWdanOz72CZdzHbbbWfkjBw5Upxz2XkGxFdYYQUTHgfEc2GmZxKoNAHRQZVOBCM/cASwCnzhhRc27xWUs7POOkstnvvuu29Etr0C3D3DD1v3JJkdd9zRyBo6dGiSV+Mv0RNvkgAJDBwB90yrb33rW7nj2I1eW3fddY3eWHnllVPDtLfumnnmmRP9N/H9XSbPRNjWTWxJjFWAmLWOgRsx2CJR8gT2tddeK7e8djflySdIwvTdoxsJVJnAINT3OH5J7dC33347sFf3YPXYrbfe2iHqtttuC7BlutRh2Oedd16HvzSHSy65JCID7464rdNFlpYeE3l5OqzlmTS7DunS4ixlJI0Z75MACXQSKKqfummvab2/tOR0Uuntildf+N24afXzaMh56qmnAhyjJPr59NNPb38f4BvB/nO3kb766qvb95955plEBN2Uu0SB1s0y2yna8c5TfzXy1cIUuZR8jjiW9KPMeu+LslZ50OKvFR9fWrXKp1seEgfEMVPSVhZxg9O+CPvccA4gtoSSSMCed9552wPtWH1+wQUXtM9jGjt2rPETF2aWgeOsK8RxdpMdJxSIv/zlL6l/UJi2wZZYIgezi7sxWdIlcjkgLiRok0CzCIieaVaqmdoyCWDliz2rEWXs4IMPVg0SHYZSdmHbK8/vu+++yD2suEwyP/jBD4z/GWaYIfjkk09ivUuYsR54gwRIYCAJ2N8DqMd///vfc8WzW7225ZZbGv2CAZI0k2dCbBP1UZk80/Im7b47Kx4f3HGm2/Lkk9fEcuDjQLf6ERjk+p7UDj3ppJOM3kf9ROd3nMGETnuHQ/RvdWPsvhyEidUv3Zg8esyWn6fD2n4u7bqu6crLmXo+raTwPgnEEyiin7ptr2m9v7Tk+OhUUa9o9fNoyLnssssi73rhmcfGMSw+022588nyuZXVTikj3nnqr0a++njBTfI17r6me5n13hdPrfKgxV8rPm5aNcunWx4SB8QRkUUWWcQUIjz829/+1o1f5t+YUSsRgI0OJAySu+aII44w/nqxZfrll19uwkO8utmOEWk47bTTInLeeOMNN2mpvzkgnoqIHkig8QREjzYeBAGoEMBsvi9+8YuR99eECRNUZNtCMPFNyi5se3Dr3XffjUzAw7swyeyyyy5GFrZP9jjeJAAAQABJREFUTzISZpIf3iMBEhgsAtilauqppzb1fPXVV88VwSJ6bY899jDhQn88/PDDiWGPHj3a+F9vvfUS/TZRH5XJMxF2hpubbLKJyTvskBJnipQnn8wmlgMfB7rVj8Ag1/ekdijO+JZ6iRXgacbWHThjvBvz7W9/24SJsO2dB/PIs+OSpMdcmXk6rN1nk37XNV15OUt5SmLFeyRAAn4C3eqnIu01rfeXlhwfmSrqFa1+Hg05F110UeS9Kzzz2BMnTuzImiLlrkNYjEMZ7ZSy4p2n/mrkawwyk9dx9zXdy6z3vnhqlQct/lrxsdOqXT6lnksYqQPi7ofDKqusIs/mto877jhTILGiCyvQfaaMAXEUzjhz9913m3gB0BVXXBHnNdHdPXP94osvTvTvu8kBcR8VupEACdgEXEVu3+M1CeQhgHMR7e19ULbGjRsXfPTRR3nEZPK71VZbmXftdNNN13Fe0+KLL27u4zrJ2KvZ11lnnSSvRmaiJ94kARIYKAK77rqrqbt52+ZF9Rpm/st7FvYJJ5wQywaD5bbftK1zxW+swBreKJNnEVwPPfRQMNVUU5n8+/GPf+wVV7Q8+YQ2sRz4ONCtfgQGtb6DdFI7dI011jC6YMyYMakZY68E6nZA3G1/v/TSS6nhuh6y6jH3OfzO02Htez7OrY7p6oYz9XxcCaE7CaQT6EY/FW2vab2/tOT4KFVVr2j18xSVg++21VZbLcCRWEl/9mRnMF9iiSXa/jFBG5O2bVO03Nmykq612yllxjtv/S2ar3Hcellfyqz3vvRplgcN/prxQXrLKJ9ueUgdEEckFlxwQfOBAAHjx48PMFIfZ3Duzsknn9zeDv2qq64y3nAGuURgyJAhgW8FNWYnfPnLXzb+iqwQx+C9hJe0sgRnyeHcJvG73HLLmTjnucB5EvZqlhVXXDF2G9cnnngi2HPPPYOXX345EgQHxCM4+IMESMBDQHSV5xadSCAzAezQsummm5p3H8rVxhtvHDtZLbNgj8dJkyZFVoD73u077LBDJC633367R1LQ3qlG6gBsnAmZZMRvkh/eIwESGBwCr7zySjDTTDMZfYDvkKyTdDT0GsIaMWKECX+ppZYK3nrrLS+gzTbbzPjDt0ScP3m4ifpIm+fTTz8d/PKXvwwwQNGtef7554NlllnG5B0marvfZJCtUZ58cWxiOfBxoFv9CAxifQfltHboTjvtZPQBtkN/4YUXYjMHesE+mm/DDTc0ftG/hR0V4SfJYJckTA4VXTD//PMneffey6rHvA+Hjnk6rOuarjg2tnu3nCVvbVm8JgESyEYgj36CRI32mtb7S0uOj1RV9YpWP4+WHB9b2+2BBx4w72cwv/fee+3b5lqj3ImwtO8brXYKwtOMt8TftvPW37LytZf1Rbve97I8aPCvQvl0y0PqgDgK9YUXXhhRBhCCzqFrrrkmeO6550y5x6zWs88+u31PArJXSpx55pkROaeeeqp5FhfYqnyllVaK+ClyhjhWuUk8ZplllshW6K+99lok7EMPPdT4xTPo4Hr11VcjfuTH/fffH+y3337BOeecI07G3nrrrSNyNt988+Cdd94x97EqHumebbbZ2v7++te/mnu44IB4BAd/kAAJeAiIXvPcohMJZCaw/fbbR95XmIyGSXB5zJVXXhkMGzYs2HvvvTtmy0IOGoZoB8w999yRsHw7sWAAXMo2bKy4cc9TvPHGG4PZZ5/d+MN12ooakZknXfRLAiTQPwJYqSv1Fvaxxx6bOTIaeg2Bfe9734vEAVuh2/oR7fn9998/4mebbbZJjaekK9VjzTxo8XTP/jvxxBM7SH3yySfBpZde6u28wj28a9zJ3vgO9Bmt8uTKbmo5cDnwdz0J9LK+a7VD0a8j9RI2VpBhINQ1WBTidhwecsghxptsx4pjB8844wxvfxLasiNHjoyEt9tuuxkZuNDUYxHB1o88HdZ1TVeZnKU8Wch5SQIkkJFAHv0EkVrtNa33l5YcF1dV9YpWP4+WHJer+zvrgLhWucvyfaPVTkFateLtcpPfeetvWfna6/qiVe97XR40+FehfLrlIdOAOFZ8uwO9Igj2nHPOGQwdOjTSqJf7l1xyidSJ4J///GdkBTW2qcMq7oMPPri9RavdyS3PFxkQ/8lPfhKJEzrXMdCNGb0I214JgEFrzMyVcGHPNddc7dVy++yzT3ugGuchLbroosaP75zARx99NJh22mmNH8gBm7XWWqu9LS1Y2WFgtrJtOCBu0+A1CZCAj4DoEN89upFAFgJPPvlk5F0kZQrvr6Q/rJq5/vrrTRAnnXRSRA6229lggw3abQZsmYjzvUW22DvuuKN53r1wt1nEKlFsv4M2CFaV27uwQB6OdUkzEm6aP94nARLoP4EPPvigPRlG6i1WXbuTWONiqaXXIB9b6uE7QOIBe8YZZwzWXHPNYOzYsQHOmLXv4fsAM7nTjDyT5q9u97V4YkKyMISNrfVdg0Es8YNvO3z77bzzzu13EyZwyT2xt9hiC++OXprlyY2jhO268zcJ1IFAL+u7VjsUCyEWW2yxiH7AjobQH+gLOuiggwL0BbnvhVGjRgXYbVDMueeeG5GBdvPyyy/floN3B7ZdlfovNvqmsEuibbT0mMjE8UII2/5D+iQOaPvb93B9ww03yONBXdOlzdkACy+Ere3GaxIggU4CRfWTZntN6/2lJcelVWW9otXPoyXHZWv/zjIgrlnusnzfaLVTNOMNZkXrr3AvI197XV+06n0vy4MW/0Etn5I+2G55yDQgLgKwUnzWWWc1QkSYz55mmmkCbJHubheFwW+ff9tto402Mn5826oiPlkGjl9//fXYgXoMiGNLRtvceeedke2v7Dj5rrF1vM/g7HCsSPc9Y7thsN/dWjFLuiTMFVZYwYRxwAEHiDNtEiCBmhMQPVLzZDJ5JRK4++67zftDylNWG7u9iHFnLybJwGD2dttt19HpJ7JgoyFln2ETJw8djMccc0yACXtpRmSk+eN9EiCB/hO44IILIroJA5lZjZZek/AefPBB76Qe0Sli45w530pCkWPb8ozt1pRrDZ72dxJYYns210yZMiVShoS5a+OdNGHChNh3knZ5suMpcbHdeE0CdSLQq/qu2Q7FMQxzzDFHJv2BOozdj9ydjPDbPopP6nqcjV0XsWjENVp6DHIxYB8XfpL7cccdZ6JV13Rpcjaw/nchbF13/iYBEviUgIZ+0m6vaby/kEItOZ/S6hzQse8N+rVWP4+WnCReWQbENctdlu8bxFejnaIZb436K/lQRr724z2sUe97WR40+Q9a+ZS0ie2Wh1wD4hDy+OOPt7eJwvnYWCkhAsXG9k977LGHd+tUPI/Oa2yrjtXa8gxsDFBjduzEiRPbHeKyynrVVVfFYx3GXv2N1Rpx5p577gnGjBkTCQvhYaDdHayHDGyHiBnACyywQDtOdhxxjYH+ZZddNjjyyCO9W2BJPDAzBKvC4xhh+8f33ntPvBs7a7rwAORL/PAcDQmQQDMISL1vRmqZyjIIYIcUd8cSKVdJNt7VOBtRDLYaxE4w2DHF976DLBwRsskmmwT33XefPJZoYzIbGoG+DkV0VCIsnL2Y1Uh6svqnPxIggf4RwGRaqbOYhPvII49kjoyWXrMDfOKJJwJMgF1ooYVMvCR+0FHYJh0d6lmNPJvVf938FeV50003BcOHD2/nBVZ7/+pXv/Iiwrecu5JT2OOdhJ1M8I2YZMooTxKexEV+0yaBOhLoRX3XboeiDXrUUUcF8847b4fOl3qLIxewMt1d1S15OHny5ACLFbB6XJ6xbUzGweRPbC+ZNLFTQ48hTggjKT123OxrbJNum7qmS4uzzQrXwtJ1528SIIFPCWjopzLaa0XfX5JCLTkir+p6RaufR0uOcHVtjHth7Ae8YWMnYNdolrus3zeIQ9F2ima8NeqvzVU7X/tVX4rW+16WB23+g1Q+7bTh2i0PU/3PMXTPb8LC3wo7qlrhOeKtsNOhFTa0WyNGjMgkCM+GWwu2HnvsMQzKt8Kzw1thx4Z5NtzCvBXONmmFHfat6aabzrjbF2FFboXnk7bDDpWUfavj+oUXXmiFg9StcCvGVvgR0wq3gerw4zogDuEMh3Y8wxXf7biEHzatsAPM9Rr7WxghbMgIJwy0wjOlYv3jRtZ0QXZ4dmornDzQjluiUN4kARKoDYFwULKdlv/q9NokiwmpOAG8j/HOfPHFF1thQ6jdHgg7/FrhCpquUgZ5aCeEHyTtd304ua0VblOcWxbrS25kfIAE+kYA77VwB6dWOGm1FQ58tsLdIPoWFzdgtLnDWfUttL/Dib0t6Lc83wSQR330KdVueYYDYK2nnnqq/T2X9P2HsoT3B/y+8cYb7e9F5Nk888zzaST6dMVy0CfwDLZvBMqu70iYdjs0XK3UeuaZZ1rPPvtsC7oGfUj4Q59OVhNOmGqF25O2YIcD4e1+oIUXXjjzu21Q9Vjd0lUGZ+r5rLWE/khgsAl0+/5yU6Uhpy56RaufR0uOm1f4LWNS4UTa3N97Pnlpblm/b2w5Gu0UW96gXGvl6yDUl27rfT/Lgxb/QSufbnkoNCA+KJWF8SABEiCBJhFwFXmT0s60kkBeAqwveYnRPwmQQFkEqI/KIlstuSwH1covxpYESIAE8hKgns9LjP5JgATSCFCvpBHifRL4lADry6cseNW5MIED4iwVJEACJFAxAnyxVyzDGN2+EmB96St+Bk4CJGARoD6yYDT4kuWgwZnPpJMACTSCAPV8I7KZiSSBnhKgXukpbgZWcQKsLxXPQOXou+WBA+LKgCmOBEiABMom4CryssOjfBKoMgHWlyrnHuNOAvUiQH1Ur/zsNjUsB92S43MkQAIkUA0C1PPVyCfGkgSqRIB6pUq5xbj2mwDrS79zYLDCd8sDB8QHK38YGxIgARJIJeAq8tQH6IEEGkyA9aXBmc+kk8CAEaA+GrAM6VN0WA76BJ7BkgAJkECPCFDP9wg0gyGBBhGgXmlQZjOphQmwvhRGWCsBbnnggHitspeJIQESaAIBV5E3Ic1MIwl0S4D1pVtyfI4ESECbAPWRNtFqymM5qGa+MdYkQAIkkJUA9XxWUvRHAiSQlQD1SlZS9EcCnWdGk0mzCbj6kwPizS4PTD0JkEAFCbiKvIJJYJRJoGcEWF96hpoBkQAJpBCgPkoB1JDbLAcNyWgmkwRIoLEEqOcbm/VMOAmURoB6pTS0FFxDAqwvNczUAklyywMHxAvA5KMkQAIk0A8CriLvRxwYJglUhQDrS1VyivEkgfoToD6qfx5nSSHLQRZK9EMCJEAC1SVAPV/dvGPMSWBQCVCvDGrOMF6DSID1ZRBzpX9xcssDB8T7lxcMmQRIgAS6IuAq8q6E8CESaAgB1peGZDSTSQIVIEB9VIFM6kEUWQ56AJlBkAAJkEAfCVDP9xE+gyaBmhKgXqlpxjJZpRBgfSkFa2WFuuWBA+KVzUpGnARIoKkEXEXeVA5MNwlkIcD6koUS/ZAACfSCAPVRLygPfhgsB4OfR4whCZAACRQhQD1fhB6fJQES8BGgXvFRoRsJ+Amwvvi5NNXVLQ9ThSCCpsJgukmABEiABEiABEiABEiABEiABEiABEiABEiABEiABEiABEiABEiABEiABOpH4IEHHmgnigPi9ctbpogESIAESIAESIAESIAESIAESIAESIAESIAESIAESIAESIAESIAESIAEGk3ADIgHoWk0CSaeBEiABCpGwN3qo2LRZ3RJoKcEWF96ipuBkQAJJBCgPkqA06BbLAcNymwmlQRIoJEEqOcbme1MNAmUSoB6pVS8FF4zAqwvNcvQgslxywPPEC8IlI+TAAmQQK8JuIq81+EzPBKoEgHWlyrlFuNKAvUmQH1U7/zNmjqWg6yk6I8ESIAEqkmAer6a+cZYk8AgE6BeGeTcYdwGjQDry6DlSH/j45YHDoj3Nz8YOgmQAAnkJuAq8twC+AAJNIgA60uDMptJJYEBJ0B9NOAZ1KPosRz0CDSDIQESIIE+EaCe7xN4BksCNSZAvVLjzGXS1AmwvqgjrbRAtzxwQLzS2cnIkwAJNJGAq8ibyIBpJoGsBFhfspKiPxIggbIJUB+VTbga8lkOqpFPjCUJkAAJdEuAer5bcnyOBEggjgD1ShwZupNAJwHWl04mTXZxywMHxJtcGph2EiCBShJwFXklE8FIk0CPCLC+9Ag0gyEBEkglQH2UiqgRHlgOGpHNTCQJkECDCVDPNzjzmXQSKIkA9UpJYCm2lgRYX2qZrV0nyi0PHBDvGiUfJAESIIH+EHAVeX9iwVBJoBoEWF+qkU+MJQk0gQD1URNyOT2NLAfpjOiDBEiABKpMgHq+yrnHuJPAYBKgXhnMfGGsBpMA68tg5ku/YuWWBw6I9ysnGC4JkAAJdEnAVeRdiuFjJNAIAqwvjchmJpIEKkGA+qgS2VR6JFkOSkfMAEiABEigrwSo5/uKn4GTQC0JUK/UMluZqJIIsL6UBLaiYt3ywAHximYko00CJNBcAq4iby4JppwE0gmwvqQzog8SIIHeEKA+6g3nQQ+F5WDQc4jxIwESIIFiBKjni/Hj0yRAAp0EqFc6mdCFBOIIsL7EkWmmu1seOCDezHLAVJMACVSYgKvIK5wURp0ESifA+lI6YgZAAiSQkQD1UUZQNffGclDzDGbySIAEGk+Aer7xRYAASECdAPWKOlIKrDEB1pcaZ24XSXPLAwfEu4DIR0iABEignwRcRd7PuDBsEhh0Aqwvg55DjB8JNIcA9VFz8joppSwHSXR4jwRIgASqT4B6vvp5yBSQwKARoF4ZtBxhfAaZAOvLIOdO7+PmlgcOiPc+DxgiCZAACRQi4CryQsL4MAnUnADrS80zmMkjgQoRoD6qUGaVGFWWgxLhUjQJkAAJDAAB6vkByARGgQRqRoB6pWYZyuSUSoD1pVS8lRPulgcOiFcuCxlhEiCBphNwFXnTeTD9JJBEgPUliQ7vkQAJ9JIA9VEvaQ9uWCwHg5s3jBkJkAAJaBCgntegSBkkQAI2AeoVmwavSSCZAOtLMp+m3XXLQ6YB8Xvuuaf16quvtuaYY47Wsssum5nZgw8+2Hr++edbs846a2v55ZdvTTPNNJmf/c9//tO6/fbbW5MnT2699NJLrZlnnrk177zztlZcccXWXHPNlSjn3nvvbb388sut2WefvbXccsu1JNGJD6XcfO2111r3339/C/FCXMBhhhlmSHmKt0mABEhAn4DotCAI9IVTYmUJTJkypXXbbbe1UC4+97nPtRZddNGu0lJUziuvvNK677772u/MDz74oLXIIou0Fl988dZSSy3VVXzw0Pvvv9/Cu/3tt99uTTfddK2FFlqotcACC2SSx/qSCRM9kcDAEHjzzTdbf/nLX1rPPvts+xsA7f7FFlusteSSS7bmmWeeXPF88cUXW7fcckv7e+Sdd95pjRkzpv0tMffcc/dFDvXRf7Fr5UuWTMQ78emnn2499thjrUcffbT9Tbvgggu2301LLLFEa9iwYYli8A2M+GYxKKtzzjlnqleWg1RE9FBDAkXbl1mRaOkXDTlF9Y8vzZocu21fa6Xrvffea7+jn3rqqRbShXf86NGj2+/7NN3sYwM36OyHHnqo9fDDD7d19yyzzNJaeOGFWyuttFIm/Sxyi3KmnheStEmgfwSK1GPN7xGbQLd6FzIGRa8U4ar1/gCPbvqdPvnkk9YjjzzS7jODjDzms5/9bAvvlDij0W6Iky3uWt8lWnIkXmXUl6Lv837XlyqVB8lH2Brx1qrnWnKQro7yEApPNHfccQdGXMxfODie6F9uhgPS5hk8f+WVV8qtRDss8MGECROCcBA98rzEIUxAEA6KBxdddFHw8ccfd8gKB60jz/35z3/u8NONQ9gwj8jdYostuhHDZ0iABEigMAHRh4UFUUAtCISN+uCMM84IZpttNvOe+tKXvpQ7bUXl/OlPfwrCQSsTBymnYiNO4US33PEKJ6IF4WB6h9ywoyuTLAk/k2d6IgES6BsBfHNssskmQTjppaO+ox5PPfXUwY477hiEnTCpcXzrrbeCcePGBdNOO61XVjggGpxyyik9kyMBNV0faeWL8EyzJ02aFISDIN4ygLwYMmRIsPfeewf4/vSZcJAmtgxJXtr2qFGjfGI63OSZjht0IIEaEijavsyKREu/aMkpqn/cdGtz7LZ9rZGucOJssOWWWwYzzjijVz+HC2mCPffcM0BeZDU333xzEC6G8cqDzoXM3XffPVWcFmfq+VTU9EACpREoUo81v0fcBHard0VOv/VKEa5Ig8b7A3KK9Dudd955se8J4Rtnjx07FsF3GK12Q4dgx0Hru0RLDqJXRn3Rep9LPjoYS/9ZtfIgQLTirVXPteRI+tzygFkxiebWW2+NKIu77ror0b/cDGcURJ67/PLL5VasjbDQQSWRTLPXWmut4N13343I+8c//hF5/qabborc7+aHywDxmn766WM7T7oJg8+QAAmQQFYCohuz+qe/+hIIV0AEq6++euS9h/IBtzymiBx8GO21114BJqxJ2Yyz8e4MV2vmiVpwzDHHeOXifZ/FSFyy+KUfEiCB/hD4+c9/3h7wlvqaZONb4Y033oiNaLirU7Dyyit79YYr9/DDDy9djh2AhG+7NeVaK1+y8jr66KMzlQHkSbijinfg5cYbb8wsA3LC1eGZotfkcpAJED3VhkCR9mUeCFr6RUuOhv6x018Gx27a1xrpOuuss9qD06IHk+xwZXfw+uuv2yg6rjHAhMH1JDlyL9xxsuN520GTs4Rpy+c1CZBA+QSK1GPN7xFfSrvRu7acfuqVIlyRBo33h0a/03HHHZfpfSGsbXudddaxs6N9rdVu6BDscdD6LtGSo11fNN/nwCd550FZmlMVywNgaMVbo54jPlpyIEuMWx4GZkD8pJNO8s7AD7eeC9Zff/0AK8vCLZRMgZaEXHfddZK2tl3GgPiuu+7aES7C/9nPfhYJmz9IgARIoBcERP/1IiyGMZgE0FjEQA5Wt0l5sO2sA+IactxZtojTVlttFeBjY//99+9YrYEBA0yay2Kee+65INyWyptGDohnIUg/JFANAmussYap51jFtd5667VX7u63336BfU/03A477OBNGAbK3RVi4bar7c7yQw45JPj617/eMXnn2GOP7ZClJccVLPF33ev+uyyecdywG4m9OwDeSzvvvHNw7rnnBhdccEGw7777BuHRWqbMIV98ZcrtMJp//vmDpD/scpbFNLUcZGFDP/UgoNG+zEpCS79oydHSP0h/WRy7aV9rpWvVVVeN6N5wC9p2fx/6/PCNIPpRbJ9utssG7otf2ND92BkEk3XRX4fvpQ033LD9zTRy5Ej7UXNdBmeJkwmEFyRAAqUS0KjH9jdHke8RX0K70buunH7oFQ2uWu8PjX6nv/3tb8F8880XhMdnpf4NHz488n7BTma20Wo32DKTrrW+S7TkaNcXjfe5za/X9aWq5UEr3lr1XEuOXRZw7ZaHgRgQf+CBBzpmia699tpBeK6DG//2yjI0aCUh7lbs2gPiUP6+hjnCX2211TriRwcSIAESKJuA6L+yw6H8wSQQnssdLLvssuY9iPKAAR+svpaykWVAXEMOttXBagsJF+9LfGTYBu/RzTff3PiB3yOOOML2EnuNgXWRPdNMM5lruIVnisc+Z9+Q5203XpMACQwWAez6hC3R8SGMbdxcgxnoUpdhDx061PXS/n3qqadG/I0fPz746KOPIn6xzZ6tLzHAiRUHttGSY8vEtaTBda/777J4xnH75je/aVgjr307nGFiFjrEJE/mmGOODnF2hxF2HdAyEqaWPMohgUEioNG+zJMeLf2iJUdL/5TJsZv2tVa6ZGcrLHj5wx/+EMnqt99+O9hmm22MXhZdieMYfQarzcUPbOwg8+ijj/q8Bu+88473yJWyOEu8vJGhIwmQgCoBrXqs9T3iS1w3eteV02u9osVV4/1Rdr+Tyxq/L7vsssg7Bu8c22i1G2yZSdda3yVacjTri8b73GXX6/pS1fKgFW+Neo481JKTVh4GYkB8o402iigZdIahAz3JYAt2DEi7g+baA+K//vWvTdywuuB73/ue+Y3tYZ944omkaPIeCZAACagT6PWLXT0BFFiIADp6pAzgPbT99tsHL730UvC1r33NuGc5Q1xDjjtLN27nlA8//DAycI7VIO4AlAvlz3/+s0kP0omVfZJu2BwQd4nxNwlUl8Cdd94Z3H///YkJwDZ1tg54+umnO/yvuOKKxg/Oc0bnic9gUo4tC/rGNlpybJm4ljBd97r/LotnHLcll1zSsMbgSpzBDmWSJ7CfffbZiFetDqOI0PCHhOm68zcJ1IGARvsyDwct/aIlR0v/lMWx2/a1Vrqww+NVV10Vm8UYgFl88cWNnoS+xEQ213z88cfBQgstZPzhmcmTJ7veUn+XxZl6PhU9PZCAGgGteqz1PeImrFu968rptV7R4qrx/iiz38nlLL+/8IUvmHcMJs66R/ZqtRskvDRb67tES45WfdF6n7v8el1fqloetOKtUc+Rh1py0spD3wfEb775ZqNgUFiREUWM9oD4FltsYeI3duzY4J///Kf5jfgmnT1YJB18lgRIgATiCPT6xR4XD7r3h8ALL7zQfg9hO0BsJyMm74C4hhxsOyvlEVuboxMrzuy5557GL555/PHH47y2V3R+/vOfN/632267ALvJSFiwOSAei483SKCWBHAEg60D8BFumwcffDByHx0ncebf//53ZHeqnXbayXjVkmMEWhcSf8up9pdl8oyDN+OMM5qygG1z48w555xj/CFv3EkWWh1GbvhNLAcuA/6uLwGN9mVWOlr6RUsO4q2lf8rgiB1Tum1fa6UrS97us88+Ed2MXWJcc80110T8uDtHuv7jfpfBGWFRz8cRpzsJ6BMoqx77Ypr2PeI+U0TvurJ6rVe0uGq8P8rqd3IZy++//vWvRo+DO47xso1mu8GWm3St9V2iJScprnIvS33Rep9LmGL3sr5UtTxoxlujniPvtORIORDbLQ99HxB3V3skzRaVRCTZmgPir7/+ejDDDDMYJXjppZe2g1566aWNG1af0JAACZBALwm4iryXYTOswSDgO4M774A4UlJUzqabbmreh8sss0wiHGylLmUXdlLH1SmnnGL84pzXKVOmcEA8kS5vkkD9CWy77bZGL0CHYGcM2xx22GGR++7gpu0X16ussorxj5VlYrTkiDzbFh1ou9X9ukyecexGjx5t8hZnymPlgc9897vfNf5mnXXWjp1LyuowamI58PGnW30JFG1fZiWjpV+05CDeWvoHsrQ5Fmlfa6YLaUsyRx99tNHN0JcTJ07s8I4jUUSXYucp93iUjgcSHLQ5IyiJW0KwvEUCJKBIoIx67Ite2veI+0wRvevK6ode0eCq8f4oq9/JZSy/N9tsM6PHp5122o5dpDTbDRJmmq31XaIlJy2+uJ+lvmi+z+049bK+VLU8aMZbo54j/7Tk2GUB12556PuA+PDhw02kllhiiY6OCDcBab81B8TtVQMzzzxz+9whhO820O+44460aPE+CZAACagRcBW5mmAKqjSBbgbEfQnOI2fNNdc07/C0HV5khrGU3yOPPNIXfHvwG4Pg4u/kk09u++MKcS8uOpJAIwhg8Hvuuec2euEzn/lMR7qxk4TojZEjR3bcdx1s/8OGDTO3bfcicoxA60LiZznV/rJMnnHwcPyWsIaN1QmuwfaV00wzjfG32267uV6CsjqMJG4dAdKBBGpMIE/7MisGLf2iJQfx1tI/cQy65YjJpUXa12Wny07vrrvuanQz9KV71jj8LrroosbPAQccYD+uct0tZwmcel5I0CaB/hEoWo/dmGf5HrGfKap3bVm4HhS9kperxvujjH4nl6/8xk6GU089teGNnYNdo9lucGXH/db6LtGSExdPcc9aX8p6n/eyvlS1PGjGW6Oeo+xoyZFyKLZbHvo6IP7qq68aBYOI7bzzzhLPrm3NAfG11lrLxO8b3/iGiRNWnOA8U4G5++67m3u8IAESIIGyCYjuKTscyq8WgbwfJnGpyyMHZ7NKeZxrrrkSJ7X95z//MX7xDLZD9Bm7UYZtHWXFBwfEfbToRgL1J4CP6fXWWy+iP0488cSOhG+88cbGz7rrrttx33U46qijjH+060XXaMlxw8Nv0Ze+e3V1K5NnHDOcBW5vtwbum2++eYCt8mGw65d9f/755+/YcQD+7A4jTI645ZZb2gMzOM8WnWUffvghvOU2TSwHuSHxgdoRyNO+zJp4Lf2iJQfx1tI/cQy65Vi0fV12uiS9n3zySYAV36Inp59++gD9hrZ54403Iv1xF1xwQfv2W2+9FUyaNCm4/PLLg0suuSS46667grffftt+NPN1t5wlAIm//KZNAiTQewJF67Ed46zfI/YzRfWuLQvXg6JX8nLVeH+U0e/k8pXfGOMR1rCxfbprNNsNruy431rfJVpy4uIJ96z1pcz3ueRhUjy17lW1PGjGW6OeIz+05Lh565aHvg6I4+xTiRBsrLwuarQGxJ955plIIxtnGthmtdVWM3EfMWJE1x0itkxekwAJkEAWAqI3s/iln+YQyPthEkcmj5yDDz7YvAtRLq+++uo4sW33oUOHGv+77LJLh1/suGJPOMMKPjEcEBcStEmgvgTuvvvu4Pe//31www03BDgz9Pvf/35g6w3oGWyZ98EHH3RAWGmllYx+wTZ3aQby5X0KGx/uMFpyfOFLeL57dXUrk2cSM5Qhe9Ab7LEtuh0fuGHg5bHHHvOKsjuMJO9sG1soLrLIIsEhhxwSYCAmqxEZWf3THwnUgUCe9mXW9Nr1eZD0vob+iWPQDUet9nWZ6ZL0IgzRkbC/+tWvyi1j33PPPRE/e++9d4CJcNDJ9rO4xnfFmDFjvAMaRqDnohvOthiJh+3GaxIggd4S6LYeF/kekRRq6V2RB3tQ9Eo3XIu+P7T7nWyu9vVrr70WzDLLLIb1CiusYN8211rtDyMww4XWd4mWHIlykfpS5vu8l/WlquVBO95F67mUKS05Ig+2Wx76OiB+0UUXmQghYpdddpkd166utQbE7VUj2FrK7Xg7/fTTI3G/9tpru4ovHyIBEiCBvARcRZ73efqvJ4FuPkx8JPLIwWo5KY+wMbCAs8Jdc+uttwYbbrhhxC+2Q7QNVoTYDTJ7Zxb444C4TYvXJFA/Am+++WZkC2tbt8j1T3/6U7OS2yWw4IILGh0zYcIE93bHb/c75MEHH2z70ZLTEWDoIOnw3aurW5k805hh8jUGQoS7a2+55ZYdKw9tmX/84x9jn3VlYUv/3/zmN/bjsdfybKwH3iCBGhLI077Mmnwt/aIlx453Uf1jy7Kv83LUbl+XlS6kEbtJ4RhF0ZGw0SnqGkyYtf1kucb2t8ccc4wrKvZ3Xs6uIImT687fJEACvSPQTT0u+j2C1GnrXSE2KHqlG65IQ5H3h2a/k/D02XhPCGfYF154oc9bUEa7wRuQ5aj1XaIlB1ErWl/KfJ9LPloIS7usankoI95F6rmdQVpyRKZbHvo6IH744YdHFM3NN98s8eza1hoQX2qppUzcvvOd73TEB6tI7Bmobsd9xwN0IAESIAElAq4iVxJLMRUn0O2HiZvsvHI22GAD875E2cSZrMsss0wwbty4YO211w5w1q+UWdt2B8TPPvts4w+zcp977rlI1DggHsHBHyRQOwLuUUq2vpBrDDpi0urHH3/ckX77bFScPZVmzj//fKNzIP+hhx5qP6Ilxxe+pMN3r65uZfJMY/buu+8GBx54YCSfJQ9gYxLXxIkTY8WgTGIruXXWWaf9Ttt+++0DTLb4yle+0l4ZbsvC9WyzzRY88cQTsfLkhjwnv2mTQBMI5G1fZmGipV+05NhxLqp/bFn2dV6O2u3rstKFNB555JERfR3Xx4bJR6JHbRt9ePi+OOyww9pnUI4ePTriD9uvZ9HRiEteznjGNhIv243XJEACvSXQTT0u+j2CFGrrXaE2KHqlG65IQ9H3h1a/k/B0bRyFhGOUhPM888zTsThSnimj3SCy42yt7xItOYhn0fpS5vtc8jGOp6Z7VctDGfEuWs8lX7TkiDy3PPR1QPyUU04xigYRu+KKKySeXdsaA+Lulg3YutFnbGU800wztWfG+PzRjQRIgAQ0CbiKXFM2ZVWXQLcfJm6K88rBOarLLbdc5H0uZTTJPuCAA0zQ2JoKZ5CLf98RKhwQN7h4QQK1JXD88ccHP/zhDwNsf7rtttsGa6yxRseW6dATa621VnslmQ1igQUWMDpk/Pjx9i3vNc6RFp0D+8knn2z705LjC1TC892rq1uZPJOY4ZvQnvUO9pigNWzYsEi+w33rrbeO7fBKCuN3v/tdsPTSS0fkYSJYmmliOUhjwvv1J5C3fZmFiJZ+0ZIjcS5T/+ThqN2+LjNd2MLVXnAyfPjwYMqUKYI0Yl955ZURvYtJSzgv3DVYce6eBYuJTVlMHs4+edTzPip0I4HeEui2Hhf5HtHWuzaxQdEr3XDVeH9o9DvZPN3riy++OPJuOfTQQ10v5rd2u8EILnDR7XeJG2ReOUXqS5nv817Wl6qWB+14a9RzlEctOXbZdstDXwfEr7vuuoiywTaIRQ2gSSJh33TTTblF7rXXXkYGVqJ89NFHXhnYOsMO67zzzvP6oyMJkAAJaBIQvaMpk7KqT6CbDxNfqruRgw4nrMbAynD3zNYRI0YEmEB2zTXXBEOGDDHvTXvbwt122824jxo1yjswwQFxX27RjQTqTwBbsWGSjKtbfvSjH0USv+yyyxo9sv7660fu+X784he/MP7xXn3nnXfa3rTk+MJs4vu7TJ4+xnDDrmM4L1x4492DMvT+++8Hr7/+erDffvtFBl7gD++pbszkyZODOeec04SFAZ333nsvUZTEK9ETb5JAzQh0075MQ6ClX7TkIL5l6588HDXb12Wm61//+ldk8hv0KPoK48z1119vdC70qe+4JnkWRx/ON998xj++VbKYPJx98qjnfVToRgK9JVC0Htuxzfo9oql37fBxPSh6JS9XzfdH0X4nl6n9e/nllzeM8e3w4osv2rcj15rthojggj+6+S7xBVlUTtb6Uub7vJf1parlQTPeWvVcS45brt3ykDogfttttxmFgIfjVku7AWHmjgQGG7M+XPPII49E/GD2ZlFTdEAcg9/zzjtvJF5Y+eb7W2yxxSL+vvzlLxeNPp8nARIggVQColtTPdJDowjk/TCJg1NUDrYyRhsA72M0hMVgC3Qpu7Cvvfba9q2nnnoqcm7w6aef3n4eMuw/dzulq6++un3/mWeekSC8toTpvUlHEiCByhC45JJLIjpk5plnjmydvu6665r7K6+8cmq67K1ZIUuMlhyRZ9tN1Edl8rTZyvXbb78d2LPdsfvIrbfeKreNjW9cbJkueQK728nN++67b0SOb6WiCTi8kDBtN16TQN0JFG1f+vho6RctOb3QP1k5aravy0wXVoEvvPDCRi9CP5511lm+7DZu7lmy+EZIMjvuuKORP3To0CSv5l5WzuYB54J63gHCnyTQBwJF67EvyknfI5p61xf2oOiVPFzLfH/k7XfyMRU39yzrb33rW3LLa2u1G7zCCzrm/S6JC05DTlJ9Qbhlvs97WV+qWh604q1Vz7Xk+Mq0Wx5SB8SfffZZ03jEw2eccYZPbocbtjySwGBjG3LXYGYPzhoVf5///OddL7l/Fx0Qd+MtcctiTz311B1nnuZOAB8gARIggRQCoo9SvPF2wwjk+TBJQqMlxw3Dnf0p2yBedtllph0gZTuvjW2d4ozIirtPdxIggeoQWGGFFSL6AqvKxGy55ZbmHgZE08x2221n/I8cOdJ415JjBFoXTdRHZfK00JrLk046yeQreGPyVJzBwDXOlJV8wVb83RgMpIsM2EkrGyFf/HYTFp8hgaoSKKN9qaVftOT0Qv9k5ajZvi4rXdixw16dBN148MEHpxbx++67z+hRPIMdX5LMD37wA+N/hhlmCD755JMk7+17WTnHCaKejyNDdxLoHYGi9TgupnHfI5p61xf2oOiVPFzLen/4+IhbXL+T3PfZY8eONe8JcP773//u82bctNoNRqDiRd7vkrigteTE1ReEW+b7vJf1parlQSveWvVcS46vTLvlIXVAHELsLef23HNPn9wOt9NOO80oEwwUx20dt8giixh/iNxvf/vbDll5HIoOiOO8QoHUjX3sscfmiS79kgAJkEBuAqKbcj/IB2pNIM+HSRIILTluGJtssol5v2IliJiLLrrIuEvZzmtPnDhRxHXYIqvjBh1IgAQqR+Db3/52RF/ccccdJg177LFH5N7DDz9s7vkuRo8ebfyvt956xouWHCPQumiiPiqTp4XWXNrfclgBnmbsdxPOGO/G4NgvyVvYaZ1o4rebsPgMCVSVQBntSy39oiWnF/onK0fN9nUZ6cIqoC9+8YsR3TlhwoRMxfvdd9+NLKw58MADE5/bZZddTDjYPj2Lyco5Thb1fBwZupNA7wgUrcdxMY37HtHUu76wB0Wv5OFaxvvDx8Z2s9v2dr+T7ce+xu7FGLcSvquvvrp923ut1W7wCi/omPe7JC44LTlx9QXhlvk+l/yMS5+me1XLg1a8teq5lhxf3rrlIdOA+EorrWQUw/Dhw4PXXnvNJ9u4YduKpZde2jyDQe8441awVVZZJc5rJvciA+I4O3CWWWYx8UalxZlDSX+vvvpq5ExDpJuGBEiABMok4CryMsOi7OoQyPNhkpQqLTl2GA899FAw1VRTmffrj3/8Y3Mbg1arrbZagC2Ok/7swSvUgSWWWKLtHx8s+IiJM6wvcWToTgLVI2Bv64W6/dJLL5lEYKcIqe+wTzjhBHPPvYDesf3aW2VryXHDxG8J03evrm5l8vQxW2ONNQznMWPG+LxE3OyZ8d0OiG+11VYmzOmmm6797RgJxPnRxHLgIODPBhIoo32ppV+05PRC/2TlqNm+1k7X+++/H7jv83HjxgU4vjCrWXzxxY3exXWSsVehr7POOklezb2snM0DzgX1vAOEP0mgDwSK1uO4KLv6S75HNPWuL+xB0St5uGq/P3xcbLekfifbn3296667mvcJGF9xxRX2be+1VrvBK7ygY97vkrjgtOTE1RcJt6z3eS/rS1XLg1a8teq5lhwpW7btlodMA+K77bZbRDlghmWSsVeHI0AolziDxvCCCy4YkT9+/PgAM0bjDAbcTz755PZZ31dddVXEW5EBcawwE0Cwb7jhhojsuB+Ir/0ctnygIQESIIGyCIi+KUs+5VaTQJ4Pk6QUasmRMJ5//vlgmWWWMe9JbFX48ssvy+3M9gMPPGBkoA7ce++9mZ5lfcmEiZ5IoG8E3njjjfYOUR9++GFiHLDqFoONUqfnn3/+iH90pI8YMcLcX2qppYK33nor4kd+bLbZZsYfzg+3/WnJkbBsW+Juu9X9Wpvn008/Hfzyl78M0OHlMzvttJPJW2yH/sILL/i8td1Q5pZccknjf8MNN4z1G3dj0qRJkZWKWSZHN7EcxPGje3MIdNO+TKvvWvpFS04v9E83HJNKWZb2tWa6oHc33XRTo3ehDzfeeOMAxynmMTvssENExu233+59HDtQis6FjTNRs5iinCXMLGHRDwmQQDkE8tRjre+RLCnJond9cgZFr+Thqvn+8DGx3brpd3rllVeCmWaaybwnMD6FNkGa0Wo3SDhp7R3xl2Z3813ik5kmR7O+lPU+72V9qWp50Iq3Vj3XkuMr0255yDQgjo7rueaayygICEGHAc4Xt82bb74ZYLDcXgU299xzp64ov/DCCyOyIR+dWNdcc03kTG7Mujr77LPb9yQh9ooOxMUdEL/22mvbWzBgGwbfn935tsEGG5h4zDnnnIF9z06ne414Snxg77PPPq4X/iYBEiABNQKib9QEUlAtCOT5MElKcB45OIPv0ksv9Q5O4x46p9xJb4ceemhS8LH3qv7hGJsw3iCBhhOQ7QWxo9QZZ5wRYPcl19x4440BzvmW9x9sTNh1zfe+972IH2yFjsm3YtDhvv/++0f8bLPNNnLb2FpyjMD/XUj8Xfe6/9bi6Z7NeOKJJ3agO+eccyL5ix1I0EHmGky+djtgDjnkEOPtyiuvDIYNGxbsvffe3l1I0IGA71B860q+ws6yqkT8m8B4QQINIJCnfQkcWeo7/GnpFw05WvoH6YozeTnGyRH3LO1rzXRtv/32EZ355S9/OfKelnil2fjGEF0KGzt8/Otf/4o8hrbD7LPPbvzhWlZyRjx6fhTlLHHziKYTCZBAjwjkqcea3yNpycuid30yBkWv5OGq9f4oq98JOxcKV9h5jsHVaDcgn7O0d7S+S7TkaNaXst7nkq++ulSGWxXLAzhoxFurnmvJ8eWvWx4yDYhDkLt6WgThbDYsaV900UUjs+PlPjrK0wxWfG+99dYRJSTPw8bg9NChQ733L7nkkoh4d0DcluO7RicGzL///e9I/DErIavBluroMBH5WLGCNNGQAAmQQBkERNeUIZsyq0EA2/1hy3D7b8iQIeY9NO2000buwZ9v15OicjDIIOUR7z6sutx5550DTDCz34viZ4sttgjwMdONqfqHYzdp5jMk0AQC5557rtEj0BVY1bv88su39cnYsWPbukx0iNhY1YuJrq7BVoXuJN4ZZ5wxWHPNNQPIwneLyICN7xfMyHeNlhxXroTtutf9txbP/fbbL5J/vl3IMKFiscUWi/jD+xHvJ0xaPuiggwIci+WWk1GjRgWY3C3mpJNOisjAdn54t+GbFVv/4RxayU+xd9xxR3k80Rb/iZ54kwQqTKBo+xJJz1Lf4U9Lv2jI0dI/SBeMBsf/Sor/n6V9rZWuJ598skNvQh/iuyXpD+2C66+/viMR7jasWOWHvknoaezWYZ8Ji3BwXKPPlMGZet5Hmm4kUB6BovVY83skLZVZ9K5PRj/0SlGuWu+PMvqdMJaDyVTCFbuGpR0RbOeLRrsB8rK0d7S+S7TkaNcXrfe5nT+Sr7ZbmddVLA/goRFvrXquJceXz255yDwgDmGoOLPNNptRFiLMZ2PLQswYyWOwUnzWWWfNJH+aaaYJdt99945V3Niu3BefODds3YrB61NPPTXy3E033ZQn6h0rDG6++eZcz9MzCZAACWQlIPosq3/6qxcBdNhLGchjH3fccREQGnKmTJmSKS7okJowYYJ3ACsSqYQfVfpwTEgGb5EACTgEsKILHRBZ9Rl2kfrnP//pSPn054MPPugdrHTljx492rtyWCRpyRF5sCUOtltTrjV4HnjggYYhWMZNYMZ26nPMMUfEr7D32Zgg7a4sdFdr+J4TN7zjtttuu8zvOHmuKXnPdDaLgEb7EsSy1nf41dAvWnI09A/iosURspJM1va1RrruvvvuzHpZ9KTYZ555Zkcy0HFqnz0qfl0bA+rHHHOMd9FKWZwlDv/f3nmA3VFUfXzpoQuhJIAQQg09NKkiIAhIBKUEKZFIE5AqNYAgKNIhoEZEukiR+qmAoDTpLQKhhhJIQkkoCZDQ2W//q2eZnTvbZ+/d8p/ned/Zuzt75sxvZs7u7LQOpXmCBEjAOgEb9dh2eyQukWntri6j23bFBlekwcbzo4zvTpdddlnomYSJHVmdjfePNO87ttoltuTYri82nud63nW7viD+upUHYWZDbxv1HPrYkiNpE18vD5k6xCEE+7ANGzYstEefCMVS6QMGDPBnh6Ew53EvvfSS37m81lpruZjRIbLFx3KJBx10kHHpOsSH5esGDx7ccZ/cr/uYKQKHGQNyDbNFss7wvv/++0MjUC+99FJfLv+RAAmQgG0CYqtsy6W8ehDA86l///7BM0vKQ5KvD1KzJQez7fSZdqILBtFhRt3o0aMLw8X7AQbDQTb8sWPHppIpuqQKzEAkQAI9ITBhwgR3xIgRLmbpSp1VfXQ44qM3ltFK847+8ssvu0OHDvXbJaocHKPzHcuk48NKkrMlR+IRXeR32/yiPDFguW/fvn4ZwSokN9xwQyTCKVOmuKecckrs8xJbemDAt2m1AaxmgpXIsOy+qU2KvMQzbsiQIS4GZGdxbS8HWVgxbP0I2Hq/zFLfQamofRHSNuQUtT/QxRZHSVeUn+X9umi6sBUjVn8UG5jWx3dG7AVuctAJnQmmgXUYGAUb/vjjj5tu9c+VxVnSFhkxL5AACVgjYKse226PRCUwi91VZXTbrtjiijQUfX5Ahu3vTphkKUwxOfOFF15ANJld0feGNO87ttoltuQAku36UvR5rmec5K1+vuzfdSoPKouiekOWjXpuU46aPr08zICL3slczltKwvFGEThvvfWW43VUO95HLMf7YJBLlukmz/g6nkFyJk6c6Hgf2x2vA8DxZp6bghY+BwzefkIYIOB4L+mO97E9s8xp06Y53ggqxxuB6ngfazLfzxtIgARIIA0B76OAH6yA+U4TDcOQQGoCKItew84ZN26cM3XqVP+Z7XVeOf369UstI01Aec56nRCO9+ErzS0O60sqTAxEApUh4HVUO96yqg58ryPc8fYWdwYOHOi/X+dREu/33qw0B+0Kb1k8B7Yprf1Q47Mhh/boK6J5eXofcvxnjdeZnbq95g3Udl577TVn/Pjx/j24F39zzTXXVwrFHHkDrh1vtLrf5vUa+n57FOXIm1kec1f0JZaDaDa8QgIqgTz1HffntS9q3LbkFLU/uk5l/M7zfl21dMFOe1ug+O0RHK+88sqON/mlDFypZNLOp8LEQCRQWQK22yN6QvPY3abYlSLPD5vfnSDrnXfecT777DO/Dwd9OUVd3vePLO87ttoltuSAmc36Yut5XoX6UqfyoJb9vHqrMorU8zLk6OWhUIe4qiCPSYAESIAEukNAN+TdiZWxkEA9CbC+1DPfqDUJNJEA7VETczV7mlgOsjPjHSRAAiRQJwK083XKLepKAvUgQLtSj3yiltUgwPpSjXyoihZ6eWCHeFVyhnqQAAmQQEoCuiFPeRuDkUArCbC+tDLbmWgSqCQB2qNKZkvXlWI56DpyRkgCJEACXSVAO99V3IyMBFpBgHalFdnMRFoiwPpiCWRDxOjlgR3iDclYJoMESKA9BHRD3p6UM6UkkJ0A60t2ZryDBEigHAK0R+VwrZtUloO65Rj1JQESIIFsBGjns/FiaBIggWQCtCvJjBiCBIQA64uQoA8CenlghzjLBQmQAAnUjIBuyGumPtUlga4SYH3pKm5GRgIkEEOA9igGTosusRy0KLOZVBIggVYSoJ1vZbYz0SRQKgHalVLxUnjDCLC+NCxDCyZHLw/sEC8IlLeTAAmQQLcJ6Ia82/EzPhKoEwHWlzrlFnUlgWYToD1qdv6mTR3LQVpSDEcCJEAC9SRAO1/PfKPWJFBlArQrVc4d6lY1AqwvVcuR3uqjlwd2iPc2Pxg7CZAACWQmoBvyzAJ4Awm0iADrS4sym0klgYoToD2qeAZ1ST2Wgy6BZjQkQAIk0CMCtPM9As9oSaDBBGhXGpy5TJp1Aqwv1pHWWqBeHtghXuvspPIkQAJtJKAb8jYyYJpJIC0B1pe0pBiOBEigbAK0R2UTrod8loN65BO1JAESIIG8BGjn85LjfSRAAlEEaFeiyPA8CXQSYH3pZNLmM3p5YId4m0sD004CJFBLArohr2UiqDQJdIkA60uXQDMaEiCBRAK0R4mIWhGA5aAV2cxEkgAJtJgA7XyLM59JJ4GSCNCulASWYhtJgPWlkdmaO1F6eWCHeG6UvJEESIAEekNAN+S90YKxkkA9CLC+1COfqCUJtIEA7VEbcjk5jSwHyYwYggRIgATqTIB2vs65R6UxWeEAAEAASURBVN1JoJoEaFeqmS/UqpoEWF+qmS+90kovDzN4iri9UobxkgAJkAAJkAAJkAAJkAAJkAAJkAAJkAAJkAAJkAAJkAAJkAAJkAAJkAAJkIBtAmPGjPFFskPcNlnKIwESIAESIAESIAESIAESIAESIAESIAESIAESIAESIAESIAESIAESIAES6CmBoEPc9VxPNWHkJEACJEACmQjoS31kupmBSaBlBFhfWpbhTC4JVJgA7VGFM6eLqrEcdBE2oyIBEiCBHhCgne8BdEZJAg0nQLvS8Axm8qwSYH2xirP2wvTywD3Ea5+lTAAJkEDbCOiGvG3pZ3pJIAsB1pcstBiWBEigTAK0R2XSrY9sloP65BU1JQESIIE8BGjn81DjPSRAAnEEaFfi6PAaCYQJsL6EebT9l14e2CHe9hLB9JMACdSOgG7Ia5cAKkwCXSTA+tJF2IyKBEgglgDtUSye1lxkOWhNVjOhJEACLSVAO9/SjGeySaBEArQrJcKl6MYRYH1pXJYWSpBeHtghXggnbyYBEiCB7hPQDXn3NWCMJFAfAqwv9ckrakoCTSdAe9T0HE6XPpaDdJwYigRIgATqSoB2vq45R71JoLoEaFeqmzfUrHoEWF+qlye91EgvD+wQ72VuMG4SIAESyEFAN+Q5RPAWEmgNAdaX1mQ1E0oClSdAe1T5LOqKgiwHXcHMSEiABEigZwRo53uGnhGTQGMJ0K40NmuZsBIIsL6UALXGIvXywA7xGmcmVScBEmgnAd2Qt5MCU00C6QiwvqTjxFAkQALlE6A9Kp9xHWJgOahDLlFHEiABEshPgHY+PzveSQIkYCZAu2LmwrMkYCLA+mKi0t5zenlgh3h7ywJTTgIkUFMCuiGvaTKoNgl0hQDrS1cwMxISIIEUBGiPUkBqQRCWgxZkMpNIAiTQagK0863OfiaeBEohQLtSClYKbSgB1peGZmzOZOnlgR3iOUHyNhIgARLoFQHdkPdKD8ZLAnUgwPpSh1yijiTQDgK0R+3I56RUshwkEeJ1EiABEqg3Adr5eucftSeBKhKgXalirlCnqhJgfalqzvRGL708sEO8N/nAWEmABEggNwHdkOcWxBtJoAUEWF9akMlMIgnUhADtUU0yqmQ1WQ5KBkzxJEACJNBjArTzPc4ARk8CDSRAu9LATGWSSiPA+lIa2loK1ssDO8RrmY1UmgRIoM0EdEPeZhZMOwkkEWB9SSLE6yRAAt0iQHvULdLVjofloNr5Q+1IgARIoCgB2vmiBHk/CZCAToB2RSfC3yQQTYD1JZpNG6/o5YEd4m0sBUwzCdSMwOeff+7MPPPMNdO6PHV1Q15eTJRMAvUnwPpS/zxkCkigKQRoj5qSk8XSwXJQjB/vJgESIIGqE6Cdr3oOUT8SqB8B2pX65Rk17h0B1pfesa9izHp5YId4FXOJOpEACTj//Oc/nVNPPdV59tlnnYkTJzpzzjmns8YaazgjR450VltttVYT0g15q2Ew8SSQQID1JQEQL5MACXSNAO1R11BXOiKWg0pnD5UjARIggcIEaOcLI6QAEiABjQDtigaEP0kghgDrSwycFl7Sy0OmDvHp06c7Tz/9tDN27Fhn3LhxTp8+fZzFFlvMWW+99Xy/Cjzvu+8+5w9/+IMzdepU53vf+57z4x//uApq9USHJ5980pk8ebLzta99zVl99dUdyfyeKGMp0qbkb1PSYSlbO8SceeaZzuGHH+64rttx7eijj3ZOPvnkjvNpTnz88ccO2E+YMMGZNGmSL3+FFVZwVlppJWeJJZaoTR2Rumzik4YDw5CATuCjjz5y/v3vf/vPdtSNfv36OYMGDXJQP+abbz49eOzvt956y5f1+uuvO9OmTXNWXnllZ6211nIWXnjh2Pv0i7bksL7oZPmbBOpFAM/uJ554wvnwww+dWWaZxRkwYICz+OKLp0qELTtiSw7t0X+zzRbPVIXAC/TOO+84aBc99dRTzieffOIstdRSzrLLLuu//6WV8f777zv33nuvM378eL99teCCCzrLLLOM/5zEMzOLYznIQoth606gm/XdVj0t+l787rvvOkh3GgdbssACC8QGbZo+kli0ZV999VXnxRdf9L8xghva5LDRyy+/fOo2SNXkIH2085LL9EmguwSK2gNb9tuWHJVeVewKvhc9+OCD/vfUFVdc0Vl66aVVNVMf25KDCPO2F4uWF1NibabLJF8/VyS+vO9NX375pfPCCy8Yv9nr+um/v/71rztzzTWXfjr4baPdBmFVqS9BwnIedPM9Gira4q8mN2/9VGXguIicjvLgVf5E572Au2eddZbrvayjd8r4t8EGG7jejM5EWWUH2GyzzQL9vA57F7q30Y0ZMybggDy7++67G4GhKfnblHSUUag84+t6D8dQ+V1kkUXcvn37+ueOPfbYzNF6HXPuDjvs4M4xxxwhuao9Q5ywYw899FBm+d2+QfTudryMr3kEvA4Cd6eddnJnn312Y92YaaaZ3EMOOcT94IMPEhOPMKhn3vYGRlneBy73vPPO65ociYj1RUjQJ4H6Efj0009db9Bah015/vnnYxNDexSLp2cXbeVL2gTceeedrtdp3VF+5LnwzW9+M/G97+GHH3aHDBnieoMxjHJmnHFGd++993a9j1Fp1QrkpL6BAUmghgS6Wd9t1VMb78XexJHId2GxPaq/3HLLReZuE/WRxN5zzz3u2muvHdhDlQmOZ5ttNvewww5zvU4lucXoV02OKCnpkd/0SYAEyidQ1B7Yst+25OjEem1XvE5Qd9SoUe4888wT2G68S2d1tuRIvHnbi0XLi8Qvvu10idwov0h8Rd+bLrnkkqAMSLlM62+zzTbGJNlot6mCRR/1XJ2Ou/keDS62+QvrvPVT7he/qBy9PGA0R6z77LPP/E4iuTHOx4dzb+RCrLyyL6ofzbzef9ebTVJ2lJWU/5///CdknO64445K6gmloNsZZ5zhnnvuue5rr70Wq2ea/M0iLzayjBezxJsmHRmjb0zws88+O1R2//KXv/hpw8P+/vvvd/FymcX9/e9/jx3Mo9s0dOaddNJJrrdveZZouhpWdO5qpIyscQQuuOACF89tKU9x/sCBA90pU6ZEMnjvvffcddZZJ5Us1K8oZ0uOKl/SpZ7jMQmQQD0InHbaaUa7gvfcKGfLjtiSo+rZZntUBk+VrXqMd8af/exnLtqCwjzKn3XWWV1vhRT19uDYW3XMRYd31L3qeQz68lYoC+6NO5D74sLwGgnUmUA367utemrrvfi2225LZTPEDnizw41Z3VR9kFhvW7TUjLyZh5EDc6smR81IyV/1HI9JgATKI2DDHtiy37bk6LR6aVeee+45d8MNN+yw3TiXxdmSo8aZp71oo7yoOpSRLlW+flwkPhvvTejDkfKY1d90001DybHVbgsJ9X6IXvr5Ovzu5nt0WfyFc576KfeqflE5enlI7BA/9NBDg0KEmzGLbJdddnGPO+44d7/99nO9PX1D15955hlV364fQy/5wL/xxht3Pf6qRFinDnFvSd6gDP3yl7+MRZgmf7PIi40s48Us8aZJR8boGxP8pz/9aVAeVl111ULpivoY6i216u64447+Hzr6xDCqPuxHVTvFRc9CcHhz6wmsv/76obLvLV3kbrHFFv4fPs5JORN/r732MjJDB4C3LUcovLfMuj/z/IQTTnB/8IMfdHRKnH766R2ybMnRBYv++nn+JgESqDaBiRMndqwYI/U5qkPclh2xJUcnLPrr55v+uyyeUdz0WQuYabjzzjv7A3C9rXc6nll45pkGdW+00UbBsw3ty80339yfsXjUUUe56jXJ16jnpK6nhNfP8zcJNIFAt+u7WheL1FNb78V6R4i3xaAb9zd8+HBjtjdVH6zGpq4mBfu87777uhdddJF72WWXuUceeaTrbfkX2F7YS5NtrZocPRNp53Ui/E0C5RGwZQ9s2W9bcnRivbArmJWJCQ2w1RK/6qftELclR2eSp71oq7xAl7LSpadTftuIz8Z7EyarLbrooq63LWLin6z2KuUGK2+pzla7TZWJY4lPP1/1391+jy6LPzjnqZ+m/LEhRy8PsR3i3h5rLkbNy01LLrmk6+3x06HbY4895n73u9/1O6LffPPNjuvdPoFZbG+88Ua3o61UfE3tEAfkpPzN0jFtM9OyxpuUDpu61UnWtttuG9gcfLzM62699dZAjtgwNLZhSHX39ttvu2pHvIS/9NJL9aCV+C36VUIZKlFbAjLCF8tc6VueYHWV3XbbraMOoa7o7je/+U0o3NChQzsGk2D5HfV9Ah8GMRJRdbbkqDJxzPqiE+FvEqgHAbwDSP3Vtzzx9hQ3JsKWHbElR1dS0qOfb/rvsniauGF5uf79+wdlB53d+GijOnxM2n777YMwyBfToFwMjsQMcXTGmFYowgwLyVP48847rxpN5LHcExmAF0igxgS6Wd+ByVY9tfVerHaEYPWkvK6p+mByjdhAtA0effTRDkQYoIQP7RJu/vnn7whTNTm6gqK7fp6/SYAE7BOwZQ9s2W9bcnRS3bYr6BMaPHhwYIsRPyY+qN910nSI25Kj88DvPO1FW+WlzHSZ0morPlvvTSYdTeeuvvrqUBnCCjjibLbbRKb43a4vEm9Rv5vv0WXyB4c89dPEz4YcvTzEdojj5VRugH/NNdeY9ArOeZubB8c86C2BJneIJ5HN2jGdJC/t9V7Fm1a/uoSTxj9sDlahyOPQ0aavXnHiiScmivr1r38dmsmK2ePYNqJqTuxy1fSiPvUicPPNN7vXX399pNJ44V522WVD7wHo2NbdWmutFYTBPoh4qTI5dDZI2YV/9913h4LZkhMS6v2QOPXz/E0CJFBdArAPUnex7DVmjslv+FEd4rbsiC05OmFJg36+6b/L4mnipo9y//3vf28K5r/fqR3nWCVFH6j1yCOPuE899ZTxfjmJZf8kX+GbBo9LWPElvPymTwJNItDN+g5utuqprfdiWx0hTdVH/WaCwbdRbuTIkSHbOn78+FDQqskJKef9oJ3XifA3CZRHwJY9sGW/bcnRiXXbrowdOzawZWiP7bnnnu7kyZPd73//+8H5NHuI25Kj88jbXrRVXspKl55O+W0rPlvvTaJXkv+Nb3wjKC8Y4DZ9+vTgFpvttkDo/w66XV/0+PP+7uZ7dJn889ZPnZstOXp5iO0Qv/jii4NCixsfeOABXa/Mv99//333vvvuc88//3wXox5uvPFG1zTjTASjoqCyPvzww0Glwah+fMTHkqu/+93v3CeffFKCu+iUx4x1LIFhkjtt2jRfFjr78bFfHNbnv+6669yzzjrLxaxQGJo4Z0uOxIE04eMeBh0gXaNGjXL/9a9/BWmWcGn9tB3iJr6IA52AmE2B/Zyvuuoq98UXX0wVddp0fPTRR+5LL73k/2HPPSmYBxxwQHAe119//fVQvFH5m1ceZkGifKG8oAzEOaw68OCDD7qPP/64vywKwuaNNyodcfGjEfi3v/3NPfPMM90//elP7ujRo/344+6xnb9xcenXsugLHlIesEy6lIcf/vCHwXlcR71L46699tpABmTtvffeaW7zw6ijBXEvZv8kuax2TZeH+oYPrrA9qHO33367/6Kph5Pfwkd+0yeBsggcccQRobqk14dnn302dB0vVFEOK8jIliYow/vss08Q1JacQKBywPqiwOAhCdSAALYrWWWVVQLbsscee7hjxowJfqNOmzrEbdkRW3JMqNtoj8rkaWKM5XaF81xzzRVq7+nhDznkkCAs7sG7ZlaHJdglPvhoVyQ5CZ8UjtdJoG4Eul3f0/LJU09NspPei3FPWR0hTdEHWzCKDcT2ZlHuwgsvDMIhvD7YqGpy9HRIGvXz/E0CJGCfgC17YMt+25Kjk+q2XcE3cMS59tpr+9/MRZ+sHeK25Ej88PO2F3GvrfJSRrqgX5TrZny23pvQ/yflFj62nVJdme02iVeNr+rH3X6PLot/kfqp5pEtOZCpl4fYDvFbbrkluAE3nnrqqapemY7xIXybbbYJzb4UZbAUHZat019yEcHPf/7zQIfjjz/eff75591lllkmOAcZGKkEwwCHMCLXtESVKg+jTtFhiH3SVYMo9y+44ILuFVdc4cvV/9mSA7k33HCDu9RSSwV6S/zwsfSeaa9VXR/9d9oOcTUdYIfCdvjhh7tzzz13hz6YLasOPtDjzJIONH7UdEYdo/NE7aiOyt+88n7yk58Eemy11VZ6kkK/sWWA6ImyA5c33qh0hCL0fqCjdMSIES5GUUncqg8+2K5AHzggcmzmr8iM8/Pqi9nbarqijk37h5n0wQubKgMf0tO6e+65J3QvZv5Eubx2TeTB/mAZ9z59+oTiFN0xO1df5hP3ynWRQ58EyiKA576UN/j6M1Gvu6bnuKrbuuuuG8hD+RZnS47IU33RXz3HYxIggeoSOO+88wI7gX1EJ02alKpD3JYdsSXHRLiN9qhMnibG6tY7q622milIcA7vWJIn8DE4OqsbNmxYSAZmziQ5iTMpHK+TQN0IdLu+p+WTp56aZCe9F+OesjpCmqLPoEGDApu5+uqru1988YUpaa76nQbfpvQVPKomR08E7bxOhL9JoDwCtuyBLfttS45OrBd2BVtY6C5rhzjutyVHdMnbXsT9tsoLZNlOF2TGuW7FZ+u9abvttgue+TPPPLOrr/ZSZrutF/UlLu/SXOv2e3RZ/IvUT5WTLTmQqZeH2A5xdPbIDfCxf9+///1vVbdUx+hY79u3b0iWKleOF154YRczLVV3zDHHBPftvvvubr9+/YLfch982RdYDY8lk3WnXsesgBVXXNEoT2Sjsx0z2XVnSw5m+kpcUT46PfUGgK6P/jtth7iajv3339/dfPPNY/WZc845jR10WdOBpVai0qufl7xFGlV91fzNK0+9b7PNNtMxhn5jKUXR7YwzzvCvqffLtSg/TTrUCF9++WUXgzqi5KnnUb9uuukm9Xb/WOVVJH87BBtOFNEXgzDU9EQd77jjjoaYO0+hnIqMjTbaqDNAwpnll18+uB+DVUyuiF2DPHTSJ9kfpAEvDeecc05IBUlb6CR/kEAJBGA3pLzB1/cax8xNuY5BQ0lODY/9p8Sp54vIEXmqL/qp53hMAiRQTQLo/EYnuNTbc88911c0zQxxW3bElhwTYUmX6VpTz5XJ08TsW9/6VlB+sORcnJOZFpIvv/rVr+KCd1xD5zfar3L/Ioss0hHGdELCm67xHAnUmUC363saVnnrqUl20nsx7imrI6Qp+mCAu9hA+JiFpjssj6muKoVVBHVXNTm6fpJG/Tx/kwAJ2Cdgyx7Yst+25OikqmJX8nSI62nB77xyirQXEa+t8gJZJpc3XSZZac7Zjs/WexNW3sIEWCm3pu/5ZbbbJN40DKsSptvv0WXwL1o/JS9syRF5enmI7RDHTeutt15QeHEzZjIed9xxqZcunjp1qrvQQguFZODjBDqj0Qmmwod8LEetOrVDT5SHjw6vDTbYwMUsbvyWGeJqeLXDVGSq13V5w4cP9/csxh6o6jUc60sz2pCDzn91JvbSSy/tLyWPDgd0MGO56FlmmcWfAR81clbSpft5OsTVNMNoYWbsj3/8Y3exxRYL8dA7jvOk49Zbb3W/973v+X+zzTZbIB+dj3IePvJEHQygclfzN688tUNbT5fO1NQhnjfeqHRInFh6HuVBzZPFF1/cxSgt7MMLX52xjnAYsKLPFFfjUWVlyV/RKc4vqi8avVhBAnmu1gmUPbU8xO13LPrpA3lOOeUUuZTaV8vFrLPO2jFyvahdw0x6fW9mvBxccMEF/rYJWBVA7dRHfqmz3CUvUyeIAUkgBwHYXtXuoS68++67IUlbb711YKeSbChuRH2U8osBZ1iVBM6WHF+Y9k/i007zJwmQQAUJqI1ALJsuNiJNh7gtO2JLjglvG+1RmTxNjLEnrXBGO1FtR+jh8f4qYeFjOeS0Dh+L9IHE+gDGKFkSZ9R1nieBuhLodn1P4lSknuqy07wX4x61IwTtdUwowfedO++809+WAe1AG66u+mB2mL46I1aLRBseDtv1qdfxPQD5qLuqydH1o53XifA3CZRHwJY9sGW/bcnRiVXFrtjqgM0rp0h7EUxtlRc9f+R33nTJ/Vl9m/HZfG868MADQ+0sLJ+uuzLbbVWpL3qa4353+z26DP5F66fwsSVH5OnlIbFDHEuUqy+kIgCj4U8++WR3ypQpItvo6/ssHXvssR3hsC+zzMh85ZVXQtdNHXpYWgkGDA4dxeoSrWp4tcNUhKrXJS3olJcXcAmnLtGEcOpepwhjQw4aRaIDOhokTaIDfIyoQaMgqyvSIb7++usHM+4RL/ZiB3PRFT72NRBXNB0rrLBCIBudvXFO5W7KX9ybRZ7a8ZnUmaN2DMkMcVXXLPEmpeO3v/1twAS8hwwZ4n7wwQdqdP6eiOhEVfMlTTnNmr+hSCN+2NIX4jHQRdJkGg0eoUJwWl/+8vLLLw+upT3AoB/RAf6ECRNCtxa1a1h1QuSjU/Cyyy4LyceP5557LjSYCEuZiJN75Td9EiiDAAb8SFmDj8EpulO3J8BySEkOe5CrMuUDly05pvglPtM1niMBEqgOgYcffji0tRIGy4lL0yFuy47YkiO6q34b7VGZPFW2cqxuFwTeN954o1wy+tieSvJlv/32M4Z57LHH3Ntvv93FcxHPsYMPPtjf1krug4/3tE8++cR4v35S7tPP8zcJ1J1At+u7yst2PVVl4zjNezHCqR0hUtdVH6t/YRLACSec0NG+x/1pXV31Qfqgu/6NEYPi1fIDZvj+8uKLL0YiqZocVVHJc/Ucj0mABMojYMMe2LLftuTotKpiV2x1wOaRU7S9KExtlBeRpft50qXLyPI7b3xlvjdh69u55poraGOtueaaxiSV0W6TiKpSX0SfNL76HlTk+2qauBDGNn9b9dOWHJWDXh4SO8Rx87333uv2798/KMgiBD6WPMXyctOmTVPj8Y/RWa7O/sUo+iiHDwjoGNed2nGI+DBL1rRngtynhjd1mKrXIW/LLbf092mW+8XHyN2VVlopSDMq8ocffiiXOzrE88i56KKLAvnzzDNPxyzUILIcB3k7xDfccENjw+wf//hHoCu4qXvsFU2HzY5koMoir4od4qhL6vKL2N8kaoUAnMeKC8gT/KGBrc4S18t7nvxNKn429UVcRTvE9eX777jjjqQkdFzXO/jVkWxF7drHH38crGyBPNtll1064pcTZ599dpC3CIuZ6XCS3xKOPgnYJoBZczJQTcobGg26W2KJJYLyiBU9kpxeP2VwlS05pvhFf9M1niMBEqgGAcx0UxuAWCVJdWk6xG3ZEVtyVP3luI32qEyewlX1MRtTOMNHhwoGS+rugQcecLfaaqtQWCyHrDushKUu3avKluMzzzwzWM1Av9/0W+4zXeM5EqgzgW7Xd2FVRj0V2fDTvhcj7L/+9a+QXZH6bvLR5v/rX/+K2zK5OusjCX3ooYfclVdeOZLVTjvt1LEyldyr+lWTI7pJfstv+iRAAuUTKGoPbNlvW3J0YlWxK3k7YPX0ZJVjo72o6lC0vKiy1OOs6VLvzXOcJ76y35tOO+200PM9aqKa7Xabyq8q9UXVKem42+/RNvnbqp+25Ois9fKQqkMcQrAkOZbPjvoggE7IZ555JhQfevQlQvj/93//F7qe5ofaoYeZlEmdW2r4pA5xfCBRO7l1fU466aSQ/uhkFqfGk1eOXvCSZkdL3Gn8PB3iGGwQxQMFEsvlS36q+6oXTUeWDmyVuyl/wSaLvCp2iOsznLGMdpzDdckX+OoevyqvvPkbFzeu2dQX8op2iOsPXox6y+pGjRoVYqoO1ilq1/SP+o8++mikelj9Qs1b2VJCzkXeyAskUJAABrpJOYOvd06JeHWvX+zFlOQuvfTSkFyshABnS44pfkmH6RrPkQAJVIPAH//4x8A2YBDqxIkTQ4rpz059KyMEtmVHbMkJJeB/P9poj8rkaWKMcxioLKzho/262mqruTvssIO7ySabuNjrW70ux6YOcWwVItejfHRqYUuQqAGsup4iRz/P3yRQdwK9qO9gVkY9VfMi7Xux6IIlL7H9HGwOvjdg0Oh3vvMdf2a41H/xMTHi5ZdfVqNLPK6zPpK46dOnd0wyESbw8Y3tiiuukOCRftXkiKKSFvlNnwRIoHwCRe0BniU27LctOTqxqtiVPB2welrwO6scG+1FVY+i5UWVpR5nTZd6b57jPPGV+d6ECabq1rv9+vWLXUXLZrtN5VeV+qLqlHTci/doW/xt1U9bcnTWenlI3SEugjCba/fdd/f3thZh4uNlXl3yHC+wcg2+aRa5yI3y1Q69wYMHRwULzqvhTR2mSdcDQd4BOsFU/f/+978Hl23IwRLYffv2DcWB5dsxGxsd0EVcng5xEy9VhwEDBgS6YklpcUXTkaUDOw33LPKq2CGO5bPVcocl6+McVkxQw59//vlB8DS8JHBU/sr1KN+mvoijaIf4xRdfHOKB5YqyOsz0UZmqS7UVtWs33HBDSDa2RMA509+1114bCovfcKJb1nQxPAmkIYA6g9UmpJzhOTVp0iTjrRhoI+GGDh1qDKOeRHmX8PDlncGWHDUuOZb45Dd9EiCBahHAkmrY61nq6qmnntqhYJoOcVt2xJacjkR4JySNpmtNPVcmzyhm2HJK3+5J2Mf5I0aMMIo866yz3MMPP9w97LDD3GHDhrkbbbRRx5LpkLvxxhv7M0mNQpSTooNyiock0AgCvajvAs52PRW5Wd6L5Z44H996Vl111eB5AHuAgTppXRP0wbcqdRYUGGCgElafFPso/q677hr5Ib1qctQ8FP3VczwmARIoj4AtexCnYVH7LbLzyqmKXcnTAStpV/0scmy1FyX+MstLlnSJPkX8vPGV9d705z//OfQs/8UvfhGbPNvtNomsKvVF9Enj9+I92gZ/W/XTlhwTa708ZO4QF6GYuYhljESg+PhAIA6FXs5jlEMel6VDD/KTwiddV3XUZ2fm7WiMk3P99dcbZ90vueSSLpZL1veNVvWLO4ZxF/bwo2bWZ+GhfljSPxgVSUeWDuw0+maRV8UOcXUPhznmmCMum/1rGDyBPeglv7G/tbg0vCRsXP5KGJNvU1/IL9ohri9PZNqf25QO9dzPfvazgCdmFWFZOnFF7Zo+g13yLY0vNkjCik70ScAWAaz0ou6nio7xm2++OVI8BqpJedxiiy0iw8kFfcCKDJSzJUfiUX3RTz3HYxIggeoQOOCAAwI7stxyyxk/fKfpELdlR2zJMRFuoz0qk6eJsZzDu9uJJ57ozwzX96pdaKGF/FnkN910U2h7L7yjpXVYahCDN3TZxx9/fKKINpaDRCgM0AgCvarvUfCK1FPIzPpeHKWHfn7ChAnuAgssEDz78L790Ucf6cE6fjdBn7vuusvFfuFiB7HFImwpthXD1mRHHXVUaGAuwmH2ku6qJkfXT9Knn+dvEiAB+wRs2YM0muW137rsPHKqYlfydsDqDLLIsdVehA5ll5cs6dKZ5PltM76i703QH5MtpaziGR+37bGkt4x2m+ggcdTB79V7dFH+tuqnLTmmvNbLQ+4OcRGO/UBnnHHGoLAjgnHjxvmX99hjj+A8OnjzuCwdepCfFD7puqrj5MmTA/2RLkzbF2dLDuRhyXF9r1bJKIwOueeeeyTa1H4ZHeJrrrlmwEPvEC+Sjiwd2Gm4Z5FXxQ5xbE0g+Y+lwtI49WMcOnPFpeElYZPyV8Lpvk19Ibtohzhmcws/+Fk+bkrasLydyMDoddUVtWsHH3xwIFviSOtjuXY4Ca/qxWMSKEoAs8AHDhwYlC+Us6QtGzbbbLMg/DrrrJOogrrE45xzzhmEtyUnEKgcsL4oMHhIAhUjgDaDuh3T7373OxejlPU/7LEqdRn+jTfe6Id57bXXghTZsiO25ASKKQeSBuVU4w/L5JkWHpYyR5lC+wgfesRhaX7JE/jqamASJsm/8sorQzLwbEtaOl3iTJLN6yRQNwJVqO8mZnnqaZ73YlPcUeeOPPLIkO2I20YLMpqgD7bnU2c/YXWYBx54oAMRVmrEdxCxlfAvueSSIFzV5ASKKQeiu3KKhyRAAiUQsGUPsqiW1X5Hyc4qpyp2xVYHbFo5NtuL3SgvadMVVS6yni8jvjzvTdD77rvvDj27f/SjH2VNjt+OstFuq0p9yQKgCu/RWdvNtuqnLTlRvPXyULhDHBEdeuihoQKPpX/hsLScRIhRoHlclg49yE8Kn3Rd1fGFF14I9Ec6rrvuuuCyLTkiELN88XEPM+z0AQZ59pXqRYc40pInHVk6sNNwzyJP7RBPWqpMbZSdccYZknWBnyXeuHSoL0VpZohjfw61zKhLjcbFEyj+v4O8HeI29YUqRTvEP/nkE3eGGWYI6i62Icji8KEU+5eK7dLvL2rXsMekyIaPATH33ntv4h9eCMTJ/fKbPgkUJYAZGepoRJQxrP6Q5NSVYvCBK8lFDSixJccUP+uLiQrPkUA1CFx99dWhZ6LU1yw+lh2Es2VHbMkxEZZ0ma419VyZPIsyu+WWW0LlL2p7kKR41Hdo5DFmcca5NpaDOB681hwCVa7vWepp3vfiLDmJDl6xBfDjVmRqij4jR44MpRnfv6IcBgioq+BhSwpxVZMjeqm+5K16jsckQAL2CdiyB1k0y2K/4+RmlVMVu2KrAzatHJvtxW6Ul7TpiisbWa6VFV+W9ybRd5tttgk95x9//HG5VNjP2m6rSn3JkvAqv0dH8bdVP23JieKtlwcrHeL4ECWC4ctM6t/+9reh81OnTo3SK/J8lg49CEkKn3RdVeTWW28N6a+O2rUlR41PjvERRR0VAqYHHnigXE7l96pDXFUubTpsdSRL3Fnk7bfffkEeYy+vONetDnEsi63WJ6xUEOewB68aPu/ADfVhZ1oBIEoHm/oijqId4pCh5hU6x9U9wHE9zmF2msoTHf6qK2rXrrnmmpD8NMvHqPHjWPTTz/M3CeQhgFGy6623XlCuUL6GDx+eStRBBx0Uuu/555+PvW/QoEFB+M033zwIa0tOIFA5YH1RYPCQBCpGACtNSR3N619xxRV+qmzZEVtyTKgljaZrTT1XJs+izIYMGRKUP6yQktftvvvugRzksazoEyWvjeUgigXPN4tAlet72npa5L04S26eeeaZIbsR9dG4SfoMGzYsSDPa60lOtdHYY1xc1eSIXqpPO6/S4DEJlEfAlj3IomFa+50kM6ucqtgVWx2waeXYbC92o7ykTVdS+Uh7vaz40r43iZ6YVKpO1ttwww3lkhVffSdI026rSn3Jkvgqv0dH8bdVP23JieKtlwcrHeLogBPB8G+//XY/foxyVc//+c9/jtIr8nyWjmcISQqvXsdL9dtvvx0Ztzp7GOlQOyZtyYmKHLN+11577YCfPks16j45X4UOceiSJh1qBzYqf5xTuWNfCpPLIk/dDxpLdkW5l19+OTRrOGmGeJF0oP6o9QYdsHHu5JNPDoV/8skng+BpeEngvB3iNvWFLjY6xH/5y1+GmKjLyEt6TT4+OKjlB8te6rOFitq1xx57LKTbtddea1Il9pyUj9hAvEgCKQhgvz59ABa2DPj8889T3O26+oC4s88+O/I+dJZL2YWvLn1oS44pconTdI3nSIAEeksAdgHPfWy5EPenDqZBncZWQwiPhjYa33C27IgtOSaybbRHZfI0MU577rnnngutKIT36bxOf46qbUaTzDaWAxMHnmsegarWd5BOU0+LvhdnydGdd945eC+eZZZZXKxyprum6bPRRhsFaV555ZX15Hb8VmdKqR3iVZPTobh3gnbeRIXnSMA+AVv2IItmaex3GnlZ5VTFrtjqgE0rx2Z7sRvlJW260pSRNGHKii/Ne5Oq3/777x88+1BW83zrVuWpx3nabVWpL2o6ko6r+h4dx99W/bQlJ4qxXh5iO8TR6YcP1nEfxrG2PGZ5iWDMxnzvvff8+LGvnzo6ZK211vKX1DYphw7HQw45pKODOkuHHuQmhVevQ+dVVlmlo8MLcl5//XV33nnnDdK10kor4XTgbMkJBBoOVGOiLhFlCNpxqiod4lAsKR3rrrtuwDlpBJHKPapDPIs87I8rZRf+nXfe2cESS1Wre10hnKlDPEu8cenAjOHZZpst0GvFFVd0p0+f3qEXTnzwwQcuGoeSBnTmqvU1Lh5dYN4OcZv6QicbHeJY9nz++ecPuIAP9i6Ocxgcow5CwT2mmfJF7Rp0Q0e75Nnqq68ep5bxmtxrvMiTJJCSAAYsbbvttkFZRLnaeuut3U8//TSlBNe3NwsttFAgA89K2CWT22677YJwqANqONgtG3JM8bK+mKjwHAnUi8CYMWMC+4E6/cQTT3QkwJYdsSWnQ0HvRBvtkW2er776qvuXv/zFRcM8r0M7b7XVVgvyo0+fPh1tUKxs9re//c0f3BsXD2Z1ojNL8naxxRaLC+5fk7CJARmABGpGoNv13WY9tfFenDa77rnnHnemmWYK7IZppbom6rPPPvsEacZy6G+88UYkMqRfHai+1VZbBWGrJidQTDmgnVdg8JAESiRgyx6kVTGN/U4jK4+cqtgVWx2wtuQI7zTtxW6UlzzpKtK+yRKfzfcm4Q7/nXfecbHlq5TRJZZYItQ3oYbNepym3WaSKbqYrlX1XLffo9NwyMtfl52mfur3mH7nlaOXh9gOcexdjRvQIYdl0NWP11BqwoQJ7i677BIUeITFsquq23XXXUPXt99+e3fatGlBEHx4/81vfuNKXPfdd19wDQdZOvTShFflCQx8wH/kkUeCeFGR0VEu1+FffvnlwXU9HgmXVQ6WpMXoJDwIdYdORrUT9oADDtCDxP7uZod40XRgNqIwxN7N6hLSMrhCEqvmX1SHeBZ5+mxdjFSeOHGiHx32Q7/rrrtcfNgS/cQ3dYhniTcpHZjRLHHBRyexzgIPTL2c3nTTTYLK95PiUQPn7RCHDFv6QpaNDnHIQQe4yhDHWPXhgQceCA0wQAc3ljHHbDM1PAbEvPvuuxDV4YraNXVlAsSJjsKouJ566in3qKOOci+88MJAD9EzOMEDEshBQF8F5dvf/raLmShZ3U9/+tNQ3cEgOVUOnvNHH310KMxuu+3WEY0tObpg1hedCH+TQP0IpG342LIjtuTopNtqj2zx1PcWO+ecc3TE/uDrq666yjhoAu/2Dz30kIuPNJIX8PFepjtZtm2ppZZyR40aZXxPu+2229wll1wyJCtNm03i1uPkbxJoAoFu1neb9dTGezFWTpxvvvncww47LFi9RM1TfOjEhJOFF144ZDdMs6iaqA/as2L/4KPdjw+tusOqbXvttVco7AknnBAEq5qcQDHlQNKpnOIhCZBACQRs2QNb9tuWHBOqqtiVLB2wpnTIOVtyRF6a9qKt8iJxmvys6UrTvjHFI+eyxGfzvUnih6+vXHv66aerlyOP0Taz0W4zRVCV+mLSLe5cN9+jy+SvpzFN/dTvMf3OK0cvD7Ed4n379g29hGIU57LLLutusskmLjoO8VsEwsfLP2Z6q27s2LHuzDPPHAqHjibMeMbyCwsssEDomt45nKVDD/EmhVevq7rjGB881l9//dAof5wfMGBAx+wAG3Kw1KPogFHBWGb7lFNOcVH41dmtmHUvy9CrbOOOu9khXjQdv/71rwMO4IEZz+ggxIhgpF1d1l7lHtUhnkUeGH7zm98MxY/yibKpfyyTvIJv6hDPEm9SOpBmdYUCxIlZ42CNjiTMZFZnkeM6BlfoLikeNXyRDnFb+kIfWx3iGMCz6aabhvJW8hA2CQN9Fl10UeP1/v37u3fccYeKJ3Rc1K5hUJA+0AJL9mN27hFHHOHbMezXsvTSSwf6qfstSzpCSvEHCWQg8MorrwRlS8oTfNSNuD8892+55ZZQTFjaBuVXlTP77LO72Opjm222cbFHoHoN5RoDenRnS44uV+LWz/M3CZBAfQikbfjYsiO25OiE22qPbPHEAEFhCB+rUOkOnSsSBu9aaFPsu+++7pZbbum3VeWa+DvuuKNxBbOLLrookIOweP6h7QF5eLbpAykRBm2XqFWdVD0lbvUcj0mgKQS6Wd9t1VNb78UjR44M2Q18O4PtwWBqfF8wtT333nvvjqxvqj4YAL7MMsuEGOGbBuwq2sDHHnusizaw3q5YbrnlXKyyJq5qckQv1aedV2nwmATKI2DLHtiy37bkmIj1wq7gmyreedU/9Vs0vh2p13B86623dqhvS06HYOVEmvairfIi0dpIV5r2ja34bL03iT7wseWLunItVoPUJ/Sp4dVjW+02VaYc96K+SNxF/G6+R5fJX2eQpn7q95h+55Wjl4fYDvEjjzwy9LIqN5t8dGybjB6Ux97hmPlruk89h9mu+iz0LB16iCspvHodnc5opKg66Me4jsKoOxtyhg4dGhu36IK4srpudogXTceUKVM6On8l7egQx4x9cSr3qA7xLPIgFzOGMZhD4jT5Q4YM8Tui5ZqpQzxLvGnScf/99/uDNCTOOB8NR4yk1l2aeOSeIh3ikGFDX8ix1SEOWRjtdOqpp3YMcolj+Z3vfCe0SgHkmFwRuwZ5WJVCXQYuTidcQz0TJ2HlN30SyEpAXx1DylQa//zzz++I7tlnnzV+5NPlYR9g00wQEWhLjsiDLzqo53hMAiRQLwJZGj627IgtOSrpNtsjGzzV91qwxLKHups0aVJg94W3yce2XljlKqoD+5lnngltcWOSoZ7DSmFPP/20ro7xt9xnvMiTJNAAAt2q77bqqa33Yn2Wl9R1kw8btMceexhtUFP1QdHGdhfq5A8TG/UcZtMjn3VXNTm6fpIG/Tx/kwAJ2Cdgwx7Yst+25JgodduuYCCSxJnF17+X25JjYqKeS9tetFFeEK+tdKVp39iKz9Z7k8r9sssuC5UTDERO62y120zxSZk1Xav6uW69R5fJX2ectn7q9+m/88rRy0NshzgixYxtLAWtz1YVQZhFfvzxx4dGbOrK4jc6lTErHLPG5F7xsdQcllP46KOPOm5VZ91itlmSSwqvGhp0qKITE8sx6bPd8ZL+wx/+MHJUiw05mFWLWeH6THzhglnj119/vXHWQhIHdQYrGlvqkvDqvUm81LDIP9EN94mzkY7Ro0f7qw6IfPHBAPtHiUurb1p5IveFF15wv/GNb4T28kJnPOL//e9/7+fBwQcfHKQf50wubbxp04EBIniY6LOJwQejrjBjHB2zUS5tPLg/Kn+jZJvOF9UXMrE/mOQ/6pkN9+ijj7o777yzcWULxIU6ApbYvgGd6GldXrsm8rGsNEbCY3sElDdJt/jYW27w4MH+8u8YyShOrstv+iSQlQDstr5Ci5SrOB/lFHuqmhxWiMHADayqosuAvcLqFnjhSnK25Eg8oov8pk8CJFA/Ai+99FLwjoZnI95z45wtO2JLjujadntUlCdW75F2Ewaz3nDDDYI25OPdSp9hKOyxTRdmbOKdPclhe7ARI0a4mJ0o96s+3h8xeBrLL37xxRdJ4oLrIiM4wQMSaCCBbtV3G/XU1nsx2pFXXnmli5W9TN+9UPdhgzDY/sknn4zM9abqIwnGNzisjIhV2cQe6j5W68NMy6hBS5BVNTmSPviSHvUcj0mABMojUNQe2LLftuSYSHXbruDdNs5Oiz66j2W5VWdLjirTdJylvVi0vCB+W+lK276xFZ+N9yaV/4EHHhg88+aee27jljFqeP3YVrtNlyvlUj9fl9/deo8ui7/OOUv91O9Vf+eVo5eHGSDUO5novP2OHK/T0HnzzTcdz3A43nIIjrfckeN9lEi8Vw3gVWBfjteR5Hizxh2vM9zxlipXg3Qcew0CB/F7HzYc7yNYx3X9RFx4L6Mdb29h/xavQ9zxOsr8Y6+zyfFmVTveCB/HG+HveEu66mJDv23JgVBkgTf6w/GMkuPN8nW8pbScgQMH+ukNRZrxhzfAwM8rr9HleJ0RkXfH8VJvQt5NnjzZ8ZZEcbyOFPWSf2wjHW+88YaDsuEtueF4jSDHW26lI560+uLGNPLUCLwGl/PEE0843qx0Z9111w2Vb6TP68zxy6Ap/aqcNPFmSQdkT5061fFmnvh54M2y9Muo9yFOjdZ4nDaepPw1Co85mVdf7wXSTyPShjpv24ktgz3r06ePs9BCCzleB57jDYLJHVUeu6ZH5i2j7ngjFR1vKWnfNqKMeR9gjXXX65T0b09pvvWo+JsESieAZ4U3u8VB3cD7gtdhYCzLSYrYkMP6kkSZ10mgHgTwnMR7etJ7rZ4aG3YEMm3IoT36Knfy8sR74rhx4/x2Qly7EO9IXoPZD4t3UrxT4lnUr1+/r5TIcIQ2gLeMsd8WwDsq2q9or3mDqjNI+W9QloPMyHhDzQmUXd8Fj816KjLz+mhzom331ltv+d9k0OaEDfJmPOcVWei+qukjicF3uNdee80ZP368/50F34Dwh2+FWVzV5NDOZ8k9hiUBuwSK2gNb9tKWHKFDuyIkov087cWi5SVam/RX0rZv0ktMF9LGexPaXOhD8SYz+n0oedpGttttSH2T6kvZ79Fl8DeVwDz105YcvTyk7hA3KVDHc1Ed2VnTYktO1ngZngRIgAR0Q04iJEAC0QRYX6LZ8AoJkEB3CdAedZd3VWNjOahqzlAvEiABErBDgHbeDkdKIQES+IoA7cpXLHhEAkkEWF+SCLXrul4e2CH+vxniWYsBO8SzEmN4EiABWwR0Q25LLuWQQBMJsL40MVeZJhKoJwHao3rmm22tWQ5sE6U8EiABEqgWAdr5auUHtSGBJhCgXWlCLjIN3SLA+tIt0vWIRy8P7BBnh3g9Si61JAESCAjohjy4wAMSIIEOAqwvHUh4ggRIoEcEaI96BL5i0bIcVCxDqA4JkAAJWCZAO28ZKMWRAAk0agloZicJlE2Az+GyCddLvl4e2CHODvF6lWBqSwIkwBdhlgESyEBAf/HJcCuDkgAJkIBVArRHVnHWVhjLQW2zjoqTAAmQQCoCtPOpMDEQCZBABgK0KxlgMWjrCbC+tL4IhADo5aHVHeJrrrmm88gjj4QApf2hLpleRE7a+BiOBEiABISAbsjlPH0SIIFOAqwvnUx4hgRIoDcEaI96w71qsbIcVC1HqA8JkAAJ2CVAO2+XJ6WRAAk4nBjDQkACGQjwOZwBVguC6uWhdR3ir7/+unP77bc7n3/+uTN48GBn9dVXz5XttuTkipw3kQAJtJqAbshbDYOJJ4EEAqwvCYB4mQRIoGsEaI+6hrrSEbEcVDp7qBwJkAAJFCZAO18YIQWQAAloBGhXNCD8SQIxBFhfYuC08JJeHlrXId7CPGeSSYAEGkZAN+QNSx6TQwJWCbC+WMVJYSRAAgUI0B4VgNegW1kOGpSZTAoJkAAJGAjQzhug8BQJkEAhArQrhfDx5pYRYH1pWYYnJFcvD+wQTwDGyyRAAiRQNQK6Ia+aftSHBKpEgPWlSrlBXUig3QRoj9qd/5J6lgMhQZ8ESIAEmkmAdr6Z+cpUkUAvCdCu9JI+464bAdaXuuVYufrq5YEd4uXypnQSIAESsE5AN+TWI6BAEmgQAdaXBmUmk0ICNSdAe1TzDLSkPsuBJZAUQwIkQAIVJUA7X9GMoVokUGMCtCs1zjyq3nUCrC9dR17pCPXyMIOnrVtpjakcCZAACZAACZAACZAACZAACZAACZAACZAACZAACZAACZAACZAACZAACZAACWQgMGbMGD80O8QzQGNQEiABEiABEiABEiABEiABEiABEiABEiABEiABEiABEiABEiABEiABEiCB6hMIOsRdz1VfXWpIAiRAAiQgBPSlPuQ8fRIggU4CrC+dTHiGBEigNwRoj3rDvWqxshxULUeoDwmQAAnYJUA7b5cnpZEACTgO7QpLAQmkJ8D6kp5VG0Lq5YF7iLch15lGEiCBRhHQDXmjEsfEkIBlAqwvloFSHAmQQG4CtEe50TXqRpaDRmUnE0MCJEACHQRo5zuQ8AQJkEBBArQrBQHy9lYRYH1pVXYnJlYvD+wQT0TGACRAAiRQLQK6Ia+WdtSGBKpFgPWlWvlBbUigzQRoj9qc+1+lneXgKxY8IgESIIEmEqCdb2KuMk0k0FsCtCu95c/Y60WA9aVe+VW2tnp5YId42cQpnwRIgAQsE9ANuWXxFEcCjSLA+tKo7GRiSKDWBGiPap191pRnObCGkoJIgARIoJIEaOcrmS1UigRqTYB2pdbZR+W7TID1pcvAKx6dXh7YIV7xDKN6JEACJKAT0A25fp2/SYAEviLA+vIVCx6RAAn0lgDtUW/5VyV2loOq5AT1IAESIIFyCNDOl8OVUkmgzQRoV9qc+0x7VgKsL1mJNTu8Xh7YId7s/GbqSIAEGkhAN+QNTCKTRALWCLC+WENJQSRAAgUJ0B4VBNiQ21kOGpKRTAYJkAAJRBCgnY8Aw9MkQAK5CdCu5EbHG1tIgPWlhZkek2S9PLBDPAYWL5EACZBAFQnohryKOlInEqgKAdaXquQE9SABEqA9YhkAAZYDlgMSIAESaDYB2vlm5y9TRwK9IEC70gvqjLOuBFhf6ppz5eitlwd2iJfDmVJJgARIoDQCuiEvLSIKJoEGEGB9aUAmMgkk0BACtEcNyciCyWA5KAiQt5MACZBAxQnQzlc8g6geCdSQAO1KDTONKveMAOtLz9BXMmK9PLBDvJLZRKVIgARIIJqAbsijQ/IKCZAA6wvLAAmQQFUI0B5VJSd6qwfLQW/5M3YSIAESKJsA7XzZhCmfBNpHgHalfXnOFOcnwPqSn10T79TLAzvEm5jLTBMJkECjCeiGvNGJZeJIoCAB1peCAHk7CZCANQK0R9ZQ1loQy0Gts4/KkwAJkEAiAdr5REQMQAIkkJEA7UpGYAzeagKsL63O/o7E6+WBHeIdiHiCBEiABKpNQDfk1daW2pFAbwmwvvSWP2MnARL4igDt0Vcs2nzEctDm3GfaSYAE2kCAdr4Nucw0kkB3CdCudJc3Y6s3AdaXeuefbe318sAOcduEKY8ESIAESiagG/KSo6N4Eqg1AdaXWmcflSeBRhGgPWpUduZODMtBbnS8kQRIgARqQYB2vhbZRCVJoFYEaFdqlV1UtscEWF96nAEVi14vD6k6xEePHu28++67zvzzz+8MHjw4dZKeffZZ5/XXX3fmnntuZ4011nBmmmmm2HunT5/uPP30087YsWOdcePGOX369HEWW2wxZ7311vP92Ju1i59++qnz0EMPORMmTHAmT57szDnnnE7//v2dtdZay1lwwQW10PxJAiRAAvUhoBvy+mhOTatK4P3333fuvfdeZ/z48f4zE8/JZZZZxllhhRWcfv36pVb7o48+cv7973/7z/BJkyb59w4aNMiXM99886WWowaEnAcffNBxXddZccUVnaWXXlq9nHjM+pKIiAFIoLIE8tR/tFneeuutVGmCrVtggQUSw0IebBvaNdOmTXNWXnllv02x8MILJ96rBqA9+i8NWzxVtnL85ZdfOi+88IL/zJBzaf2vf/3rzlxzzWUMbvP5xnJgRMyTJBBLoI52Q01QFZ5ntuyYLTl5+ZRl51V98C7x3HPPOc8//7z/ToFnw8CBA52111471XsD7bxKk8ckkI1AHnspMdi0T7aeO7bkNMGu2MwfyXP4H3/8sfPEE084H374oTPLLLM4AwYMcBZffHE1iH9c1vPD1vc0KPnOO+84Tz75pPPUU085n3zyibPUUks5yy67rLPSSit1pKfoCVv5gW91r776qvPiiy/6fXp4hi6xxBK+7ssvv7yT5VugrfT3ur7Yqvdp8rjq5S9t/ZS0lvE9p6M8eIU21j388MOup1Dw53WOx4YjzstMAAApGElEQVSXi2+//XZwD+6/7rrr5FKH71VA96yzznK9j1Khe9R4N9hgA/ef//xnx736CQ+aO3z4cNfrhDfK8gC4Xqe4+6c//cn94osv9Nv5mwRIgAQqT0BsY+UVpYKVJ4Bn/JAhQ1yv0WB8Zs4444zu3nvv7XqN0ti0eC/s7k477eTOPvvsRjnegDj3kEMOcT/44INYOepFr7Hijho1yp1nnnkCmd/85jfVIKmOWV9SYWIgEqgUgbz13xtQ684888yBzZD6H+Uvt9xysemGzdphhx0iZXoNffe8886LlaFeFD3Uc206ts3TxO6SSy5Jnf+SH+Jvs802HSLLeL5JfB2R8QQJkEAHgTraDTURVXie2bJjtuQU5WPbzqv63HXXXe7qq68e+RxBm+bAAw9UbzEe084bsfAkCcQSyGsvIdSmfbL13LElR6DV2a7YzB/hIb43IdL1Oos77LY3oEmCBL7t54et72lQ8M4773S9SSkd6ZB8x7cwb+JnkJYiBzbz45577nG9wWKRes8222zuYYcd5qK/Ls7ZTr9wi4uzjGu2632cjnUof1nqJ9Jq+3uO8NPLA0bPx7oHHnggVKgfffTR2PBy0RsJEbrvmmuukUsh/7PPPnPR2S2Kxfl4+YTcKAdd8WEqToZ6beONN3a9WelR4nieBEiABCpJQOxYJZWjUrUh8Ic//MFFh7eUpzgfz9apU6ca03bBBRe4eD7H3S/XvJkV7pQpU4xy1JPejAx3ww037JCJc1mdxJ31PoYnARLoDYEi9f+2227rsBtiA0y+Nzs8MpHvvfeeu84666SSd9JJJ0XKUS+IDuq5thyXwdPE7owzzkiVZ5IXqr/pppuGRJbxfEMEEmcoMv4gARLoIFBHu6EmogrPM1t2zJYcG3xs2nnRBx9sMbhX7HOc7608KbdF+nJ/ZABeIAESCBEoYi9t2idbzx1bclRIdbUrNvNH5SHHp512mtF2/+c//5EggW/z+WHrexoGgvzsZz9zMYFT8jjKn3XWWV1v1bIgPXkObObHqaeemqizpMVb6dE4Qaas9Eu8eRjlvaeMeh+lS13KX5b6ibTa/J6jstPLQ887xA899NBQ5cHssl122cU97rjj3P3228/1lloPXX/mmWfU9ATHI0eONM7ewKzzLbbYwsVIGm/Z15AswLj55psDGTwgARIggToQ0A15HXSmjtUjsNFGGwXPRHRob7755v7IzaOOOspVr0l522uvvYyJWH/99QM5COstOes/d/HsRWeT3C9+lBwIx8codCxhFKmEV312iBuzgCdJoBEEbNR/vQHlbb3kxv1hVSmTwwAgfYaYt9Sb/7H8hBNOcH/wgx90fLQ4/fTTTaJC58SehU624EdZPE3o7r//fnfRRRd1veXsE//69u0betZgxRTV2Xy+qXLbWg5UBjwmgSQCdbUbSFeVnme27JgtOTb42LTzUg7RPhHbDB+rzWDGGzopfv/73/vtk6222spvoyy55JJyW6QvsiID8AIJkIBPwIa9tGWfbD13bMnRi0hd7Yqt/NF54PfEiRNdb0uLkP0WTqYOcZvPD/WbWZHvafqsdXwL23nnnV103h999NEdbVJ8Y4ubLGripJ6zlR+Yra6uzAa99913X/eiiy5yL7vsMvfII490v/a1r4XyxvQtsKz0SzlQ017mcVn1PkrnOpS/rPUTabX1PUfnppeHnnaIe3shuBjdIkrhxdLbc0DX2X3sscfc7373u/4MtDfffLPj+pgxYzpmp22yySaut39cR1iMpMGLrMQZt5R7x808QQIkQAIVICD2qwKqUIUaE8AqKZghjpdSLEujO4w4lLIGf95559WD+L9lJjcGnulbm3h7OLm77bZbSA5kYVsV3eGdYPDgwaGw6IBS3xPYIa5T428SaAYBW/VfbUBhdnde95vf/CZki4YOHep+/vnnIXFY1k21T+h4xwj3OCc2NS5ME6+VxbMoq6uvvjqUz5gxoTpbzzdVJo7bWg50DvxNAnEE6mo3qvY8s2XHbMmxxSeu7KjXkuw8wsL2i12Gj5Wxxo4dq4oJjqdNm5a4lRQCi7zgRh6QAAl0ELBlD2zZJ1vPHVtydGB1tSu28kfngd/oOBYuc8wxR3CMc96e4qZbUp9Len7Y+J6G5bWx6oikAZ3d6LRXHQaNbL/99kEYhP3lL3+pBsl0bCs/MJlV9Eab2LSiNDruMVBZws0///whXctMv8QZirDEH2XV+yiV61D+8tRPW99zdG56eehphzgqiygEP2pZdUmEtwm7HIZ8dJarcvBxHwYjziEuLNVu6jSPu4/XSIAESKDXBMTe9VoPxl9vAo888oj71FNPxSYCy8dKeYNvGrSGlVauv/76SDlo6C677LIhOehI0h0+PElcWC5qzz33dCdPnux+//vfD85zD3GdGn+TQDMI2Kr/thpQa621VmB3sM84Gusmh48RYrfg33333aZgwTkJG5xoyUFZPIvi+8Y3vhHkHz7Q6Ftp2Xq+6Xq2tRzoHPibBOII1NVuVO15ZsuO2ZJji09c2VGvJdn5L774wh0wYEDwLECbZcKECaqIXMe087mw8aaWEbBlD2zZJ1vPHVty9OJQV7tiK390Hmh3CRN8P8LMZPkNv2iHeNLzw8b3NH12NFYkMTlsN6x2nGNVxqSB2CY5OGcrP1ZYYYWANybBRDms6Kzmy/jx44OgZaZf4gwiK/mgrHofpXbVy1/e+mnre47OTS8PPe0Qv/jii0OVAnuAZ3V33XVXSAYKIB0JkAAJNJmAbsibnFamrbcEsESTlDf4eOnK44444oiQHMw+190bb7zhh8HyhFh+SRw7xIUEfRJoLgFb9d9GA+rZZ58N2Ss01KMcVq7CEnliJ/fZZ5+ooP55CRcbqGEXy+RZBNV9990X5BvyBduF5HFpnm+63DaWA50Bf5NAHIE6240qPc/iGKvX8tgx9X45TiPHFh+JM85PY+dvuumm0LPA1gqStPNxOcNrJPBfAt20B0n2ydZzx5YcUxlpsl1Jyh+dB1buWmWVVQL7vccee7hYPVgYwS/SIZ7m+aHrZPqd9D0Ny4qLzlj6HZNJotwhhxwShMU9L730UlTQwufT5Ae2PBbdsb1IlLvwwguDcAivTrIpM/2iW5ReNs+XWe+L6Nmr8lekftr4nmNippeHnnaI33LLLaFKceqpp5p0jj2nz16Lm6UWK4gXSYAESKAmBHRDXhO1qWYNCQwbNiz0nMaM7TwOz3cpt/CvuOIKoxjTXkjsEDei4kkSaBwBG/XfRgPqxBNPDNkrtdFugr7uuusG4TGzLM6JHYwL07RrZfIswmq77bYL8g3736mzFbLITft8U2W2sRyo6ecxCSQRqLvdqMrzLImzXM9jx+Re1U8rxwYfNd6o4zR2HluiiE3GjDt9e5Qo2UnnRWZSOF4ngbYT6JY9SLJPtp47tuSYykWT7UpS/ug8zjvvvMB2Y5/qSZMmWe0QT/P80HUy/U76nrbtttsG6VhttdVMIoJzWEpdygB8WwO4ggiUgzT5MWjQoECf1Vdf3cWKKyb3k5/8JAg399xzh2a2l5l+YWXSyfa5Mut9EV17Vf6K1E8b33NMzPTy0NMOccyqEIXgY78H7PGdxfXt2zeQsfzyy4cqVhY5DEsCJEACdSEgdrMu+lLPehJA5/fCCy8cPGMXWWSR3AnZf//9Azkov/pe43GC2SEeR4fXSKDZBLLWfxsNKMwwkOfskksumQhYDT/ffPPFhhe5sYEadlHlY5tnXlSYUTHjjDMG+bzjjjvmFeXmeb61sRzkBswbW0mgiXajF8+ztIUnjx0zyS4iJysfU/zqubR2fumllw6eBSNGjFBFFDqmnS+Ejze3nIBtewCcSfbJ1nPHlhxTEWiyXUnKH5UHOr/RCS48zj33XP+yrRniaZ8fqk6m4zTf0771rW8F6Uha8VhWVJB0/+pXvzJFa+VcmvzAdsWiC3zMRtYdls1WV1M74IADQkHKTL/oFoqwpB9l1vu8Kveq/BWtnza+55iY6eWhpx3iUHC99dYLVaA+ffq4xx13nDtt2jST/qFz7777bujefffdN3SdP0iABEigiQR0Q97ENDJNvSWAl6fNN9889Iw955xzcimFvY0w40LK7ayzzuri+Z3WFW0QS7xp42M4EiCB6hDIWv/VBhQ6XzHQFgNw7rzzTn9ZOey/luS23nrrwF5tttlmScHdU045JQiP/eviZpe10R6VyTMxcyICHHjggUGeIU+wLGIel/f51sZykIcv72kvgSbajV48z9KUoLx2TJddVE5WPnr8+u80dn7q1Kkunttiky+77DJfzAcffODec8897jXXXONeeeWV7qOPPup++OGHehSxv0VmbCBeJAESMBKwbQ/S2Cdbzx1bckxgmmpX0uSPykPtfMSy6dL2stUhnub5oepjOk77PQ17b0u+LrjggrGTPD/99NMgLO7BsuZluLT5gdW11GXTodP222/vYvIr3FVXXRW6vthii7ngoroy0y9c1fjKOi6z3ufRuZflr2j9tPE9x8RMLw897xB//vnnQxVEFMSstJNPPtmdMmWKKR3+OewxKuHhY0kHOhIgARJoOgGxe01PJ9PXHQKPPfaYe/vtt7u33nqri729Dz74YHfeeecNPV+xlFHcfkZxmkKulFn43/ve9+KCd1wr2iCWuDsE8wQJkEDlCWSt/2oDSuq+6mNp7KWWWso94YQTXHzwNrm11147sFlYLi/JwW6qcegNffV+Caeea/pxmTzzsHvvvfdc7NEnebHmmmvmEePfk/f5JnHnjpg3kkDDCTTRbvTieZammOS1Y7rsonKy8tHjV3+ntfOjR48OngWwy4cddpiLgXB4VxA7LT46zldeeeXUA6jkPlUvHpMACaQjYNMeIMY09snWc8eWHBOpptqVNPkjPB5++OHQQCbMQBZno0M87fND4oRf5Hvaz3/+89Dz5sYbb1RFdxyr3+n222+/jus2TmTJD4TVO8WxLLpaD1BuMUHmxRdf7FCvzPR3s76o6bX9/aADmnaiSuXPRv208T1HQ+T/1MtDzzvEodW9997r9u/fP2QERFEsPYhlIEwzxv/0pz+F7rn66qtNaeY5EiABEmgUAbGPjUoUE9MTAu+//35oCSMpW6p/5plnBqNusyqJUazYzkSVh5fmLK5og1jizhInw5IACVSDQNb6/69//Stkb6T+m3wMvv3rX//akdAlllgikDF8+PCO6/oJvT3y7LPP6kGC36JHcKIFB2XyzIPvtNNOC/IX+XH55ZfnEeMWeb61sRzkgsybWkugiXajF8+zpAJUxI6psm3IycpHjV8/Tmvn0ZEi9jitj+02ID/JibykcLxOAiTQScCmPUhrn2w9d2zJ6aTiBvbKdK2u59LmD9KHmctqx+MPf/jDULJtdIinfX5IxEW/p2E1M3lewEfHMfYK190DDzzgbrXVVqGwWNbctsuSHxI3JqtiwJiaDvV4p512ilwhssz0iw6iZ5l+mfU+Tu8qlT9b9dPG9xwTM708VKJDHIpiL4Qf//jHkR/mV1hhBfeZZ54Jpemkk04KVbi77rordJ0/SIAESKCJBHRD3sQ0Mk3dIaBvPSJlS/XRaYQlgb/44ovMSmFAmypLb7SkEVi0QSzxp4mLYUiABKpFIGv9h03DkmWbbrqpu8MOO7h77rmni07t73znO/7McLEH4s8zzzzuyy+/HEq0uicd9kZLcpdeemnIzj333HORt0i8kQEaeKFMnllxYcl8LNcn+dCvX7/cq58Ueb5J/Fn1Z3gSaAuBJtqNXjzPkspLETumyrYhJysfNX71OIudx6A4sceqv9JKK/n7DZ944oku3gMGDRoUCoftn/R3B1UHHIs8/Tx/kwAJJBOwZQ8QU1r7ZOu5Y0uOiVIT7Ura/AGPP/7xj4FtxWpPEydODGEq2iGe5fkhEdv4nrblllsG6UIeY8/t1VZbzW/LbrLJJu4iiywSui7loIwO8Sz5IQymT5/uHnPMMUYdoSs6+a+44goJ3uGXlX7h1BFhCSfKrPdx6lap/Nmqnza+55iY6eWhMh3ioixmVey+++7uLLPM0lGZ8NHqlVdekaDueeedFwpz7bXXBtd4QAIkQAJNJaAb8qamk+nqDoGzzjrLPfzww/1lAocNG+ZutNFGHUumo8xtvPHG/oy4tFphqRt1ycG+ffu6kyZNSnt7EK5og5j1JUDJAxKoHYGi9V9P8D/+8Q931VVXDbUf8KFBdYsvvnhwfejQoeol4zH2RxM7A19tq+g3SDj9fJN/l8kzK7c///nPobz6xS9+kVWEH77o862N5SAXaN7UWgJNtBu9eJ7FFaCidkxk25Jji08WO3/dddeFngkYTIf9wnWHGXP6nrIYcBfnaOfj6PAaCcQTsGUPstgnW88dW3JMhJpmV7LkD5Yyxx7bwsC0ZW7RDvEszw81f4p+T3vppZfc1VdfPUibpDHJHzFihKpG4eMs+SGR/ec//3HV2dHQGR34WO1Z13/XXXc1DkQuK/0Sv+hapl9mvU/Suwrlrxv1Uzik+Z4jYVVfLw+V6xAXZV999VUXyyqIwuLjQ724m2++OXQdy7rSkQAJkEDTCYg9bHo6mb7eEcDSO2hk6PsBHX/88amUwoou6v5G6BjHMzuPK9ogZn3JQ533kEA1CBSt/6ZUTJgwwV1ggQWCNgTs00cffRQEHTx4cHBtiy22CM5HHVx88cVBeNgb0zZPcm8b7VGZPIVrWn+NNdYI8mq22WZz33rrrbS3BuFsPN/aWA4CgDwggRQEmmY3kORePM+iUNuwY5BtSw5k2eKTxc7fcsstwTMBdtm0TC10g/vkk0/cRRddNAiP2XtxjnY+jg6vkUA8ARv2IKt9svXcsSXHRKhJdiVr/hxwwAGB/V1uueWMHatFO8SzPD9M+aOey/o9DQOvsCoJni36N7iFFlrIxSzqm266yUX7RcpBmu07VJ3ijrPmB2RhlWbsFy76QDd8Q/z444/dKVOmuEcddVRoggzCIR0mV0b6RS9TfLbPlVnv8+ja7fLXjfqpckj6nqOGlWO9PCR2iD/44INB4cbNt99+u8iK9THCQyKDj9GXeRz25cM+PaqscePG+aJeeOGF0HmM2qQjARIggaYTEHvY9HQyfb0ncOWVV4aes3POOWfi0umYBT5w4MDQfRdccEHuxBRtELO+5EbPG0mg5wSK1v+oBBx55JEhG6XOCNtss82Ca+uss06UiOC8urQcbGSca6M9KpNnHGv9mr5X7I9+9CM9SOJvW8+3NpaDRLgMQAIKgSbZDUlWL55nErfq27JjtuSIbjb4ZLXz+t6lWEI9zu29997B+wEG/sY52vk4OrxGAvEEitqDPPbJ1nPHlhwToabYlaz5gz4gLCMu6f/d737nos9J/9O3wbjxxhv9MK+99poJZ+hc1udH6OaYH3m+p2GrQqQNs6/RsSkOS8QLA/h///vf5VIhP2t+ILIPP/zQVWdFY/Y+9jnXHfoUsWS6qvcll1yiBwv9tpV+iTMkvKQfZdb7Iip3o/x1o36aGMR9zzGF18tDYof4+PHjQwV31KhRJrkd57DUgkQGf/To0R1h0p449NBDQ7JuuOEG/1aMIFGN4iqrrJJWJMORAAmQQG0JiG2tbQKoeK0IrLnmmqFnMEaPRjmMBFVHR6Ks/vznP48Knup80QYx60sqzAxEApUkULT+RyUKDXGxDfDVFSzUFarQ0E9ye+yxRyBrySWXjA0uccYGatjFMnlmQbXNNtsE+YR8ePzxx7Pc7s90sPV8a2M5yASbgVtPoCl2Q83IXjzP1PhxbOs93ZYcVT8bfLLa+SeffDL0XMCKL3FO/S7Zp08f98svv4wMTjsfiYYXSCCRQBF7kNc+2Xru2JJjgtQEu5Inf66++uqQrRYOWXwssxznsj4/4mTp17J8T9PvVX/rq5qgI7uoy5MfiHPkyJGhPMHggyiHgeezzjprEB5bMeZxWdMv5SNPXFnvKbPeZ9VFD192+etG/dTThN9x33NM4fXykNghDiHqEgiHHHKISW7Hud/+9rdBYccMb3Upwo7ACSdguERx+NioXdxSSy0Vuva3v/1NLtEnARIggUYSEHvYyMQxUZUjsPvuu4eesw8//LBRR4wSXW+99UJhhw8fbgyb5WSRBjHiYX3JQpthSaBaBIrW/6jUYJslsQ3w1c7Rgw46KHTt+eefjxLjnx80aFAQfvPNN48NK3HGBmrYxTJ5pkWFVcXUFcc23HDDtLf64Ww/39pYDjIBZ+DWE2iC3dAzsRfPM1UHW3bMlhxVNxwX5ZPHzk+fPj00weaYY47R1Qr93m+//YLnPZZPj3O083F0eI0E4gnktQdF7JOt544tOSZCdbcrefMHKwdL2vP6V1xxhQmpfy7P8yNSmOFC2u9phltDp4YMGRJwwIqMRV3e/EC8w4YNC3TBDPAkp+qOPcbzOFVGmvRLWckTV9Z7yqz3WXXRw5dd/squn3p65Hfc9xwJo/p6eUjVIb722msHBb1v374uNkuPc1jeYNVVVw3uQad1EYfl1kVx+Oqy7TqAddddt0hUvJcESIAEKk9A7GHlFaWCjSCgLv+Dsjd58uSOdGGfID3cDjvs4H7++ecdYbOeyNsglnhYX4QEfRKoH4Gi9T8qxTvvvHPQtphllllC+9DpA3HPPvvsKDEuOsvFxsBPWgJOwkYKbOCFMnmmxbX//vuH8unaa69Ne6u/D57t51sby0Fq4AxIAh6ButsNUyb24nkmeth6T7clR/RS/aJ88tr5ZZddNng+4DjOqauEbLrppnFBA5mxgXiRBEjASCCPPShqn2w9d2zJMYGp8/tjkfxBe2uDDTZwsZVV3J86SBmsll9+eT88BsKi0zvK5X1+RMnTz+vtCNP3NP0e/fdzzz3nzjDDDMGz5eSTT9aDZPpdJD8Q0UYbbRTosvLKKyfGrc6gztMhnif93awvZdb7RLgJAcouf2XXz6jkxX3PMd2jl4dUHeLq5ugQgJGRcU6dHY7wMC4md8YZZ/gfjuI+mKNzHbMtRHEYALVDHpV4iSWWCK4j3NChQ/39DExx4hxknnvuuW7//v3d66+/PioYz5MACZBAJQmIPaykclSqFgSmTp3qYkWVzz77LFZfzJpEZ5GUucUWW6wjPGRsu+22QRiE3XrrrV1sa2LD5WkQq/GK7uo5HpMACdSDQNH6b0rlPffcE5oRhkG8qkO7ZKGFFgps2korreR+8MEHapDgeLvttgvCYf/wqHByQxvtkW2er776qvuXv/zFxYeRNO6dd95x55hjjiCf0G6Ma3uqMst6vrWxHKhceUwCSQTqbDei0taL5xl0sWXHbMkpg08RO7/XXnsFzwfY5oceesioItpNYrvhY+/KOCdh48LwGgmQgJlAVntpwz7Zeu7YkmMiU1e7YiN/TDz0c2PGjAnZ6SeeeEIP0vE77/PD5ve0DqW0E6+//rq72mqrBWnDlh1vv/22Fuq/P9O0k2zkxz777BPog+XQ33jjDaM+OIn4VlhhhSD8VlttFRnWdCFL+tX7u1lfbNf7pHysavlT+evHeeqnLkN+J33PkXCqr5eHVB3iqGgLLrhgUHghBAUY+4ur7v333/c7y9VRKwsvvHCoA1sNP8888/gyV1xxRX8ZdP0j0oQJE9xddtklFC+WY9Xd5ZdfHgoD/fDx6qabbnInTpwYBMcoHCy3jmsCImkmR3AzD0iABEigIgTEflVEHapRQwKyrA1WcBk1apT77rvvdqTitttuc7EfrpQ3+Bggp7s999wzFObb3/62P6NOD5f3d9YGsR6P6K+f528SIIHqE8hS/7Gi1HzzzecedthhxlkAaKjivR9tE7EL8E2zhX/605+GwmBwLgbhisOAn6OPPjoUZrfddpPLkb7EGxmgoRds8dT3KDvnnHMSiWEGhXCHf/rppyfeIwHKer6JPhIPfRIggU4CdbUbnSn575lePc9s2TFbcmzw0WUUsfPoABebDB8z15555plQFGgTfe1rXwvC4Thphp/IDAniDxIggVQEsthLCLRln2w9d2zJ0WHV1a7Yyh+dh/47T4db3ueHre9pX375pXvVVVe5ps57XMMzSp8E+otf/EJPuv87bTvJRn5ceOGFwTMR5RIz+NFxrTssy64PPDvhhBOCYDbTHwj930G364utep8mH6tY/nT++u809dPm9xw9fr08pOoQhxDstyA3qz72CsBSCUsvvXRotoWEQcWOclh+XcLBx6gSLFO0ySabuFhyAb/V6/jI9fLLL3eIw4zvXXfdNRRWvW+BBRZw5513XuP1K6+8skMeT5AACZBAlQmIfauyjtSt2gQuuuii0DMRz9s11ljDxWzHbbbZxl9eSsqZ+BjVib32VPfKK6+E5EjYmWee2Y37Q3y33HKLKso/xvKDWNpK/ZttttmCOCBTvYbjW2+9tUOOekJ0Us/xmARIoHoEitb/kSNHBrYC9R5tii233NJvI2CpMOz3KfZA/L333tsIAkt/6YOBZ599dvdb3/qWbyPR/hEZ8NEOwkjuJCf3JIVr2nVbPI866qgQ96hVyITfJ5984nduCHfM4ldXGpNwJt/2802NQ/RRz/GYBEggTKCOdkNSUJXnmS07ZkuOLT4iB34ROy9y9OVEsaoIvnHiGyNWkZlxxhlDzx5s25jkaOeTCPE6CfyXQFF7adM+2Xru2JKjl5E62hWb+aPz0H+n6XBT7yny/LD1PQ2dyJKvWI0R3+P23Xdfvw2LPjC5Jv6OO+7oohPZ5NK0k2zlBybULLPMMiH98N0O+h9xxBHuscce62Lvar09vdxyy7mYTCvOZvpFpvjCTH6X7duq92nysYrlL4lvmvpp83uOro9eHlJ3iEMQFJNZ3SIoysdSgxixEOewzFDU/fp5dGonffTGTPG55547lcyZZprJPfDAAxOXi43Tn9dIgARIoBcExD72Im7G2QwCmPmAjgEpS0k+VlZ5+umnOxL/2GOPpZahx3H++eeH5OHFWA+T5je2X4lzIiMuDK+RAAn0loCN+q+Pppa6b/LxcXuPPfboGOSjUnj22WeNnei6POxXZxoRr8qSY7lXfrfJt8HzmGOOCT0nsFxfnLvssstC4fGBKa2z+XzT42xzOdBZ8DcJxBGom91AWqr0PLNlx2zJscVHLTNF7LzIwYd9dS9xsdG6jwG9p512mr8Fo9wb5cu9Udd5ngRIwI69tGmfkCc2njs25ajlpI52xXb+qDz04zQdbuo9RZ4ftr6nTZo0KdRWkTzWfbRdhw8fHtt2TdNOspkf2L5q/vnnT6U/0oNV2vQVWGymX81bHAtD/XyZv23YjzT5WMXyl8Q1Tf20/T1H1UkvD5k6xCEI+wIMGzYstLeeCMVS6QMGDPBHs5iWX1UVkWOs+77DDjtEzuDGLPLjjz8+NIJE7jX5L730kr8cw1prreViJofoJj6Wfz3ooIOMSyma5PEcCZAACVSNgNizqulFfepFANuSjBgxwsUoTSlTqo+XbnwcwnJIWInF5LClCgasqfelOcb7AvbiUx3i6N+/f2ZZSYPvRB81Lh6TAAlUi4CN+o/R8lj5Ccubm9oAsAUY2DtkyBD3ySefTAUAK1MNHTrUb9+ILREfg4qwTDoa8mmd3Js2fNPCFeV5xx13uLLCGGZN3HDDDbGIMPhZmGPQ9AsvvBAbXr1o8/mmysWx6KSf528SIIFOAnWyG9C+Ss8zW3bMlhxbfNRSUsTOq3KmTJni4iO0acAwPvjj3eLxxx9Xb4k9pp2PxcOLJOATsGEvbdonyZaizx3bckReHe1KGfkjPHQf/UGY/AhO8MeOHasHCf0u+vyw8T0NCmE2tT6TWvIabVeseDZ69OiQ7qYfadpJtvMDz85TTjkl9jselnzHBFt9tUlJg630izzxhaH87pZf1H6kyUekpWrlL4lvmvpZxvcc0UsvDzPggncyl/OWnHO80Q/OW2+95XgdzY73Ud3xPkDlkuXt6+d4HymcN9980/EqlOPt3eN4yy843kePXPJwk/dw9WV6+4g7nnFxvA/tjjdzPbc83kgCJEACVSDgdSb6ahQw31VIBnWoEAGvQ8fxlk9y4Hsd4Y63t7gzcOBAx5sJUSEt86nC+pKPG+8igToTQLvCG7Xut1HQrsD7vzfAx/FGpudOlrdfqOONqvfbF2inQJ734TyTPNqjr3Dl5ek1lJ1x48Y53scVx/vY9ZVAwxHek9555x3ns88+89uUVXmmsRwYMounSCAFgTbajTKeZylQ1yaIbTsP3t4WKI734dbBsbeVo+Ntk5KZB+18ZmS8gQQqSSDvc0dPjA05tCs61c7f06ZNc7yVWhyvIzmxnWbz+VH0exp0wXMHbZypU6f6fVhoa/br168zkTFnsrSTYsTkuuRNjHVee+01Z/z48X4bDW01/M0111yJ8mylX42oCvUlb73Pmo9VKX8qf9Nxlvpp+/1XLw+FOsRNieM5EiABEiCBcgnohrzc2CidBOpNgPWl3vlH7UmgSQRoj5qUm/nTwnKQnx3vJAESIIE6EKCdr0MuUUcSqBcB2pV65Re17S0B1pfe8q9a7Hp5YId41XKI+pAACZBAAgHdkCcE52USaDUB1pdWZz8TTwKVIkB7VKns6JkyLAc9Q8+ISYAESKArBGjnu4KZkZBAqwjQrrQqu5nYggRYXwoCbNjtenlgh3jDMpjJIQESaD4B3ZA3P8VMIQnkJ8D6kp8d7yQBErBLgPbILs+6SmM5qGvOUW8SIAESSEeAdj4dJ4YiARJIT4B2JT0rhiQB1heWAZWAXh7YIa7S4TEJkAAJ1ICAbshroDJVJIGeEWB96Rl6RkwCJKARoD3SgLT0J8tBSzOeySYBEmgNAdr51mQ1E0oCXSNAu9I11IyoAQRYXxqQiRaToJcHdohbhEtRJEACJNANAroh70acjIME6kqA9aWuOUe9SaB5BGiPmpeneVLEcpCHGu8hARIggfoQoJ2vT15RUxKoCwHalbrkFPWsAgHWlyrkQnV00MsDO8SrkzfUhARIgARSEdANeaqbGIgEWkqA9aWlGc9kk0AFCdAeVTBTeqASy0EPoDNKEiABEugiAdr5LsJmVCTQEgK0Ky3JaCbTCgHWFysYGyNELw/sEG9M1jIhJEACbSGgG/K2pJvpJIE8BFhf8lDjPSRAAmUQoD0qg2r9ZLIc1C/PqDEJkAAJZCFAO5+FFsOSAAmkIUC7koYSw5DAfwmwvrAkqAT08sAOcZUOj0mABEigBgR0Q14DlakiCfSMAOtLz9AzYhIgAY0A7ZEGpKU/WQ5amvFMNgmQQGsI0M63JquZUBLoGgHala6hZkQNIMD60oBMtJgEvTywQ9wiXIoiARIggW4Q0A15N+JkHCRQVwKsL3XNOepNAs0jQHvUvDzNkyKWgzzUeA8JkAAJ1IcA7Xx98oqakkBdCNCu1CWnqGcVCLC+VCEXqqODXh5m8FRzq6MeNSEBEiABEiABEiABEiABEiABEiABEiABEiABEiABEiABEiABEiABEiABEiCBYgTGjBnjC2CHeDGOvJsESIAESIAESIAESIAESIAESIAESIAESIAESIAESIAESIAESIAESIAESKBiBIIOcddzFdON6pAACZAACcQQePrpp/2rK664YkwoXiIBEgAB1heWAxIggaoQoD2qSk70Vg+Wg97yZ+wkQAIkUDYB2vmyCVM+CbSPAO1K+/KcKc5PgPUlP7sm3qmXB+4h3sRcZppIgAQaTUA35I1OLBNHAgUJsL4UBMjbSYAErBGgPbKGstaCWA5qnX1UngRIgAQSCdDOJyJiABIggYwEaFcyAmPwVhNgfWl19nckXi8P7BDvQMQTJEACJFBtArohr7a21I4EekuA9aW3/Bk7CZDAVwRoj75i0eYjloM25z7TTgIk0AYCtPNtyGWmkQS6S4B2pbu8GVu9CbC+1Dv/bGuvlwd2iNsmTHkkQAIkUDIB3ZCXHB3Fk0CtCbC+1Dr7qDwJNIoA7VGjsjN3YlgOcqPjjSRAAiRQCwK087XIJipJArUiQLtSq+yisj0mwPrS4wyoWPR6efh/WvYLnmcEFeIAAAAASUVORK5CYII=;" vertex="1" parent="1">
          <mxGeometry x="15.16" y="885" width="629.68" height="140" as="geometry" />
        </mxCell>
      </root>
    </mxGraphModel>
  </diagram>
</mxfile>
